<?xml version="1.0" encoding="UTF-8"?>
<svg id="Layer_1" data-name="Layer 1" xmlns="http://www.w3.org/2000/svg" viewBox="0 0 324.52 277.17">
  <defs>
    <style>
      .cls-1 {
        fill: #3f0a25;
        fill-rule: evenodd;
      }
    </style>
  </defs>
  <path class="cls-1" d="M320.6,47.12c.1.43.27,1.15.31,1.7.21,2.83-.1,6.24.15,7.72.17.96.54,1.92.96,2.88.35.78.81,1.53.84,2.33.06,1.96-1.33,3.53-3.01,4.96-3.41,2.89-8.29,4.98-11.08,6.47-4.68,2.5-8.73,6.12-12.84,9.66-3.73,3.21-7.5,6.34-12,8.18-3.31,1.36-8.29,1.59-12.53,2.76-3.57.98-6.65,2.59-8.48,5.31-1.1,1.62-1.53,3.58-1.73,5.66-.19,1.99,0,4.14-1.03,5.78-4.43,7.12-10.45,14.64-15.58,22.55-5.38,8.3-9.77,17.02-10.68,26.08-.47,4.74,2.55,12.76,5.19,16.6.44.63,2.86,3.03,3.9,4.06-.71,1.52-1.96,2.83-3.28,4.1-2.04,1.95-4.3,3.75-5.93,5.62-3.78,4.32-7.71,12.29-10.27,17.48-1.06,2.15-1.27,5.13-1.53,7.99-.1,1.09-.21,2.15-.47,3.09-.16.57-.33,1.1-.72,1.46-.98.95-2.41,1.43-3.84,1.88-1.99.62-4.05,1.14-5.72,1.96-5.29,2.59-10.74,6.51-15.01,10.59-3.6,3.44-4.84,7.87-6.18,12.12-1,3.18-2.02,6.28-5.35,8.16-.44.25-.99.15-1.59.04-1.11-.2-2.32-.67-3.54-1.17-3.2-1.31-6.5-2.77-8.89-2.7-1.58.05-3.05.57-4.5,1.24-1.32.61-2.58,1.47-4.12,1.47-13.05.05-26.25-2.16-39.22.89-1.08.25-24.82,9.21-25.42,9.62-3.79,2.62-5.36,5.8-6.67,8.5-.6,1.23-.98,2.39-1.98,2.98-1,.6-2.46.47-4.92-.15-1.64-.41-3.4-.7-4.98-1.29-1.78-.66-2.77-1.15-3.17-1.9-.35-.65-.11-1.37,0-2.19.33-2.27.74-4.92-.39-8.15-.9-2.57-7.37-12.05-9.2-14.31-4.1-5.04-8.51-10.49-14.67-12.98-2.01-.82-5.05-1.08-7.87-1.59-1.09-.2-2.13-.43-3.01-.83-.5-.23-.95-.48-1.21-.92-1.01-1.79-1.09-4.5-.76-7.3.53-4.52,2.25-9.36,4.41-11.55,1.45-1.47,3.92-2.6,5.72-4.1,1.83-1.52,3.09-3.36,3.31-5.65.2-2.18-.7-4.2-1.99-6.05-.66-.95-1.42-1.85-1.99-2.75-.23-.36-.51-.67-.47-1.04.24-2.31,1.44-4.38,2.51-6.47,1.42-2.79,2.68-5.59,2.68-8.63,0-5.88-2.28-10.55-4.97-15.03-1.98-3.31-4.22-6.49-5.56-10.15,1.72-.79,4.15-1.68,4.55-1.83,5.2-2.04,9.25-4.6,11.29-10.11.62-1.69.5-3.22.13-4.69-.15-.58-.34-1.15-.49-1.72-.1-.37-.21-.74-.1-1.13,2.04-6.58,5.18-10.5,5.01-17.93-.05-2.24-.9-5-1.67-7.7-.56-1.97-1.15-3.89-.81-5.39.89-3.78,3.8-5.67,6.84-7.37,4.03-2.26,8.35-4.2,10.96-7.57.27-.35.53-.83.58-1.49.03-.41-.3-1.65-.38-1.86-2.34-5.82-6.97-15.08-11.67-19.1-.33-.28-.72-.48-1.13-.58-1.85-.45-4.2.09-6.6,1.16-2.41,1.08-4.93,2.78-6.81,3.05-4.45.63-11.33-.63-15.74-1.53-3.49-.72-5.29-3.05-7.27-5.09-1.82-1.89-3.74-3.63-6.36-4.63-1.96-.75-4.14-.13-6.32,1.03-.76.4-1.53.86-2.31,1.15-.38.15-.78.3-1.17.16-.02-.16-.05-.4-.04-.57,0-.68.12-1.46.27-2.28.42-2.26,1.14-4.83,1.49-7.03.3-1.94.3-3.67-.1-4.93-.62-1.96-2.2-4.47-4.15-7.21-2.53-3.56-5.71-7.62-7.45-11.42-.87-1.91-1.45-3.7-.93-5.25.29-.87.99-1.58,2.09-2.21,2.87-1.63,6.32-1.95,9.77-2.36,4.19-.51,8.37-1.12,11.95-3.24,2.68-1.59,4.68-4.25,6.83-6.72,1.55-1.78,3.17-3.49,5.69-3.92,4.2-.72,9.27,1.91,14.48,4.53,6.17,3.1,12.47,6.33,17.76,6.46,3.91.09,7.78-.55,11.65-1.09,3.45-.48,6.9-.88,10.36-.33,8.26,1.3,22.45,7.36,28.04,7.77,16.04,1.18,31.76-2.2,47.76-1.93,9.27.16,19.52,3.7,28.9,4.85,2.04.25,3.72,1.58,5.32,3.06,2.05,1.91,3.92,4.15,5.83,5.77,3.74,3.19,13.42,8.05,18.15,9.23,3.83.95,9.59,2.88,15.01,3.93,4,.78,7.83,1.05,10.74.35,2.69-.65,4.41-2.26,5.95-4.08,1.3-1.54,2.3-3.46,5.03-3.55,4.31-.15,6.64,1.33,8.73,3.39,1.73,1.71,3.33,3.73,5.43,5.69.5.47,1.29.9,2.27,1.16,1.2.33,2.81.44,3.58.56,1.84.29,3.61,1.03,5.37,1.71,2.18.84,4.36,1.62,6.58,1.83,3.49.34,14.39-2.41,21.51-3.59,1.44-.24,3.16-.35,3.98-.39Z"/>
</svg>