<?xml version="1.0" encoding="UTF-8"?>
<svg id="Layer_1" data-name="Layer 1" xmlns="http://www.w3.org/2000/svg" viewBox="0 0 259.12 326.86">
  <defs>
    <style>
      .cls-1 {
        fill: #c7ae9a;
        fill-rule: evenodd;
      }
    </style>
  </defs>
  <path class="cls-1" d="M109.08,279.22c.95-1.07,2.54-4.54,4.18-4.62,2.47-.12,3.64,3.48,5.83,3.98.75.17,1.81-1.68,2.35-2.11,1.52-1.22,3.65-1.22,5.35-.42,3.79,1.78,6.02,7.01,10.55,6.89,2.51-.07,4.23-2.48,6.81-2.42,3.77.09,6.61,2.84,10.56,2.1,1.92-.36,3.98-.91,5.63-1.98,1.22-.79,2.42-2.7,4.09-2.49,1.55.19,2.46,1.49,3.84,2.06,3.02,1.25,5.91-1.97,7.89,1.88.3.58.5,1.18.63,1.81.15.73.33,1.56.31,2.31-.05,2.32-2.57,4.04-3.95,5.6-2.05,2.34-3.69,5.7-3.41,8.91.29,3.34,3.24,5.74,3.72,9,.49,3.34-3.62,4.71-4.57,7.43-.53,1.49.03,3.87-.73,5.14-1.29,2.15-3.46,1.27-5.51,1.21-2.83-.07-5.98,1.29-8.5-.65-3.61-2.78-1.73-8.91-5.74-11.56-3.71-2.46-9.01-2.1-12.99-4.38-4.98-2.84-8.46-8.16-13.56-10.79-2.82-1.45-5.81-.35-8.7-1.13-4.2-1.14-4.45-12.19-4.1-15.78ZM16.41,91.45c5.39-11.18-12.07-6.24-13.52-18.49-.59-5,3.91-9.17,3.91-14.11,0-2.35-3.65-5.46-3.04-7.25,1.29-3.79,5.21-5.83,5.77-10.11.74-5.54-3.53-10.5-3.03-15.54.26-2.57,15.57-.23,17.7-.99,3.65-1.3,6.76-2.7,9.11-5.9.56-.76,4.45-6.22,5.48-5.75,3.47,1.61,8.98,9.42,10.4,12.99.35.91,1.18,6.81,2.27,7.01,4.89.92,10.07-13.76,10.28-13.77,5.28-.34,8.97,7.1,14.74,4.41,4.46-2.07,3.7-8.69,7.27-11.62,3.76-3.08,33.68-10.69,37.43-9.19,2.7,1.09,3.05,4.93,4.95,6.94,5.3,5.62,11.12,4.77,17.95,6.37.13.03,9.55,3.36,9.01,4.02-2.26,2.76-9.58,5.78-9.57,5.97.31,3.75,6.77,11.04,5.25,14.42-2.41,5.36-19.32,12.11-24.04,16.14-1.27,1.08,2.42,10.09,1.77,12.24-1.47,4.86-5.45,8.07-5.33,13.52.17,8.22,21.96,29.52,27.55,38.77,3.76,6.22,2.15,13.78,5.7,19.71,5.74,9.59,13.87,22.04,24.52,26.5,4.14,1.74,17.27-3.65,20.86.28,1.33,1.45-4.7,7.13-3.26,10.14.61,1.29,17.72,13.32,20.64,15.32,4.74,3.26,9.3,7.22,14.27,10.08,10.92,6.27,23.25,8.54,24.83,24,.23,2.3-3.35,6.49-4.98,7.94-.09.08-1.21-1.03-1.3-1.12-3-3.11-2.82-7.06-4.94-10.42-.07-.11-.12-.24-.21-.33-2.55-2.52-6.74-1.81-9.96-2.61-7.03-1.75-10.02-9.88-16.99-2.26-2.07,2.26-7.14,7.91-7.57,10.98-.98,7.05,13.34,12.06,11.05,20.34-3.45,12.52-15.49,20.49-23.7,29.78-1.69,1.92-5.33,10.74-9.55,8.51-8.83-4.69,1.51-12.51,3.77-16.25,2.52-4.18,5.64-11.99,6.9-16.62,2.84-10.51-6.89-27.1-14.39-34.22-2.97-2.82-9.96-.97-13.46-4.75-2.07-2.23.2-6.96-1.33-9.54-.07-.12-3.21.74-3.54.79-1.41.18-3.14-1.72-4-2.53-5.69-5.37-10.19-14.9-16.92-18.77-2.72-1.56-7.43-4.16-10.68-3.79-2.95.34-5.88,3.75-8.46,1.76-6.02-4.63-8.83-12.27-13.37-18.18-4.78-6.22-10.65-13.91-16.22-19.31-2.35-2.28-5.55-3.33-7.82-5.8-2.27-2.47-2.23-5.54-3.82-8.35-3.14-5.54-7.27-9.02-8.94-15.55-1.68-6.61-.11-13.82-3.22-20.06-4.79-9.61-18.82-17.27-27.82-22.24-14.58-8.04-16.39,23.82-28.37,16.5ZM20.44,217.07c.47-1.38,1.44-3.57,1.05-5.05-.32-1.21-1.31-2.45-1.37-3.7-.13-2.43,1.52-4.59,1.84-6.91.26-1.88-1.7-4.32-2.37-5.95-.37-.92-.17-1.88-.44-2.8-.39-1.3-1.77-1.9-2.4-3.03-1.07-1.94-1.02-4.49-.63-6.61.03-.21.62-2.89.87-2.89,1.06-.01,2.57,2.08,3.21,2.78,1.12,1.23,2.39,1.29,3.95.96,2.52-.54,6.61-2.25,8.61-3.73,3.76-2.76,7.39-7.71,12.85-5.35,3.7,1.59,2.46,5.99,3.76,9.01,1.56,3.61,4.48,8.57,3.24,12.76-.72,2.44-2.83,3.89-3.2,6.62-.45,3.31,1.08,6.11.02,9.5-1.12,3.6-3.65,6.37-4.53,10.13-.97,4.14,1.09,10.12-.94,13.9-1.28,2.39-5.82-1.22-8.28.19-3.91,2.24-6.23,6.7-11.19,6.98-5.23.3-5.97-3.76-7.56-7.59-1.55-3.74-2.92-5.07-1.97-9.42.51-2.35,4.44-7.68,5.48-9.79Z"/>
</svg>