<?xml version="1.0" encoding="UTF-8"?>
<svg id="Layer_1" data-name="Layer 1" xmlns="http://www.w3.org/2000/svg" viewBox="0 0 139.52 279.9">
  <defs>
    <style>
      .cls-1 {
        fill: #891a3d;
        fill-rule: evenodd;
      }
    </style>
  </defs>
  <path class="cls-1" d="M60.87,16.8c.09-1.77,2.84-12.37,2.21-12.82-6.36-4.51-25.47.08-28.05,8.32-2.41,7.7,1.06,15.6,2.38,23.13,1.97,11.21,3.33,41.02-3.39,50.88-2.95,4.33-6.5,7.04-7.3,12.53-.75,5.14,1.97,10.11-.18,15.14-3.54,8.31-7.21,17.77-11.9,25.45-2.72,4.46-7.68,7.31-10.46,11.73-2.02,3.22-3.55,23.71-1.99,27.02,2.79,5.92,12.54-6.2,14.57-4.82,6.55,4.42-8.25,17.58-7.26,21.08,1.06,3.71,14.23,1.16,14.45,1.98,5.26,19.62-1.49,40.34-4.55,59.44-1.12,7.02-7.2,19.17,4.45,20.08,6.22.49,10.35-5.6,16.7-5.57,7.76.03,13.1,6.26,20.16,7.31,5.33.79,19.47-13.48,21.26-18.45,2.66-7.34-6.37-14.08-2.42-21.09,3.12-5.54,20.48-13.36,20.81-17.52.48-5.87-11.43-12.45-10.6-22.29.82-9.74,15.34-15.2,14.25-24.9-.61-5.35-8.61-6.73-11.66-10.35-4.07-4.82-.41-12.26-2.2-17.74-.84-2.58-2.73-4.66-4.96-6.13-.48-.31-3.27-1.48-3.28-1.71-.03-.96,1.9-.31,2.85-.45,2.97-.42,5.97-.67,8.97-.85,5.94-.36,14.7-4.64,16.1-11.28,1.03-4.86-5.6-9.35-5.52-14.38.08-4.97,6.8-5.83,7.43-10.22,1.54-10.7-3.16-22.38-1.81-33.13,1.41-11.26,12.53-13.91,20.08-20.19,1.22-1.02,8.21-6.22,7.95-8.03-.73-5.06-7.03-8.34-10.27-11.47-3.26-3.15-3.16-9.17-6.61-12.71-3.81-3.89-14.85-5.68-19.86-3.29-3.96,1.89-6.38,6.07-11.25,6.49-4.69.41-8.33-3.06-12.76-3.65-5.82-.78-10.79,1.32-16.32,2.44Z"/>
</svg>