<?xml version="1.0" encoding="UTF-8"?>
<svg id="Layer_1" data-name="Layer 1" xmlns="http://www.w3.org/2000/svg" viewBox="0 0 154.67 328.6">
  <defs>
    <style>
      .cls-1 {
        fill: #3f0a25;
        fill-rule: evenodd;
      }
    </style>
  </defs>
  <path class="cls-1" d="M32.72,57.61c1.74-5.96,5.13-11.16,6.66-17.23,1.33-5.27-.27-11.37,2.18-16.26,2.32-4.62,7.02-7.4,9.71-11.84,1.44-2.37,1.74-6.05,3.9-7.86,5.21-4.38,13.24-.62,19.16-.27,4.96.29,9.5-1.7,14.6-.32,3.75,1.02,31.66,20.25,33.5,23.11,1.35,2.1-7.61,9.92-5.39,12.32,1.3,1.4,6.27.96,7.84,1.01,12.5.44,13.85-.48,21.77-9.29.54-.59,6.3,2.87,6.22,3.67-1.81,18.37-26.56,24.74-33.33,41.21-6.53,15.9,12.14,47.88,7.53,58.13-7.1,15.77-28.26,7.09-39.21,17.8-4.05,3.97,1.23,11.3-2.91,15.53-4.01,4.1-14.86.22-17.13,6.88-.9,2.64,6.5,5.42,5.25,8.92-1.75,4.92-6.62,8.32-8.69,13.29-1.59,3.81-.85,7.37-3.56,10.7-3.06,3.76-9.12,5.94-11.18,10.49-.94,2.07,13.88,15.74,13.8,15.99-3.76,11.5-29.22,35.79-24.67,47.67,1.54,4.03,6.06,6.32,7.44,10.64,2.35,7.39.2,17.16,5.45,23.36,3.09,3.66,7.72,5.5,12.12,7.05,1.65.58,5.94.08,5.02,1.56-2.07,3.32-28.61,2.23-29.54,1.26-4.97-5.28-1.26-24.46-5.04-31.88-3.59-7.05-11.13-3.93-17.08-7.21-2.04-1.13-14.82-22.79-15.23-25.5-1.02-6.82,8.3-10.11,10.98-15.49,4.71-9.42,4.72-24.7,6.43-35.2,1.32-8.11-5.03-16.96-5.1-25.27-.11-13.66,5.46-25.75,7.72-38.61,1.1-6.24-2.76-12.51-2-18.75,1.18-9.69,12.73-17.84,13.69-27.44,1.42-14.11-6.67-27.8-.91-42.19Z"/>
</svg>