<?xml version="1.0" encoding="UTF-8"?>
<svg id="Layer_1" data-name="Layer 1" xmlns="http://www.w3.org/2000/svg" viewBox="0 0 323.01 328.6">
  <defs>
    <style>
      .cls-1 {
        fill: #891a3d;
        fill-rule: evenodd;
      }
    </style>
  </defs>
  <path class="cls-1" d="M67.21,141.58c-10.71-6.42-8.71-14.84-16.5-19.87-2.39-1.54-24.38-11.44-26.85-12.02-3.33-.78-10.4.39-13.04-1.85-1.47-1.24.49-8.69-.09-10.75-1.18-4.18-6.67-6.46-7.21-10.58-.28-2.15,4.49-3.35,5.88-3.66,4.22-.97,9.43.14,13.42-1.21,3.2-1.08,5.37-4.71,8.84-5.12,9.09-1.07,13.75,9.34,19.78,13.89,2.96,2.23,29.42.4,32.2-1.84,4.16-3.35,3.81-22.45,1.39-26.52-2.5-4.22-7.33-7.35-8.57-12.31-.09-.37-.44-.93-.12-1.15,14.05-9.66,23.57,18.69,41.2,11.37,6.56-2.72,8.2-10.3,14.24-13.79,8.53-4.93,22.29-4.51,28.55-12.77,2.18-2.87-.95-9.28-.44-12.75,1.16-7.79,11.44-15.4,18.2-17.43,7-2.1,18.35-.59,23.75,4.86,3.23,3.26,1.88,8.79,5.7,12.05,4.4,3.75,10.78,5.13,15.27,8.64,3,2.35,3.21,6.37,6.09,8.94,3.75,3.35,9.11,3.14,13.08,5.89,4.42,3.06,6.73,8.27,11.35,11.02,8.27,4.92,17.64,2.37,26.34,5.11,8.11,2.55,12.38,9.2,21.51,10.54,3.59.53,19.01,1.03,19.29,2.04,1.46,5.37-3.53,15.05-4.59,20.59-1.9,9.89.88,21.07-4.84,29.83-2.65,4.05-10.31,3.79-13.44,8.85-2.25,3.64-.83,8.59-3.64,11.94-4.71,5.61-5.56,11.85-9.17,16.58-3.03,3.97-14.83,10-11.92,17.06.86,2.07,8.79-4.28,11.24-5.28,5.9-2.4,11.57-.03,15.44,4.55,6.45,7.64-3.68,11.71-4.66,18.88-.94,6.91,5.8,10.68,6.43,16.84.31,2.99-4.84,5.3-3.86,9.03,1.41,5.33,5.55,9.31,6.27,14.99.6,4.68-2.59,11.14.39,15.2,3.29,4.48,17.19,6.21,15.01,10.79-2.8,5.9-8.29,10.1-13.08,14.28-7.59,6.62-13.01,17.02-23.86,18.82-6.15,1.02-18.56-1.02-22.65-6.35-1.4-1.83.36-5.75-1.38-7.12-1.2-.94-11.15,2.61-13.39,2.82-5.2.48-8.75-4.56-13.86-2.57-8.89,3.46-28.62,8.59-33.76,15.77-7.5,10.48,10.4,18.5-4.31,24.87-11.45,4.96-12.88-.26-22.4-4.37-4.13-1.78-9.04-1.07-13.08-2.93-5.6-2.57-9.33-7.56-15.52-9.45-10.96-3.35-12.51,8.18-23.31,9.26-10.03,1-9.3-6.82-17.11-9.56-16.2-5.69-25.85,2.6-30.9-19.9-1.91-8.49,12.39-21.2,15.55-28.32,5.23-11.8-1.3-25.73.66-38.02.9-5.65,6.9-10.66,6.07-16.46-1.2-8.38-.92-20.88-6.16-27.9-8.46-11.34-24.85-15.25-19.44-33.47Z"/>
</svg>