<?xml version="1.0" encoding="UTF-8"?>
<svg id="Layer_1" data-name="Layer 1" xmlns="http://www.w3.org/2000/svg" viewBox="0 0 326.76 330.26">
  <defs>
    <style>
      .cls-1 {
        fill: #c7ae9a;
        fill-rule: evenodd;
      }
    </style>
  </defs>
  <path class="cls-1" d="M32.28,80.29c0-7.9,4.56-14.48,4.85-22.23.25-6.33-6.14-9.47-6.73-15.13-.27-2.55,4.12-5.5,5.02-7.96.96-2.63-.42-6.3,3.06-7.13,20.52-4.9,21.35,15.47,39.3,4.56,9.11-5.55-2.91-12.37-.41-18.77,2.16-5.55,11.99-1.48,16.31-2.85,5.13-1.63,11.29-10.6,17.1-8.92,12.83,3.71-1.07,26.98,13.45,30.57,7.47,1.85,19.6-8.13,26.4-9,7.28-.92,11.93,5.06,20,1.85,4.74-1.88,6.47-14.43,11.8-12.69,8.41,2.75,8.68,12.39,12.42,18.93,3.28,5.74,11.65,11.68,17.2,15.22,7.25,4.62,16.85,2.47,24.08,6.89,3.31,2.03,4.61,10.12,7.85,10.79,12.39,2.55,27.51-.77,39.45,4.87,7.85,3.71,10.71,11.42,17.3,16.05,9.44,6.63,25.28,3.95,24.36,20.03-.76,13.29-11.2,17.3-18.26,26.45-2.95,3.83-3.04,9.1-5.95,12.73-2.66,3.33-6.39,4.67-8.29,8.85-4.12,9.08.08,20.54-1.02,30.12-.67,5.87-5.31,10.5-7.39,15.88-5.39,14.01-7.85,26.25-19.2,37.33-4.43,4.33-14.11.31-19.59,1.69-4.57,1.16-27.59,17.7-30.33,21.78-6.05,9.01-2.46,18.99-6.37,27.93-1.51,3.46-19.77,22.06-23.74,26.17-5.08,5.27-9.34,19.33-19.72,12.42-4.19-2.78-4.99-8.75-9.09-11.78-5.37-3.96-13.37-4.15-18.05-8.52-3.07-2.88,2.47-9.53,4.07-11.4,2.78-3.24,5.21-7.36,8.59-10.03,4.3-3.38,16.66-6.05,15.99-12.78-.47-4.69-4.49-7.14-5.75-11.35-1.05-3.48,0-7.26-.17-10.81-.26-4.88-9.61-12.32-13.35-15.35-4.9-3.96-15.12-3.56-17.91-9.56-2.07-4.43,1.79-12.04,2.21-16.73.99-10.99.1-20.1-6.21-29.66-2.5-3.8-8.59-3.14-11.63-6.44-6.7-7.28-3.2-16.43-13.99-20.88-7.91-3.28-19.29.31-26.34-4.94-6.63-4.94-2.44-20.66-8.61-21.44-3.82-.48-9.12,3.47-12.66,4.68-7.23,2.47-18.56,4.53-26.2,3.87-1.57-.14-1.21-8.16-3.34-9.41-8.29-4.81-15.66-3.26-20.57-13.76-1.86-3.99,1.44-7.15,2.52-10.71,5.72-18.66,8.78-19.86,27.54-19.46Z"/>
</svg>