<?xml version="1.0" encoding="UTF-8"?>
<svg id="Layer_1" data-name="Layer 1" xmlns="http://www.w3.org/2000/svg" viewBox="0 0 379.28 249.66">
  <defs>
    <style>
      .cls-1 {
        fill: #5b0718;
        fill-rule: evenodd;
      }
    </style>
  </defs>
  <path class="cls-1" d="M30.27,6.5c2.95,0,7.66.92,9.01,4.09.71,1.68.45,6.28,2.36,7.34.51.29,3.11-3.58,3.35-3.96,1.58-2.5-.35-12.05,2.89-11.62,10.38,1.37,21.58,7.61,31.37,11.25,14.82,5.51,33.33,10.4,48.74,14.05,9.3,2.2,18.92,2.71,28.23,4.87,8.19,1.9,15.8,5.31,24.18,6.52,5.42.79,10.99.87,16.41.02,1.71-.26,3.19-1.8,5-1.57,3.12.39,3.84,3.89,6.06,5.39,4.78,3.22,19.59,3.99,25.35,6.31,3.89,1.58,6.89,4.85,10.9,6.42,8.54,3.35,17.2,4.5,24.62,10.83,3.35,2.86,2.97,3.78,1.82,7.92-1.11,4-1.2,5.23-1.1,5.21,2.42-.32,5.85-2.27,8.09-.69,3.94,2.78,4.29,8.77,4.02,13.09-.1,1.4-1.24,5.14.47,5.54,12.68,2.95,18.47-8.46,26.27-13.69,4.29-2.88,9.47-3.64,12.95-7.71,3.27-3.83,4.35-8.95,8.44-12.05,6.31-4.76,14.58-4.85,20.96-9.25,6.99-4.82,4.99-25.22,15.7-15.84,2.11,1.84,3.79,4.32,5.2,6.71,1.57,2.64,4.93,6.12,5.36,9.17,1.49,10.52-19.09,12.61-19.64,23.8-.16,3.34,8.09,7.05,7.35,9.84-.56,2.08-5.11,3.5-6.84,4.74-6.59,4.72-16.51,7.47-18.69,16.25-1.37,5.53-.9,11.26-2.31,16.82-1.45,5.7-4.66,11.27-4.98,17.21-.27,5.26,4.95,10.54,1.66,15.61-3.96,6.09-13.81,9.52-19.82,13.13-4.12,2.47-7.49,7.15-10.15,11.04-10.34,15.06.35,27.92,6.08,42.57,2.51,6.44,8.06,16.62-.48,21.06-4.31,2.24-8.27-3.34-10.48-6.44-2.34-3.29-8.61-12.88-9.68-16.28-1.72-5.45-.5-9.95-3.92-15.01-4.82-7.12-12.06-3.38-19.31-3.31-4.76.05-9.4-1.56-14.15-1.45-3.72.09-9.06-.26-12.01,2.46-2.02,1.86,5.79,11.41-3.39,12.37-8.11.84-29.42-14.14-39.17-8.06-5.55,3.46-19.29,14.93-22.09,20.82-1.99,4.17,6.2,13.37-.95,13.65-4.21.17-7.2-2.93-10.14-5.46-4.09-3.52-8-5.24-10.09-10.6-3.68-9.46-2.22-20.58-12.83-25.76-4.87-2.38-10.33,9.15-12.3,8.45-8.45-3.02-9.75-12.41-13.18-19.25-2.48-4.94-7.94-8.82-12.84-11.04-9.45-4.28-14.66,5.78-24.47,3.72-11.81-2.47-25.63-12.34-36.64-18.52-3.1-1.74-9.35-1.96-11.77-4.04-1.01-.87-.63-5.97-.85-7.39-.49-3.19-2.88-5.97-4.98-8.26-4.49-4.88-13.57-8.96-15.69-15.57-3.26-10.11-2.9-24.86-3.73-35.48-.49-6.3-2.94-12.42-2.05-18.78.68-4.91,4.5-8.58,6.39-12.98,2.31-5.38,2.46-11.28,4.62-16.7,4.69-11.78,17.45-27.96,16.85-41.51Z"/>
</svg>