<?xml version="1.0" encoding="UTF-8"?>
<svg id="Layer_1" data-name="Layer 1" xmlns="http://www.w3.org/2000/svg" viewBox="0 0 101.43 555.06">
  <defs>
    <style>
      .cls-1 {
        fill: #5b0718;
        fill-rule: evenodd;
      }
    </style>
  </defs>
  <path class="cls-1" d="M35.12,332.56c-2.16,13.55,9.13,21.17,10.45,33.43.77,7.14-3.19,13.03-4.85,19.72-1.93,7.73-1.46,15.67-2.64,23.48-1.95,13.02-11.15,24.92-16.68,36.63-2.09,4.42-5.52,11.56-2.78,16.32,1.03,1.8,3.35,3.75,5.32,4.36.9.28,3.39,0,3.92.69,2.01,2.57,1.66,5.53,2.8,8.35,1.5,3.72,5.57,6.83,9.09,8.48,5.99,2.81,12.58,1.8,18.53,4.08,2.66,1.01,8.45,7.18,10.37,9.57,2.58,3.2,1.76,9.74,1.85,13.57.17,7.88.73,16.96,3.85,24.32,1.93,4.57,7.08,6.44,11.55,7.5,1.2.29,4.6.33,5.54,1.4,1.21,1.36,2.29,4.9.73,6.44-5.02,4.93-12.01-2.81-16.89-4.76-14.15-5.64-31.37-2.41-36.86-20.6-2.29-7.57.65-17.08-2.79-24.03-3.21-6.49-10.67-7.86-14.76-13.29-1.32-1.75-1.26-4.43-2.18-6.42-4.21-9.14-5.07-16.68-6.71-26.45-.79-4.75-3.97-8.7-4.31-13.64-.6-8.77,6.4-16.87,7.39-25.6.87-7.67-3.39-16.76-1.26-24.02,1.63-5.54,7.76-9.6,8.81-14.87,2.85-14.36-1.54-33.24,12.51-44.68ZM8.12,321.55c-.92,2.19-2.08,4.28-2.21,6.71-.15,2.82-1.63,11.98-1.78,14.79-.16,2.95-2.49,6.75.95,8.58.53.28,1.22.59,1.84.73,3.2.71,6.23-3.43,7.19-5.89,1.35-3.47,6.47-14.33,5.01-18.16-.92-2.41-9.46-4.75-11-6.75ZM60.96,2.54c-12.85,17.24-8.25,81.27-9.24,105.27-.48,11.52-10.52,21.15-13.03,32.39-3.71,16.56,5.35,34.71,2.51,51.49-3.3,19.49-15.81,36.22-18.69,55.84-1.55,10.58-13.92,71.85,6.05,71.94,9.05.04,7.97-16.06,8.97-20.63,2.13-9.77,10.72-16.86,12.46-26.67,1.83-10.33-4.57-19.84-.67-30.08,4.24-11.11,13.54-18.12,15.41-30.64,1.9-12.67-4.05-24.13-4.39-36.53-.29-10.51,3.58-31.57,6.07-42.02.6-2.52,12.48-39.41,12.74-39.95,6.04-12.05,17.37-22.21,19.07-36.34.08-.71-9.01.59-10.64.54-3.64-.11-5.66-4.89-7.13-7.76-8.12-15.93-7.53-31.9-19.5-46.83Z"/>
</svg>