<?xml version="1.0" encoding="UTF-8"?>
<svg id="Layer_1" data-name="Layer 1" xmlns="http://www.w3.org/2000/svg" viewBox="0 0 533.86 529.33">
  <defs>
    <style>
      .cls-1 {
        fill: #3f0a25;
      }

      .cls-2 {
        fill: #c7ae9a;
      }

      .cls-3 {
        fill: #841a36;
      }
    </style>
  </defs>
  <path class="cls-1" d="M379.07,469.19c-21.07,43.02-63.74,59.83-110.93,60.14-47.29.32-91.22-15.6-112.62-59.98l-90.87-.16-.02-91.15C21.6,357.07.12,313.47,0,266.12c-.12-47.25,20.71-91.37,64.54-112.77l.18-91.28h90.64C176.36,18.59,219.87-.05,267.17,0c47.5.05,90.8,18.59,111.7,62.06l90.53.04.07,91.15c43.33,21,64.22,64.57,64.38,111.91.17,47.66-20.74,91.83-64.41,112.95l-.02,91.11-90.36-.03Z"/>
  <path class="cls-3" d="M451.57,163.54l-.06-82.53-82.42-.04c-18.38-37.13-56.41-59.29-101.94-59.34h-.16c-45.4,0-83.4,22.15-101.89,59.35h-82.52s-.16,82.65-.16,82.65c-37.73,18.73-60.15,56.92-60.03,102.35.12,45.08,22.57,82.98,60.11,101.58v82.53s82.74.15,82.74.15c18.21,36.71,55.2,57.67,101.75,57.67.34,0,.69,0,1.04,0,46.03-.31,82.87-21.36,101.22-57.81l82.27.03.02-82.49c37.69-18.55,60.07-56.8,59.91-102.52-.16-45.26-22.52-83.15-59.89-101.58ZM167.05,84.09l.43-.88c17.79-36.62,54.98-58.47,99.51-58.47h.16c44.67.05,81.9,21.91,99.57,58.46l.43.88,79.05.03-17.86,17.88-70.83-.03c-17.1-34.54-51.63-55.97-90.36-56.02h-.12c-38.61,0-73.13,21.43-90.33,56.02h-70.92s-17.88-17.88-17.88-17.88h79.15ZM428.33,353.66l-.88.42v71.93s-71.73-.02-71.73-.02l-.43.87c-16.64,33.8-50.12,54.96-87.38,55.2-38.15.28-72.12-20.85-88.71-55.07l-.43-.88-72.14-.13v-71.96s-.89-.43-.89-.43c-33.9-16.42-55.02-50.02-55.12-87.67-.1-37.95,20.99-71.8,55.05-88.34l.88-.43.14-72.06h71.95s.43-.89.43-.89c16.53-34.02,50.22-55.14,87.95-55.14h.12c37.85.04,71.56,21.17,87.98,55.14l.43.88,71.58.03.29.29.06,71.68.88.43c33.95,16.36,55.12,49.96,55.25,87.67.13,37.54-21.56,72.27-55.27,88.48ZM25.51,265.98c-.11-44.56,22-81.93,59.15-99.97l.88-.43.15-79.28,17.88,17.89-.14,71.03c-34.62,17.22-56.03,51.89-55.93,90.72.1,38.53,21.53,72.93,56,90.03v70.93s-17.87,17.88-17.87,17.88v-79.16s-.89-.43-.89-.43c-36.98-17.91-59.12-55-59.24-99.21ZM367.33,446.98l-.43.87c-17.67,35.88-53.71,56.63-98.88,56.94-46.07.3-82.74-20.39-100.39-56.79l-.43-.88-79.36-.14,17.89-17.88,71.1.13c17.17,34.59,51.67,55.95,90.4,55.95.23,0,.47,0,.7,0,38.12-.25,72.41-21.71,89.72-56.07l70.7.03,17.86,17.88-78.89-.03ZM449.32,365.26l-.88.42v79.12s-17.88-17.88-17.88-17.88v-70.89c34.29-16.91,56.3-52.46,56.17-90.87-.13-38.59-21.62-72.99-56.14-90.03l-.05-70.92,17.86-17.89.06,79.16.88.43c36.79,17.74,58.85,54.82,59.01,99.21.16,44.85-21.91,82.28-59.03,100.13Z"/>
  <g>
    <path class="cls-2" d="M179.56,347.25l10.54.07v18.83c-9.28-.08-17.56-3.64-23.37-10.06-5.74-6.34-8.42-14.78-7.53-23.77.77-7.84,4.33-14.99,10.02-20.14,5.71-5.17,13.24-8.02,21.21-8.04h.3s.09-7.05.09-7.05h-.3c-.07,0-.14,0-.21,0-9.22,0-18.09,3.24-25,9.13-6.97,5.95-11.56,14.27-12.91,23.44-1.59,10.77,1.09,21.18,7.57,29.31,6.51,8.18,16.13,13.16,27.09,14.03,1.67.13,3.25.17,4.91.17.97,0,1.96-.01,3-.03.54,0,1.09-.01,1.65-.02h.3s.01-31.29.01-31.29h-17.34s-.02,5.41-.02,5.41Z"/>
    <path class="cls-2" d="M228.84,299.64c-5.43-4.42-13.02-4.56-18.47-.36-2.32,1.79-3.71,4.34-3.74,6.82l-.33,32.78v34.29h7.21l.24-46.13,11.19.03.28,46.06,7.35-.03-.25-65.72c-.01-3.32-1.15-5.85-3.47-7.74ZM224.97,321.59h-11.16s.26-15.15.26-15.15c.03-1.1.39-1.98,1.07-2.64.89-.85,2.31-1.3,4.1-1.3.09,0,.19,0,.28,0,2.44.06,5.35.87,5.37,4.37l.08,14.72Z"/>
    <path class="cls-2" d="M287.43,298.34h-4.24v59.63h4.24c8.46,0,15.54-2.98,20.46-8.61,4.68-5.35,7.16-12.7,7.16-21.26s-2.48-15.89-7.16-21.21c-4.92-5.59-12-8.55-20.46-8.55ZM289.98,351.28v-46.26c5.24.19,9.74,2.43,13.02,6.51,3.37,4.18,5.15,9.91,5.15,16.56s-1.78,12.46-5.15,16.66c-3.28,4.09-7.77,6.34-13.02,6.52Z"/>
    <polygon class="cls-2" points="344.79 304.29 344.79 298.34 323.5 298.34 323.5 351.89 344.79 351.89 344.79 345.94 330.29 345.94 330.29 321.23 340.07 321.23 340.07 315.38 330.29 315.38 330.29 304.29 344.79 304.29"/>
    <polygon class="cls-2" points="377.86 313.09 356.67 297.28 355.53 297.28 355.53 372.66 362.46 372.66 362.46 309.77 377.86 321.32 377.86 372.66 384.79 372.66 384.79 298.33 377.86 298.33 377.86 313.09"/>
    <path class="cls-2" d="M304.87,366.56c-.44.17-.89.35-1.34.53-7.86,3.1-16.77,6.61-28.77,1.11-7.49-3.43-11.27-12.68-12.59-16.64,6.69-4.54,11.15-11.56,12.43-19.75.83-5.32.29-10.73-1.54-15.66-1.86-5-5.03-9.4-9.16-12.72-5.92-4.77-13.48-7.12-21.86-6.8h-.29s0,76.53,0,76.53l7.51.04.02-16.32c.54-.08.86-.17,1.28-.29.22-.06.46-.13.79-.21.31-.08.61-.17.91-.29l3.89-1.52c1.87,5.27,6.54,15.43,15.84,19.69,5.13,2.35,10.16,3.51,15.27,3.51,1.36,0,2.72-.08,4.1-.25,5.58-.67,10.39-2.56,14.62-4.23.44-.18.88-.35,1.32-.52,17.86-6.97,25.37-4.12,35.62,1.39l3.16-5.87c-5.2-2.8-10.41-5.37-17.01-6.09-6.94-.76-14.62.63-24.18,4.36ZM267.43,326.24c.37,11.36-7.08,20.75-18.16,22.97v-44.85c10.53,2.33,17.81,11.08,18.16,21.88Z"/>
    <path class="cls-2" d="M157.55,279.76c15.79,0,26.95-6.79,32.41-19.67,5.46,12.88,16.63,19.67,32.41,19.67h2.13l7.41-129.6h-8.74l-6.96,120.99c-7.36-.74-12.97-4.18-16.68-10.22-3.45-5.63-5.21-13.33-5.21-22.89v-87.88h-8.74v87.88c0,9.56-1.75,17.26-5.21,22.89-3.71,6.04-9.32,9.48-16.68,10.22l-6.96-120.99h-8.74l7.41,129.6h2.13Z"/>
    <rect class="cls-2" x="251.21" y="150.16" width="8.74" height="129.6"/>
    <polygon class="cls-2" points="290.49 163.99 318.38 184.73 318.38 279.76 327.12 279.76 327.12 150.16 318.38 150.16 318.38 174.18 283.61 148.33 281.75 148.33 281.75 279.76 290.49 279.76 290.49 163.99"/>
    <polygon class="cls-2" points="386.23 158.9 386.23 150.16 349.11 150.16 349.11 279.76 386.23 279.76 386.23 271.02 357.84 271.02 357.84 199.19 379.44 199.19 379.44 190.45 357.84 190.45 357.84 158.9 386.23 158.9"/>
  </g>
</svg>