<?xml version="1.0" encoding="UTF-8"?>
<svg id="Layer_1" data-name="Layer 1" xmlns="http://www.w3.org/2000/svg" xmlns:xlink="http://www.w3.org/1999/xlink" viewBox="0 0 307.19 498.64">
  <defs>
    <style>
      .cls-1 {
        fill: #c7ae9a;
      }

      .cls-2 {
        fill: #414417;
        filter: url(#drop-shadow-6);
      }

      .cls-3 {
        fill: #f7f9ea;
      }
    </style>
    <filter id="drop-shadow-6" x="0" y="0" width="307.19" height="498.64" filterUnits="userSpaceOnUse">
      <feOffset dx="4.4" dy="8.8"/>
      <feGaussianBlur result="blur" stdDeviation="8.8"/>
      <feFlood flood-color="#000" flood-opacity=".3"/>
      <feComposite in2="blur" operator="in"/>
      <feComposite in="SourceGraphic"/>
    </filter>
  </defs>
  <path class="cls-2" d="M16.66,498.64h26.53c0-9.33,7.57-16.91,16.9-16.91s16.9,7.57,16.9,16.91h15.62c0-9.33,7.56-16.91,16.9-16.91s16.9,7.57,16.9,16.91h15.62c0-9.33,7.57-16.91,16.9-16.91s16.9,7.57,16.9,16.91h15.62c0-9.33,7.57-16.91,16.9-16.91s16.9,7.57,16.9,16.91h15.62c0-9.33,7.57-16.91,16.9-16.91s16.9,7.57,16.9,16.91h15.85c1.31-8.04,8.26-14.18,16.67-14.18v-16.81c-9.34,0-16.9-7.57-16.9-16.9s7.57-16.9,16.9-16.9v-16.8c-9.34,0-16.9-7.57-16.9-16.91s7.57-16.89,16.9-16.89v-16.81c-9.34,0-16.9-7.57-16.9-16.9s7.57-16.9,16.9-16.9v-16.81c-9.34,0-16.9-7.57-16.9-16.91s7.57-16.9,16.9-16.9v-15.62c-9.33,0-16.9-7.57-16.9-16.9s7.57-16.9,16.9-16.9v-15.62c-9.33,0-16.9-7.56-16.9-16.9s7.57-16.9,16.9-16.9v-15.62c-9.33,0-16.9-7.57-16.9-16.9s7.57-16.9,16.9-16.9v-15.62c-9.33,0-16.9-7.57-16.9-16.9s7.57-16.9,16.9-16.9v-15.62c-9.33,0-16.9-7.57-16.9-16.9s7.57-16.9,16.9-16.9v-15.62c-9.33,0-16.9-7.57-16.9-16.9C290.29,1.59,290.37.79,290.48,0h-16c.11.79.19,1.59.19,2.4,0,9.33-7.57,16.9-16.9,16.9s-16.9-7.57-16.9-16.9C240.87,1.59,240.95.79,241.07,0h-16c.11.79.19,1.59.19,2.4,0,9.33-7.57,16.9-16.9,16.9s-16.9-7.57-16.9-16.9C191.45,1.59,191.53.79,191.64,0h-16c.11.79.19,1.59.19,2.4,0,9.33-7.57,16.9-16.9,16.9s-16.9-7.57-16.9-16.9C142.03,1.59,142.11.79,142.22,0h-16c.11.79.19,1.59.19,2.4,0,9.33-7.56,16.9-16.9,16.9s-16.9-7.57-16.9-16.9C92.61,1.59,92.69.79,92.8,0h-16c.12.79.19,1.59.19,2.4,0,9.33-7.57,16.9-16.9,16.9s-16.9-7.57-16.9-16.9C43.19,1.59,43.27.79,43.38,0h-26.66c.11.79.18,1.59.18,2.4C16.9,11.74,9.33,19.3,0,19.3v15.62c9.33,0,16.9,7.57,16.9,16.9S9.33,68.73,0,68.73v15.62c9.33,0,16.9,7.56,16.9,16.9S9.33,118.15,0,118.15v15.62c9.33,0,16.9,7.57,16.9,16.9S9.33,167.57,0,167.57v15.62c9.33,0,16.9,7.57,16.9,16.9S9.33,216.98,0,216.98v15.62c9.33,0,16.9,7.57,16.9,16.9S9.33,266.41,0,266.41v15.62c9.33,0,16.9,7.57,16.9,16.9S9.33,315.83,0,315.83v16.81c9.33,0,16.9,7.57,16.9,16.9S9.33,366.44,0,366.44v16.81c9.33,0,16.9,7.57,16.9,16.89S9.33,417.05,0,417.05v16.8c9.33,0,16.9,7.57,16.9,16.9S9.33,467.65,0,467.65v16.81c8.4,0,15.36,6.14,16.66,14.18Z"/>
  <path class="cls-1" d="M275.23,459.79H31.96V38.85h243.27v420.93ZM34.16,457.59h238.87V41.06H34.16v416.53Z"/>
  <path class="cls-1" d="M177.07,366.73c-.99,0-2.03-.19-2.98-.92-1.48-1.14-1.85-2.86-2.18-4.37-.3-1.4-.57-2.61-1.57-3.27-1.11-.74-2.55-1.05-4.06-1.39-1.52-.33-3.1-.68-4.51-1.49-1.71-.97-3.14-2.33-4.53-3.64-1.45-1.38-2.83-2.67-4.45-3.51-.84-.43-1.75-.43-2.8-.42-.89,0-1.8.01-2.76-.25-4.37-1.18-3.54-11.56-3.53-11.66.02-.23.12-.45.27-.62.16-.17.34-.47.54-.79.74-1.15,1.66-2.58,3.01-2.65,1.41-.08,2.32.92,3.04,1.71.29.31.58.63.84.82.11-.13.24-.28.32-.39.21-.26.39-.49.6-.66,1.26-1,3.11-1.17,4.71-.41,1.17.55,2.09,1.46,2.97,2.34,1.18,1.17,2.23,2.19,3.54,2.14.54-.01,1.06-.31,1.67-.66.81-.46,1.73-.98,2.91-.95,1.28.03,2.35.43,3.39.81,1.19.44,2.22.82,3.4.6.94-.18,2.32-.49,3.35-1.16.2-.13.39-.32.6-.51.67-.62,1.57-1.47,2.86-1.32.9.11,1.54.58,2.06.96.27.2.53.39.78.49.5.21,1.05.11,1.69,0,1.17-.2,2.94-.51,4.11,1.76.24.47.42.97.52,1.49l.03.16c.1.49.21,1.05.2,1.61-.04,1.62-1.23,2.78-2.2,3.72-.25.25-.5.48-.7.72-1.07,1.22-2.16,3.2-2,5.1.08.9.58,1.75,1.11,2.66.58.99,1.17,2.01,1.36,3.26.28,1.88-.93,3.05-1.9,3.98-.53.51-1.02.99-1.2,1.48-.1.28-.11.77-.12,1.24-.02.78-.03,1.67-.46,2.38-1.03,1.72-2.72,1.53-3.83,1.41-.27-.03-.54-.06-.8-.07-.48,0-1.01.05-1.58.12-.54.07-1.13.14-1.74.14ZM150.37,345.52c1.07,0,2.26.06,3.43.66,1.9.98,3.45,2.45,4.95,3.87,1.35,1.28,2.63,2.48,4.1,3.33,1.13.64,2.47.94,3.89,1.25,1.65.36,3.35.74,4.81,1.7,1.75,1.15,2.15,3,2.5,4.63.29,1.31.53,2.44,1.38,3.1.81.63,1.88.49,3.11.34.62-.08,1.25-.16,1.9-.14.33,0,.66.04.99.08,1.18.13,1.44.08,1.7-.35.13-.21.14-.84.15-1.29.01-.64.03-1.31.24-1.92.34-.98,1.08-1.7,1.74-2.33.87-.84,1.36-1.36,1.25-2.08-.12-.83-.59-1.63-1.08-2.47-.6-1.02-1.28-2.18-1.4-3.58-.19-2.2.76-4.72,2.54-6.74.24-.27.53-.55.83-.84.71-.69,1.51-1.46,1.53-2.18,0-.32-.08-.74-.16-1.14l-.03-.16c-.06-.32-.17-.62-.32-.91-.43-.83-.69-.79-1.78-.6-.81.14-1.82.31-2.91-.14-.49-.2-.88-.49-1.23-.74-.43-.32-.72-.51-1.03-.55-.26-.03-.72.4-1.09.74-.28.26-.57.53-.9.75-1.36.88-3.02,1.27-4.14,1.48-1.79.34-3.26-.22-4.57-.7-.91-.34-1.77-.66-2.68-.68-.53-.02-1.13.3-1.77.67-.76.43-1.61.92-2.7.95-2.35.05-3.81-1.45-5.15-2.78-.79-.78-1.53-1.52-2.36-1.91-.85-.4-1.8-.34-2.41.14-.06.06-.15.18-.26.31-.52.65-1.22,1.54-2.24,1.3-.99-.23-1.67-.97-2.27-1.62-.56-.62-.98-1.02-1.32-1-.28.12-.97,1.18-1.26,1.64-.18.28-.35.54-.51.75-.26,3.39.41,8.59,1.94,9,.67.18,1.4.18,2.18.17.13,0,.26,0,.39,0ZM198.29,343.37c-.47,0-.95-.12-1.46-.39-1.64-.87-2.6-2-2.85-3.36-.48-2.6,1.72-5.14,3.49-7.19.6-.69,1.16-1.34,1.44-1.8,1.66-2.75,3.68-7.88,4.47-10.77,1.72-6.35-4.24-16.9-9.26-21.67-.65-.62-1.96-.8-3.34-.99-1.94-.27-4.14-.57-5.66-2.22-1.06-1.14-.95-2.74-.85-4.15.04-.59.08-1.19.03-1.68-.2.05-.4.1-.59.15-.43.11-.78.19-.87.2-1.36.18-2.55-.99-3.34-1.76l-.22-.21c-1.58-1.49-3.03-3.44-4.43-5.33-2.03-2.73-4.13-5.56-6.62-7-1.23-.71-4.5-2.6-6.43-2.38-.54.06-1.15.37-1.8.7-1.26.63-2.99,1.5-4.62.25-2.74-2.11-4.52-5.06-6.23-7.9-.94-1.56-1.83-3.04-2.86-4.38l-.18-.23c-3.08-4.02-6.92-9.02-10.5-12.49-.65-.63-1.43-1.12-2.26-1.63-1.02-.63-2.08-1.29-2.98-2.27-1.06-1.16-1.46-2.42-1.85-3.64-.24-.75-.46-1.46-.84-2.11-.69-1.23-1.49-2.32-2.25-3.38-1.49-2.06-3.02-4.19-3.8-7.23-.49-1.91-.59-3.86-.68-5.75-.13-2.64-.26-5.13-1.38-7.37-3-6.02-11.95-10.95-17.87-14.21l-.18-.1c-3.86-2.13-5.95.63-8.93,5.43-2.33,3.75-5.23,8.41-9.98,5.52-.48-.29-.66-.91-.42-1.42.53-1.1.7-1.95.49-2.51-.31-.84-1.57-1.38-3.02-2.01-2.54-1.1-6.02-2.62-6.56-7.16-.24-2.07.58-3.85,1.37-5.57.63-1.36,1.22-2.64,1.22-3.94,0-.42-.51-1.22-.92-1.85-.7-1.08-1.42-2.2-1.04-3.33.44-1.29,1.23-2.26,1.99-3.2.87-1.08,1.63-2.02,1.8-3.31.22-1.65-.36-3.27-.97-4.99-.61-1.7-1.24-3.46-1.05-5.31.21-2.03,3.29-1.96,8.73-1.66,1.42.08,3.35.18,3.78.07,2.08-.75,4.09-1.58,5.52-3.53l.1-.13c2.64-3.61,3.78-4.56,4.9-4.04,2.7,1.26,6.52,6.81,7.47,9.23.1.25.17.61.32,1.32.13.64.42,2.02.67,2.65.7-.19,2.3-1.44,4.99-7.77.38-.89.57-1.34,1.27-1.38,1.9-.12,3.46.92,4.85,1.84,1.82,1.21,3.02,1.91,4.55,1.2,1.2-.56,1.67-1.9,2.22-3.45.53-1.5,1.07-3.05,2.38-4.12,2.7-2.21,22.92-7.51,26-6.28,1.49.6,2.13,1.97,2.7,3.19.31.66.6,1.29.99,1.7,2.34,2.48,4.78,2.84,7.88,3.29,1.12.16,2.28.33,3.51.62.06.01,6.33,1.97,6.79,3.32.12.36.04.83-.2,1.12-1.12,1.36-3.51,2.65-5.93,3.83,0,0-.02,0-.03.01.28.81.88,1.9,1.43,2.89,1.29,2.34,2.62,4.76,1.81,6.56-1.15,2.56-5.87,5.12-10.43,7.6-2.3,1.25-4.48,2.43-5.64,3.35,0,.62.41,2.2.67,3.19.58,2.26.92,3.69.64,4.61-.42,1.38-1.1,2.55-1.75,3.67-.96,1.65-1.79,3.07-1.75,4.97.06,3.09,6.1,10.26,10.95,16.01,2.99,3.55,5.82,6.91,7.21,9.22,1.38,2.29,1.75,4.75,2.11,7.14.33,2.17.63,4.22,1.68,5.97,4.17,6.96,9.3,14.45,15.78,17.17.87.37,3.15,0,5.15-.32,3.6-.58,7.32-1.17,9.1.78.95,1.04.12,2.43-.76,3.91-.54.91-1.43,2.41-1.26,3.03,1.09,1.16,10.3,7.71,13.38,9.83,1.18.81,2.34,1.69,3.51,2.57,1.91,1.44,3.88,2.92,5.9,4.08,1.44.83,2.94,1.56,4.39,2.27,5.78,2.82,11.76,5.73,12.66,14.53.23,2.26-2.84,5.48-3.68,6.21-.87.79-1.75-.14-2.39-.81-1.33-1.38-1.85-2.99-2.3-4.41-.31-.97-.6-1.88-1.12-2.69,0-.01-.03-.05-.05-.09-.88-.8-2.24-.93-3.68-1.05-.79-.07-1.6-.14-2.37-.33-1.73-.43-3.1-1.36-4.3-2.17-2.3-1.56-3.46-2.35-5.92.34-3.92,4.28-4.66,6.04-4.75,6.71-.23,1.64,1.46,3.32,3.25,5.09,2.37,2.35,5.05,5.01,4.07,8.57-1.73,6.28-6.46,10.82-11.04,15.22-1.78,1.7-3.45,3.31-4.95,5.01-.2.23-.53.77-.88,1.35-1.17,1.93-3,4.94-5.35,4.94ZM185.08,286.79c.43,0,.67.16.9.54.65,1.1.56,2.46.48,3.66-.07,1.01-.14,2.06.27,2.5.99,1.07,2.62,1.29,4.35,1.53,1.66.23,3.38.47,4.55,1.57,5.31,5.04,11.88,16.42,9.87,23.84-.84,3.1-2.93,8.39-4.71,11.33-.37.62-.97,1.31-1.66,2.1-1.39,1.6-3.28,3.79-2.99,5.34.12.67.7,1.28,1.72,1.82,1.23.65,2.9-2.1,3.9-3.75.44-.72.78-1.29,1.11-1.66,1.56-1.77,3.35-3.48,5.08-5.15,4.36-4.19,8.87-8.52,10.44-14.22.64-2.32-1.37-4.31-3.5-6.43-2.1-2.08-4.26-4.23-3.88-6.96.24-1.69,1.92-4.2,5.31-7.89,3.74-4.09,6.42-2.28,8.78-.68,1.1.75,2.24,1.52,3.59,1.86.6.15,1.3.21,2.04.28,1.72.15,3.66.33,5.09,1.74.15.15.24.31.29.39.68,1.08,1.03,2.17,1.37,3.22.42,1.3.81,2.54,1.79,3.55,0,0,.01.01.02.02,1.17-1.25,2.34-3.01,2.27-3.68-.78-7.58-5.72-9.99-11.44-12.78-1.49-.72-3.02-1.47-4.53-2.33-2.14-1.23-4.17-2.76-6.13-4.23-1.14-.86-2.28-1.72-3.43-2.51-.13-.09-13.44-9.26-14.09-10.62-.78-1.63.34-3.51,1.33-5.17.27-.46.66-1.11.81-1.49-1.21-.81-4.48-.29-6.91.1-2.63.42-4.9.78-6.35.18-7.07-2.96-12.47-10.8-16.82-18.07-1.27-2.13-1.63-4.49-1.97-6.78-.34-2.27-.66-4.41-1.82-6.32-1.31-2.16-4.08-5.45-7.01-8.94-5.6-6.65-11.38-13.52-11.46-17.39-.05-2.51,1.01-4.35,2.04-6.12.62-1.06,1.2-2.07,1.55-3.21.09-.46-.38-2.31-.67-3.42-.77-2.98-1.1-4.45-.17-5.24,1.27-1.08,3.56-2.33,6.22-3.77,3.64-1.98,8.63-4.68,9.47-6.57.36-.81-.9-3.09-1.73-4.6-.9-1.63-1.75-3.17-1.85-4.45-.06-.78.43-1.02,1.41-1.5.98-.48,2.97-1.45,4.27-2.42-1.41-.63-3.83-1.53-4.54-1.76-1.06-.25-2.18-.41-3.25-.57-3.24-.47-6.29-.92-9.16-3.96-.62-.66-1.01-1.48-1.38-2.27-.45-.97-.84-1.8-1.52-2.08-2.18-.74-21.52,4.09-23.78,5.94-.83.68-1.25,1.88-1.7,3.15-.62,1.77-1.32,3.77-3.37,4.72-2.73,1.27-4.93-.19-6.7-1.36-.99-.65-1.93-1.28-2.88-1.44h0c-1.93,4.56-4.54,9.7-7.73,9.11-1.13-.21-1.51-1.5-2.11-4.38-.09-.45-.16-.81-.22-.98-.83-2.08-3.99-6.52-5.97-7.81-.35.31-1.1,1.1-2.58,3.12l-.1.14c-1.8,2.45-4.23,3.47-6.57,4.3-.7.25-2.06.19-4.62.05-1.92-.1-5.38-.29-6.45.03-.03,1.26.45,2.6.95,4.01.67,1.89,1.37,3.84,1.08,6.02-.25,1.9-1.32,3.23-2.27,4.4-.67.83-1.3,1.61-1.62,2.53.02.2.51.97.8,1.42.63.97,1.27,1.97,1.27,3.05,0,1.79-.72,3.35-1.42,4.87-.7,1.51-1.36,2.94-1.18,4.39.39,3.29,2.75,4.32,5.25,5.4,1.84.8,3.57,1.55,4.21,3.26.34.92.3,1.98-.14,3.22,2.12.74,3.6-1.16,6.12-5.21,2.63-4.23,5.9-9.49,11.86-6.2l.18.1c6.16,3.39,15.47,8.52,18.78,15.16,1.32,2.65,1.47,5.49,1.61,8.24.09,1.86.18,3.62.62,5.32.67,2.63,2.02,4.5,3.45,6.49.8,1.11,1.63,2.25,2.38,3.59.49.86.76,1.71,1.02,2.53.35,1.08.64,2.02,1.38,2.82.7.76,1.58,1.31,2.52,1.89.89.55,1.82,1.13,2.64,1.92,3.69,3.58,7.58,8.65,10.71,12.73l.18.23c1.11,1.45,2.07,3.04,3,4.59,1.68,2.8,3.27,5.44,5.68,7.29.45.35.97.19,2.29-.48.76-.38,1.61-.81,2.54-.92,2.32-.27,5.23,1.19,7.78,2.66,2.89,1.66,5.12,4.68,7.29,7.59,1.4,1.89,2.73,3.68,4.17,5.04l.25.24c.77.76,1.29,1.14,1.53,1.15.05-.01.31-.08.61-.15.92-.23,1.51-.38,1.93-.38ZM234.28,299.75s0,0,0,0c0,0,0,0,0,0ZM88.19,313.53c-3.48,0-4.49-2.63-5.3-4.76-.12-.32-.25-.65-.38-.98-.2-.49-.4-.91-.58-1.3-.77-1.65-1.37-2.95-.79-5.62.24-1.11,1.2-2.67,2.52-4.75.49-.78.96-1.51,1.19-1.96l.15-.43c.23-.65.63-1.72.5-2.22-.06-.23-.2-.51-.34-.81-.26-.54-.56-1.16-.6-1.86-.06-1.17.35-2.22.71-3.14.23-.59.45-1.15.53-1.67.07-.5-.47-1.45-.86-2.14-.26-.45-.49-.88-.64-1.24-.2-.5-.23-.98-.26-1.37-.01-.24-.03-.44-.07-.59-.06-.21-.3-.43-.57-.68-.32-.3-.67-.64-.94-1.11-.91-1.66-.8-3.7-.54-5.12.45-2.6,1.01-2.82,1.64-2.83,1.06,0,1.82.85,2.7,1.9.1.12.19.23.26.31.33.36.66.5,1.58.3,1.59-.34,4.16-1.45,5.3-2.29.49-.36.98-.78,1.47-1.21,2.07-1.78,4.65-3.99,8.16-2.47,2.2.95,2.46,2.98,2.66,4.61.09.73.18,1.41.41,1.95.16.38.35.79.55,1.21,1.1,2.36,2.46,5.29,1.65,8.02-.26.87-.72,1.57-1.13,2.19-.46.69-.85,1.28-.96,2.04-.11.81,0,1.6.11,2.44.16,1.19.34,2.55-.13,4.06-.38,1.2-.95,2.25-1.51,3.26-.62,1.13-1.2,2.19-1.48,3.4-.24,1.01-.15,2.28-.07,3.64.13,2.04.27,4.15-.66,5.88-.87,1.62-2.72,1.12-3.94.79-.72-.2-1.62-.44-1.99-.23-.83.47-1.55,1.13-2.32,1.83-1.45,1.32-3.1,2.81-5.6,2.96-.14,0-.28.01-.42.01ZM84.16,271.78c-.04.16-.07.3-.08.38-.28,1.52-.17,2.82.3,3.67.1.18.3.37.52.58.41.39.93.88,1.16,1.65.12.4.14.77.16,1.09.02.27.03.51.1.67.12.29.31.63.52.99.61,1.08,1.3,2.3,1.13,3.54-.11.78-.39,1.49-.66,2.17-.31.78-.6,1.52-.56,2.21.01.26.2.65.38,1.02.19.38.38.78.5,1.22.3,1.16-.17,2.47-.56,3.52l-.16.47s-.04.09-.06.14c-.27.55-.76,1.32-1.33,2.22-.86,1.36-2.05,3.22-2.22,4.03-.42,1.95-.07,2.71.63,4.22.19.41.4.87.62,1.39.14.34.28.69.41,1.03.89,2.34,1.4,3.45,3.54,3.34,1.73-.1,2.9-1.16,4.25-2.39.82-.75,1.67-1.52,2.71-2.11,1.16-.66,2.55-.29,3.66.02.47.13,1.25.34,1.47.26.58-1.14.46-2.93.35-4.66-.09-1.45-.19-2.95.12-4.28.35-1.5,1.04-2.75,1.7-3.96.53-.96,1.03-1.87,1.34-2.86.33-1.04.2-2,.05-3.11-.13-.95-.26-1.92-.11-3.03.17-1.26.78-2.17,1.31-2.97.36-.53.69-1.04.86-1.6.58-1.93-.59-4.45-1.53-6.47-.21-.44-.4-.87-.57-1.27-.35-.82-.46-1.7-.57-2.54-.19-1.54-.35-2.44-1.35-2.87-2.1-.91-3.61.19-5.85,2.12-.54.46-1.07.92-1.6,1.31-1.55,1.14-4.43,2.3-6.14,2.67-1.08.23-2.48.33-3.67-.97-.09-.1-.2-.23-.33-.38-.09-.11-.24-.29-.41-.47ZM85.86,294.6h.01-.01Z"/>
  <g>
    <path class="cls-3" d="M56.89,121.72l-.02-5.61,10.2-.04-.17-38.75-10.2.04-.02-5.61,26.7-.11.02,5.61-10.2.04.17,38.75,10.2-.04.02,5.61-26.7.11Z"/>
    <path class="cls-3" d="M106.53,121.51l-.19-44.43-13.69.06-.02-5.61,33.55-.14.02,5.61-13.69.06.19,44.43-6.16.03Z"/>
    <path class="cls-3" d="M131.86,121.4l12.79-50.03,8.28-.04,13.16,49.92-6.23.03-3.34-13.27-15.13.07-3.23,13.3-6.3.03ZM142.59,102.86l12.6-.05-3.9-15.39c-.74-2.92-1.32-5.36-1.74-7.32-.42-1.96-.68-3.24-.77-3.83-.09.59-.33,1.87-.74,3.84-.4,1.96-.96,4.39-1.68,7.26l-3.77,15.49ZM144.76,65.88l7.22-9.62,6.64-.03-7.56,9.62-6.3.03Z"/>
  </g>
  <g>
    <path class="cls-3" d="M149.41,436.74v-49.98h6.16v44.37h22.59v5.61h-28.76Z"/>
    <path class="cls-3" d="M188.09,436.74v-5.61h10.2v-38.75h-10.2v-5.61h26.7v5.61h-10.2v38.75h10.2v5.61h-26.7Z"/>
    <path class="cls-3" d="M223.69,436.74l13.01-49.98h8.28l12.94,49.98h-6.23l-3.29-13.28h-15.13l-3.29,13.28h-6.3ZM234.51,418.26h12.6l-3.83-15.4c-.73-2.92-1.3-5.36-1.71-7.33-.41-1.96-.66-3.24-.75-3.83-.09.59-.34,1.87-.75,3.83-.41,1.96-.98,4.38-1.71,7.26l-3.83,15.47Z"/>
  </g>
</svg>