<?xml version="1.0" encoding="UTF-8"?>
<svg id="Layer_1" data-name="Layer 1" xmlns="http://www.w3.org/2000/svg" xmlns:xlink="http://www.w3.org/1999/xlink" viewBox="0 0 307.19 498.64">
  <defs>
    <style>
      .cls-1 {
        fill: #c7ae9a;
      }

      .cls-2 {
        fill: #f7f9ea;
        font-family: JetBrainsMono-Regular, 'JetBrains Mono';
        font-size: 57.08px;
        font-variation-settings: 'wght' 400;
        letter-spacing: -.03em;
      }

      .cls-3 {
        fill: #5b0718;
        filter: url(#drop-shadow-8);
      }
    </style>
    <filter id="drop-shadow-8" x="0" y="0" width="307.19" height="498.64" filterUnits="userSpaceOnUse">
      <feOffset dx="4.4" dy="8.8"/>
      <feGaussianBlur result="blur" stdDeviation="8.8"/>
      <feFlood flood-color="#000" flood-opacity=".3"/>
      <feComposite in2="blur" operator="in"/>
      <feComposite in="SourceGraphic"/>
    </filter>
  </defs>
  <path class="cls-3" d="M16.66,498.64h26.53c0-9.33,7.57-16.91,16.9-16.91s16.9,7.57,16.9,16.91h15.62c0-9.33,7.56-16.91,16.9-16.91s16.9,7.57,16.9,16.91h15.62c0-9.33,7.57-16.91,16.9-16.91s16.9,7.57,16.9,16.91h15.62c0-9.33,7.57-16.91,16.9-16.91s16.9,7.57,16.9,16.91h15.62c0-9.33,7.57-16.91,16.9-16.91s16.9,7.57,16.9,16.91h15.85c1.31-8.04,8.26-14.18,16.67-14.18v-16.81c-9.34,0-16.9-7.57-16.9-16.9s7.57-16.9,16.9-16.9v-16.8c-9.34,0-16.9-7.57-16.9-16.91s7.57-16.89,16.9-16.89v-16.81c-9.34,0-16.9-7.57-16.9-16.9s7.57-16.9,16.9-16.9v-16.81c-9.34,0-16.9-7.57-16.9-16.91s7.57-16.9,16.9-16.9v-15.62c-9.33,0-16.9-7.57-16.9-16.9s7.57-16.9,16.9-16.9v-15.62c-9.33,0-16.9-7.56-16.9-16.9s7.57-16.9,16.9-16.9v-15.62c-9.33,0-16.9-7.57-16.9-16.9s7.57-16.9,16.9-16.9v-15.62c-9.33,0-16.9-7.57-16.9-16.9s7.57-16.9,16.9-16.9v-15.62c-9.33,0-16.9-7.57-16.9-16.9s7.57-16.9,16.9-16.9v-15.62c-9.33,0-16.9-7.57-16.9-16.9C290.29,1.59,290.37.79,290.48,0h-16c.11.79.19,1.59.19,2.4,0,9.33-7.57,16.9-16.9,16.9s-16.9-7.57-16.9-16.9C240.87,1.59,240.95.79,241.07,0h-16c.11.79.19,1.59.19,2.4,0,9.33-7.57,16.9-16.9,16.9s-16.9-7.57-16.9-16.9C191.45,1.59,191.53.79,191.64,0h-16c.11.79.19,1.59.19,2.4,0,9.33-7.57,16.9-16.9,16.9s-16.9-7.57-16.9-16.9C142.03,1.59,142.11.79,142.22,0h-16c.11.79.19,1.59.19,2.4,0,9.33-7.56,16.9-16.9,16.9s-16.9-7.57-16.9-16.9C92.61,1.59,92.69.79,92.8,0h-16c.12.79.19,1.59.19,2.4,0,9.33-7.57,16.9-16.9,16.9s-16.9-7.57-16.9-16.9C43.19,1.59,43.27.79,43.38,0h-26.66c.11.79.18,1.59.18,2.4C16.9,11.74,9.33,19.3,0,19.3v15.62c9.33,0,16.9,7.57,16.9,16.9S9.33,68.73,0,68.73v15.62c9.33,0,16.9,7.56,16.9,16.9S9.33,118.15,0,118.15v15.62c9.33,0,16.9,7.57,16.9,16.9S9.33,167.57,0,167.57v15.62c9.33,0,16.9,7.57,16.9,16.9S9.33,216.98,0,216.98v15.62c9.33,0,16.9,7.57,16.9,16.9S9.33,266.41,0,266.41v15.62c9.33,0,16.9,7.57,16.9,16.9S9.33,315.83,0,315.83v16.81c9.33,0,16.9,7.57,16.9,16.9S9.33,366.44,0,366.44v16.81c9.33,0,16.9,7.57,16.9,16.89S9.33,417.05,0,417.05v16.8c9.33,0,16.9,7.57,16.9,16.9S9.33,467.65,0,467.65v16.81c8.4,0,15.36,6.14,16.66,14.18Z"/>
  <path class="cls-1" d="M275.23,459.79H31.96V38.85h243.27v420.93ZM34.16,457.59h238.87V41.06H34.16v416.53Z"/>
  <path class="cls-1" d="M124.63,398.04c-.22,0-.43-.01-.64-.04-4.05-.6-7.65-2.53-11.13-4.4-4.29-2.3-8.34-4.48-13.29-4.5-3.44-.02-6.38,1.61-9.45,3.33-3.33,1.86-6.77,3.79-11,3.46-3.74-.29-6.42-1.55-7.97-3.72-2.96-4.16-1.24-10.72.27-16.51.52-2,1.02-3.89,1.28-5.53.83-5.2,1.91-10.61,2.95-15.84,3.67-18.39,7.45-37.39,2.78-55.57-.68-.01-1.96.06-3.12.13-5.71.34-13.54.8-14.66-3.13-.57-2,1.25-4.76,4.5-9.46,3.09-4.48,6.94-10.05,6.3-13.45-.16-.87-.63-1.56-1.41-2.11-.75.05-3.08,1.79-4.63,2.95-3.58,2.68-7.64,5.72-10.77,4.94-1.23-.31-2.18-1.15-2.82-2.5-2.04-4.34-.17-29.75,2.49-34,1.75-2.78,4.16-5.06,6.49-7.27,2.39-2.26,4.65-4.39,6.25-7.02,4.74-7.75,8.58-16.91,12.29-25.78.73-1.73,1.44-3.44,2.15-5.11,1.41-3.29.95-6.61.47-10.12-.36-2.6-.73-5.3-.33-8.07.75-5.14,3.33-8.36,6.07-11.77,1-1.25,2.04-2.54,3.01-3.96,8.22-12.05,6.16-48.68,3.96-61.22-.41-2.37-.99-4.72-1.61-7.21-1.73-7.02-3.52-14.28-1.26-21.51,1.4-4.46,6.45-8.45,13.86-10.94,7.09-2.39,17.01-3.34,22.03.23.9.64.9,1.5-1.09,10.72-.34,1.6-.7,3.23-.92,4.4,1.25-.29,2.48-.6,3.68-.91,4.73-1.21,9.63-2.47,15.05-1.75,2.46.33,4.7,1.32,6.86,2.28,2.81,1.25,5.46,2.42,8.46,2.16,3.33-.29,5.67-2.2,8.14-4.23,1.59-1.3,3.24-2.65,5.2-3.59,6.52-3.11,20.57-.78,25.48,4.24,2.29,2.34,3.36,5.41,4.39,8.38.96,2.76,1.86,5.36,3.65,7.08,1.01.98,2.31,1.99,3.68,3.06,3.96,3.09,8.46,6.6,9.17,11.56.26,1.85-2.21,4.57-9.13,10.04-.42.33-.75.59-.95.76-2.69,2.23-5.74,4.1-8.69,5.91-7.32,4.48-14.23,8.71-15.39,17.99-.79,6.31.19,13.07,1.14,19.62,1,6.89,2.04,14.02,1.06,20.79-.42,2.96-2.66,4.7-4.82,6.38-2.15,1.68-4.19,3.26-4.23,5.94-.04,2.56,1.59,5.08,3.31,7.75,2.04,3.16,4.15,6.42,3.39,9.99-1.87,8.83-13.19,14.17-20.64,14.63-4.27.26-7.72.59-10.85,1.03-.06,0-.12.02-.18.02.58.27.94.46,1.16.6,2.25,1.48,5.2,4.07,6.5,8.05.97,2.97.73,6.31.49,9.54-.32,4.43-.63,8.61,1.99,11.72,1.29,1.53,3.46,2.75,5.76,4.03,3.84,2.15,8.18,4.58,8.7,9.17.76,6.73-4.08,11.82-8.77,16.75-4.01,4.22-8.15,8.58-8.6,13.83-.54,6.33,3.68,11.62,7.39,16.29,3.13,3.93,5.83,7.32,5.54,10.87-.24,3-4.89,6.22-12.46,11.24-5.32,3.53-11.35,7.53-13.06,10.57-2.26,4-.58,8.05,1.19,12.33,1.74,4.2,3.53,8.55,1.84,13.22-2.17,6-18.93,23.26-26.48,23.26ZM99.53,386.9h.05c5.49.02,9.98,2.43,14.32,4.76,3.47,1.86,6.74,3.62,10.41,4.16,5.61.84,22.61-15.92,24.73-21.78,1.4-3.87-.16-7.64-1.81-11.63-1.89-4.58-3.85-9.31-1.07-14.25,1.97-3.5,7.96-7.48,13.76-11.32,5.04-3.34,11.31-7.5,11.48-9.59.22-2.68-2.23-5.76-5.07-9.33-3.97-4.99-8.47-10.65-7.86-17.85.51-6.02,4.92-10.67,9.19-15.16,4.54-4.77,8.82-9.28,8.18-14.99-.4-3.47-3.89-5.43-7.59-7.5-2.37-1.32-4.82-2.69-6.37-4.53-3.2-3.79-2.84-8.62-2.5-13.3.23-3.16.45-6.14-.39-8.69-1.1-3.38-3.66-5.61-5.61-6.9-.16-.1-.91-.46-1.46-.71-2.42-1.13-3-1.4-3.04-2.23-.02-.52.16-.97.5-1.29.69-.65,1.76-.55,2.79-.45.41.04.88.08,1.14.05,3.19-.45,6.69-.78,11.02-1.04,6.58-.4,17.01-5.23,18.62-12.88.57-2.68-1.21-5.43-3.09-8.34-1.83-2.83-3.71-5.75-3.66-8.98.06-3.73,2.73-5.81,5.08-7.64,1.9-1.48,3.69-2.88,3.99-4.96.93-6.46-.08-13.43-1.06-20.16-.97-6.69-1.98-13.61-1.15-20.21,1.3-10.33,8.99-15.04,16.43-19.59,2.89-1.77,5.87-3.59,8.44-5.73.21-.17.55-.45.99-.79,7.15-5.65,8.28-7.46,8.32-8.03-.58-4.05-4.71-7.27-8.34-10.1-1.42-1.11-2.76-2.15-3.85-3.21-2.16-2.09-3.2-5.07-4.2-7.94-.95-2.74-1.94-5.58-3.89-7.57-4.32-4.42-17.19-6.54-22.95-3.79-1.72.82-3.19,2.03-4.75,3.3-2.62,2.15-5.33,4.37-9.34,4.72-3.56.31-6.6-1.04-9.54-2.34-2.11-.94-4.11-1.82-6.26-2.11-4.99-.66-9.47.48-14.21,1.7-1.72.44-3.51.9-5.33,1.27l-1.39.28.07-1.41c.04-.88.48-2.94,1.19-6.22.6-2.79,1.58-7.32,1.62-8.69-3.86-2.4-12.03-2.3-19.71.29-6.63,2.23-11.29,5.79-12.46,9.52-2.08,6.64-.36,13.6,1.3,20.32.6,2.42,1.21,4.92,1.64,7.36,2.25,12.79,4.26,50.27-4.31,62.84-1.02,1.49-2.08,2.82-3.11,4.1-2.65,3.31-4.94,6.17-5.61,10.71-.36,2.46-.03,4.89.33,7.45.5,3.65,1.02,7.43-.62,11.28-.71,1.66-1.42,3.37-2.15,5.09-3.74,8.94-7.62,18.18-12.44,26.07-1.76,2.87-4.23,5.21-6.61,7.47-2.34,2.21-4.54,4.3-6.14,6.84-2.23,3.55-4.06,28.28-2.37,31.89.46.98,1,1.22,1.36,1.31,2.12.53,6.05-2.41,8.92-4.56,3.32-2.49,5.52-4.13,7.1-3.07,1.33.89,2.14,2.1,2.42,3.58.81,4.31-3.15,10.05-6.65,15.11-2,2.9-4.5,6.52-4.19,7.61.64,2.23,8.89,1.74,12.41,1.53,3.76-.22,4.9-.29,5.22.89,5.05,18.85,1.17,38.33-2.59,57.17-1.09,5.45-2.11,10.6-2.94,15.76-.28,1.74-.78,3.68-1.32,5.74-1.39,5.32-2.96,11.36-.6,14.68,1.17,1.64,3.24,2.56,6.35,2.8,3.55.28,6.56-1.4,9.75-3.19,3.17-1.77,6.45-3.61,10.48-3.61Z"/>
  <text class="cls-2" transform="translate(246.6 432.23) rotate(-89.9)"><tspan x="0" y="0">PORTUGAL</tspan></text>
</svg>