<?xml version="1.0" encoding="UTF-8"?>
<svg id="Layer_1" data-name="Layer 1" xmlns="http://www.w3.org/2000/svg" xmlns:xlink="http://www.w3.org/1999/xlink" viewBox="0 0 246.15 246.15">
  <defs>
    <style>
      .cls-1, .cls-2 {
        fill: #c7ae9a;
      }

      .cls-2 {
        filter: url(#drop-shadow-4);
      }

      .cls-3 {
        fill: #f7f9ea;
      }

      .cls-4 {
        fill: #414417;
      }
    </style>
    <filter id="drop-shadow-4" x="0" y="0" width="246.15" height="246.15" filterUnits="userSpaceOnUse">
      <feOffset dx="4.4" dy="8.8"/>
      <feGaussianBlur result="blur" stdDeviation="8.8"/>
      <feFlood flood-color="#000" flood-opacity=".3"/>
      <feComposite in2="blur" operator="in"/>
      <feComposite in="SourceGraphic"/>
    </filter>
  </defs>
  <path class="cls-2" d="M246.15,232.17v-13.31c-7.72,0-13.98-6.26-13.98-13.98s6.26-13.99,13.98-13.99v-12.93c-7.72,0-13.98-6.26-13.98-13.99s6.26-13.99,13.98-13.99v-12.93c-7.72,0-13.98-6.26-13.98-13.99s6.26-13.98,13.98-13.98v-12.93c-7.72,0-13.98-6.26-13.98-13.99s6.26-13.99,13.98-13.99v-12.93c-7.72,0-13.98-6.26-13.98-13.98s6.26-13.99,13.98-13.99v-13.31C238.45,13.95,232.22,7.71,232.22,0h-12.93c0,7.72-6.27,13.99-13.99,13.99S191.32,7.72,191.32,0h-12.93c0,7.72-6.26,13.99-13.98,13.99S150.43,7.72,150.43,0h-12.93c0,7.72-6.26,13.99-13.99,13.99S109.53,7.72,109.53,0h-12.93c0,7.72-6.26,13.99-13.99,13.99S68.63,7.72,68.63,0h-12.93c0,7.72-6.26,13.99-13.99,13.99S27.73,7.72,27.73,0h-12.93c0,7.72-6.26,13.99-13.99,13.99C.54,13.99.27,13.96,0,13.94v13.39c.27-.02.54-.04.82-.04,7.72,0,13.99,6.26,13.99,13.99s-6.26,13.98-13.99,13.98C.54,55.26.27,55.24,0,55.23v13.01c.27-.02.54-.04.82-.04,7.72,0,13.99,6.26,13.99,13.99s-6.26,13.99-13.99,13.99C.54,96.16.27,96.14,0,96.12v13.01c.27-.01.54-.04.82-.04,7.72,0,13.99,6.26,13.99,13.98s-6.26,13.99-13.99,13.99C.54,137.06.27,137.04,0,137.02v13.01c.27-.02.54-.04.82-.04,7.72,0,13.99,6.26,13.99,13.99s-6.26,13.99-13.99,13.99C.54,177.96.27,177.94,0,177.92v13.01c.27-.02.54-.04.82-.04,7.72,0,13.99,6.26,13.99,13.99s-6.26,13.98-13.99,13.98C.54,218.86.27,218.83,0,218.82v13.39c.27-.01.54-.04.82-.04,7.72,0,13.99,6.26,13.99,13.98h12.93c0-7.72,6.26-13.98,13.99-13.98s13.99,6.26,13.99,13.98h12.93c0-7.72,6.26-13.98,13.98-13.98s13.99,6.26,13.99,13.98h12.93c0-7.72,6.26-13.98,13.98-13.98s13.99,6.26,13.99,13.98h12.93c0-7.72,6.26-13.98,13.99-13.98s13.98,6.26,13.98,13.98h12.93c0-7.72,6.27-13.98,13.99-13.98s13.99,6.26,13.99,13.98h12.93c0-7.7,6.23-13.95,13.93-13.98Z"/>
  <g>
    <rect class="cls-1" x="27.04" y="27.04" width="192.06" height="192.06"/>
    <path class="cls-3" d="M220.21,220.21H25.94V25.94h194.26v194.26ZM28.15,218.01h189.86V28.15H28.15v189.86Z"/>
  </g>
  <path class="cls-3" d="M131.32,185.68c-.82,0-1.67-.29-2.54-.86-1-.66-1.55-1.66-2.04-2.54-.39-.7-.76-1.37-1.3-1.77-.77-.57-1.77-.9-2.83-1.25-1.34-.45-2.73-.91-3.81-1.92-1.27-1.19-.8-3.09,1.39-5.65.32-.37.63-.78.93-1.19.69-.92,1.4-1.86,2.34-2.6.58-.45,1.39-.83,2.25-1.24,1.36-.64,3.22-1.51,3.13-2.42-.07-.66-.45-1.2-.9-1.82-.42-.58-.89-1.24-1.14-2.08-.3-.99-.22-1.99-.16-2.87.03-.44.07-.88.05-1.31-.03-.56-.81-1.83-4.33-4.68-.67-.54-1.59-.82-2.56-1.12-1.66-.51-3.54-1.09-4.34-2.82-.66-1.43-.16-3.22.28-4.8.19-.69.38-1.35.42-1.83.33-3.65.1-6.75-2.07-10.05-.27-.41-.89-.61-1.61-.85-.84-.27-1.79-.58-2.5-1.35-1.15-1.25-1.58-2.61-1.96-3.8-.51-1.59-.87-2.73-2.72-3.5-1.07-.44-2.42-.48-3.86-.52-2.07-.06-4.21-.12-5.93-1.4-1.58-1.18-1.83-3.31-2.06-5.2-.09-.76-.26-2.16-.54-2.37-.6-.07-1.65.47-2.5.91-.56.29-1.1.57-1.6.74-2.7.92-6.98,1.72-9.95,1.46-1.12-.1-1.31-1.24-1.5-2.34-.06-.37-.17-1.03-.29-1.28-.83-.46-1.65-.75-2.45-1.03-1.93-.67-3.93-1.37-5.34-4.38-.7-1.5-.05-2.77.43-3.71.17-.34.34-.67.43-.96,2.15-7,3.68-7.91,10.01-7.85.15-1.21.51-2.33.87-3.42.4-1.22.77-2.37.82-3.57.03-.86-.46-1.55-1.04-2.34-.59-.82-1.27-1.75-1.4-2.98-.11-1.02.61-1.83,1.24-2.55.24-.28.58-.65.64-.83.06-.16.08-.43.1-.7.05-.71.15-2.19,1.79-2.58,3.96-.94,6.21.46,8.01,1.59,1.85,1.16,3.07,1.92,5.92.19.95-.58.96-.83.1-2.45-.56-1.06-1.26-2.39-.71-3.81.8-2.06,3.12-1.85,4.81-1.7.68.06,1.44.13,1.79.02.52-.17,1.24-.75,1.93-1.3,1.44-1.16,3.07-2.47,4.91-1.94,3.06.88,3.03,3.94,3,6.4-.03,2.93.14,4.26,1.83,4.67,1.22.3,3.29-.75,5.12-1.68,1.47-.75,2.87-1.46,4.05-1.61,1.38-.18,2.53.2,3.53.54,1.2.4,2.15.72,3.45.2.37-.15.91-1.17,1.26-1.84.76-1.45,1.8-3.43,3.77-2.78,2.64.86,3.47,3.16,4.2,5.18.29.8.56,1.55.92,2.18.81,1.41,2.89,3.24,5.87,5.14,1.13.72,2.52.92,3.99,1.12,1.59.22,3.23.45,4.72,1.37.84.52,1.32,1.5,1.78,2.46.22.45.58,1.21.79,1.34,1.61.32,3.45.35,5.4.38,3.07.05,6.25.1,9.08,1.44,1.84.87,2.97,2.22,4.06,3.52.75.9,1.47,1.75,2.38,2.39.96.67,2.21,1.07,3.43,1.46,2.74.87,6.15,1.95,5.87,6.77-.22,3.76-2.32,5.72-4.36,7.61-.86.8-1.74,1.62-2.49,2.59-.42.55-.66,1.25-.91,2.01-.3.89-.61,1.81-1.26,2.63-.45.57-.97.99-1.43,1.37-.6.5-1.13.93-1.44,1.61-.79,1.75-.6,3.87-.39,6.11.14,1.49.28,3.02.11,4.48-.18,1.54-.93,2.79-1.67,4-.42.7-.82,1.36-1.08,2.03-.39,1-.73,1.98-1.07,2.93-1.38,3.91-2.68,7.6-6.15,10.99-1.35,1.32-3.38,1.11-5.17.93-.91-.09-1.84-.19-2.43-.04-1.39.35-9.51,6.19-10.35,7.44-1.07,1.59-1.18,3.33-1.31,5.17-.1,1.57-.21,3.19-.91,4.79-.41.94-2.73,3.53-8.26,9.23l-.56.58c-.39.4-.8,1.03-1.23,1.69-1.03,1.58-2.2,3.37-4.08,3.75-.23.05-.47.07-.7.07ZM92.81,109.66c.13,0,.25,0,.38.02,1.97.25,2.23,2.4,2.45,4.29.17,1.44.37,3.08,1.19,3.69,1.16.86,2.87.91,4.68.97,1.57.05,3.19.09,4.64.69,2.8,1.15,3.42,3.13,3.98,4.86.34,1.07.66,2.09,1.49,2.98.32.35.92.54,1.56.75.97.31,2.07.67,2.77,1.73,2.68,4.06,2.75,7.9,2.43,11.46-.06.68-.27,1.43-.49,2.23-.32,1.15-.73,2.59-.41,3.28.39.84,1.66,1.23,2.99,1.64,1.13.35,2.3.71,3.19,1.43,2.71,2.2,5.14,4.42,5.25,6.36.03.55-.01,1.08-.05,1.6-.06.75-.11,1.47.07,2.07.15.49.46.93.82,1.44.55.77,1.18,1.64,1.3,2.89.25,2.47-2.43,3.72-4.39,4.64-.74.35-1.44.67-1.82.97-.71.56-1.31,1.35-1.94,2.19-.34.45-.67.89-1.02,1.29-1.66,1.95-1.54,2.64-1.54,2.65.7.64,1.81,1.01,2.98,1.4,1.18.39,2.39.8,3.44,1.57.92.68,1.45,1.63,1.91,2.46.42.76.78,1.41,1.34,1.78.61.41,1.12.56,1.58.47.98-.2,1.88-1.58,2.68-2.8.49-.75.96-1.47,1.49-2.02l.57-.58c6.06-6.24,7.6-8.11,7.83-8.59.54-1.24.63-2.6.73-4.04.13-1.95.28-4.17,1.68-6.25,1.14-1.7,9.74-7.87,11.64-8.35.96-.24,2.09-.13,3.19-.02,1.38.14,2.8.28,3.41-.32,3.11-3.04,4.27-6.33,5.62-10.15.34-.97.69-1.97,1.09-2.99.33-.85.8-1.62,1.25-2.37.64-1.06,1.24-2.05,1.36-3.11.14-1.23.02-2.59-.12-4.03-.22-2.43-.46-4.94.58-7.22.52-1.15,1.33-1.81,2.04-2.4.41-.34.8-.65,1.11-1.04.41-.51.64-1.21.89-1.95.29-.85.61-1.81,1.25-2.65.85-1.11,1.81-2,2.73-2.85,1.88-1.75,3.5-3.25,3.66-6.13.17-2.97-1.37-3.6-4.34-4.55-1.37-.44-2.79-.89-4.02-1.75-1.15-.81-1.99-1.81-2.8-2.78-.98-1.17-1.91-2.28-3.31-2.94-2.4-1.13-5.34-1.18-8.18-1.23-1.97-.03-4-.07-5.88-.45-1.15-.24-1.71-1.4-2.25-2.52-.28-.57-.66-1.36-.95-1.54-1.1-.67-2.45-.86-3.88-1.06-1.64-.23-3.34-.47-4.87-1.45-3.37-2.15-5.59-4.14-6.6-5.9-.46-.8-.77-1.68-1.08-2.53-.64-1.77-1.19-3.31-2.81-3.84-.29.1-.84,1.15-1.13,1.71-.62,1.19-1.27,2.42-2.39,2.87-2.04.81-3.59.3-4.96-.16-.9-.3-1.67-.56-2.56-.44-.81.1-2.09.76-3.33,1.39-2.28,1.15-4.63,2.35-6.64,1.85-3.56-.88-3.53-4.32-3.5-6.83.03-2.67-.1-3.89-1.41-4.26-.74-.21-1.9.72-2.91,1.54-.89.72-1.73,1.4-2.65,1.69-.77.25-1.69.16-2.66.08-1.34-.12-2.38-.17-2.57.31-.19.49.19,1.22.6,1.99.72,1.36,1.92,3.64-.91,5.36-4.01,2.44-6.26,1.03-8.24-.21-1.68-1.05-3.27-2.05-6.33-1.32-.07.06-.09.38-.11.59-.03.4-.06.84-.22,1.3-.2.56-.64,1.06-1.06,1.53-.25.28-.66.74-.7.93.07.58.5,1.17.99,1.85.68.94,1.52,2.1,1.46,3.72-.06,1.51-.5,2.86-.93,4.17-.43,1.31-.83,2.54-.83,3.85,0,.3-.12.58-.33.79-.21.21-.51.33-.79.31-6.36-.13-7,.03-8.91,6.28-.15.48-.36.91-.57,1.32-.45.89-.62,1.3-.39,1.77,1.02,2.17,2.3,2.62,4.07,3.23.89.31,1.9.66,2.95,1.27.85.5,1.05,1.64,1.24,2.75.03.16.06.37.1.55,2.62.09,6.22-.62,8.47-1.38.35-.12.81-.36,1.3-.61,1.06-.55,2.25-1.16,3.4-1.16Z"/>
  <g>
    <path class="cls-4" d="M49.86,93.48l-.21-49.98,14.17-.06c4.56-.02,8.14,1.11,10.73,3.38,2.59,2.27,3.89,5.44,3.91,9.5,0,2.28-.46,4.27-1.41,5.96-.95,1.69-2.3,3-4.06,3.92-1.75.92-3.86,1.36-6.33,1.33v-1.03c2.64-.06,4.94.44,6.88,1.48,1.94,1.04,3.45,2.54,4.54,4.5,1.08,1.96,1.63,4.28,1.64,6.98.01,2.83-.57,5.3-1.75,7.4-1.18,2.1-2.86,3.72-5.05,4.85-2.19,1.13-4.81,1.7-7.87,1.71l-15.2.07ZM55.76,64.77l8.08-.03c2.65-.01,4.73-.73,6.25-2.15,1.52-1.42,2.28-3.34,2.27-5.76-.01-2.42-.77-4.33-2.28-5.74-1.51-1.41-3.59-2.11-6.24-2.1l-8.15.04.07,15.75ZM55.86,87.91l8.49-.04c2.88-.01,5.14-.79,6.8-2.32,1.66-1.54,2.49-3.63,2.47-6.28-.01-2.74-.86-4.96-2.53-6.66-1.68-1.7-3.95-2.55-6.82-2.54l-8.49.04.08,17.8Z"/>
    <path class="cls-4" d="M89.16,93.31l-.21-49.98,15.47-.07c2.97-.01,5.57.58,7.81,1.78,2.24,1.2,3.98,2.87,5.23,5.01,1.24,2.14,1.87,4.65,1.88,7.52.01,3.38-.85,6.28-2.6,8.71-1.75,2.43-4.12,4.1-7.13,5.03l10.57,21.86-7.26.03-9.68-21.18-8.01.03.09,21.22-6.16.03ZM95.2,66.51l9.31-.04c2.56-.01,4.61-.83,6.15-2.46,1.54-1.63,2.31-3.76,2.3-6.41-.01-2.69-.8-4.83-2.35-6.43-1.56-1.59-3.62-2.38-6.17-2.37l-9.31.04.08,17.66Z"/>
    <path class="cls-4" d="M125.65,93.15l12.79-50.03,8.28-.04,13.16,49.92-6.23.03-3.34-13.27-15.13.07-3.23,13.3-6.3.03ZM136.38,74.62l12.6-.05-3.9-15.39c-.74-2.92-1.32-5.36-1.74-7.32-.42-1.96-.68-3.24-.77-3.83-.09.59-.34,1.87-.74,3.84-.4,1.96-.96,4.39-1.68,7.26l-3.77,15.49Z"/>
  </g>
  <g>
    <path class="cls-4" d="M104.31,195.91c-3.29.01-6.11-.52-8.46-1.61-2.36-1.09-4.18-2.65-5.46-4.7-1.29-2.05-1.96-4.49-2.02-7.32l6.16-.03c.01,2.51.87,4.49,2.59,5.95,1.72,1.45,4.11,2.17,7.16,2.16,2.88-.01,5.12-.73,6.74-2.15,1.61-1.42,2.42-3.39,2.4-5.9,0-2.01-.55-3.76-1.63-5.26s-2.62-2.54-4.63-3.13l-6.79-2.09c-3.43-1.03-6.07-2.78-7.93-5.24-1.86-2.46-2.8-5.35-2.81-8.68-.01-2.69.58-5.03,1.78-7.03,1.2-1.99,2.9-3.55,5.08-4.68,2.19-1.13,4.76-1.7,7.73-1.71,4.38-.02,7.9,1.19,10.56,3.62,2.66,2.43,4.02,5.68,4.08,9.74l-6.16.03c-.01-2.46-.76-4.39-2.25-5.78-1.49-1.39-3.58-2.07-6.27-2.06-2.65.01-4.71.66-6.19,1.94-1.48,1.28-2.21,3.07-2.2,5.35,0,2.05.56,3.83,1.67,5.33,1.1,1.5,2.68,2.57,4.74,3.2l6.86,2.16c3.34,1.04,5.92,2.81,7.76,5.31,1.84,2.5,2.76,5.44,2.78,8.82.01,2.74-.62,5.14-1.89,7.2-1.27,2.06-3.05,3.67-5.35,4.82-2.3,1.15-4.98,1.73-8.04,1.75Z"/>
    <path class="cls-4" d="M130.05,195.12l-.02-5.61,10.2-.04-.17-38.75-10.2.04-.02-5.61,26.7-.11.02,5.61-10.2.04.17,38.75,10.2-.04.02,5.61-26.7.11Z"/>
    <path class="cls-4" d="M170.1,194.94l-.22-49.98,6.16-.03.19,44.36,22.59-.1.02,5.61-28.76.12Z"/>
  </g>
</svg>