<?xml version="1.0" encoding="UTF-8"?>
<svg id="Layer_1" data-name="Layer 1" xmlns="http://www.w3.org/2000/svg" xmlns:xlink="http://www.w3.org/1999/xlink" viewBox="0 0 246.15 246.15">
  <defs>
    <style>
      .cls-1 {
        fill: #3f0a25;
      }

      .cls-2 {
        fill: #891a3d;
        filter: url(#drop-shadow-5);
      }

      .cls-3 {
        fill: #f7f9ea;
        font-family: JetBrainsMono-Regular, 'JetBrains Mono';
        font-size: 52.11px;
        font-variation-settings: 'wght' 400;
        letter-spacing: -.02em;
      }
    </style>
    <filter id="drop-shadow-5" x="0" y="0" width="246.15" height="246.15" filterUnits="userSpaceOnUse">
      <feOffset dx="4.4" dy="8.8"/>
      <feGaussianBlur result="blur" stdDeviation="8.8"/>
      <feFlood flood-color="#000" flood-opacity=".3"/>
      <feComposite in2="blur" operator="in"/>
      <feComposite in="SourceGraphic"/>
    </filter>
  </defs>
  <path class="cls-2" d="M246.15,232.17v-13.31c-7.72,0-13.99-6.26-13.99-13.98s6.27-13.99,13.99-13.99v-12.93c-7.72,0-13.99-6.26-13.99-13.98s6.27-13.99,13.99-13.99v-12.93c-7.72,0-13.99-6.26-13.99-13.99s6.27-13.98,13.99-13.98v-12.93c-7.72,0-13.99-6.26-13.99-13.99s6.27-13.99,13.99-13.99v-12.93c-7.72,0-13.99-6.26-13.99-13.98s6.27-13.99,13.99-13.99v-13.31C238.45,13.95,232.22,7.71,232.22,0h-12.93c0,7.72-6.26,13.99-13.98,13.99S191.32,7.72,191.32,0h-12.93c0,7.72-6.26,13.99-13.99,13.99S150.43,7.72,150.43,0h-12.93c0,7.72-6.26,13.99-13.99,13.99S109.53,7.72,109.53,0h-12.93c0,7.72-6.26,13.99-13.99,13.99S68.63,7.72,68.63,0h-12.93c0,7.72-6.26,13.99-13.98,13.99S27.73,7.72,27.73,0h-12.93c0,7.72-6.26,13.99-13.99,13.99C.54,13.99.27,13.96,0,13.94v13.39c.27-.02.54-.04.82-.04,7.73,0,13.99,6.26,13.99,13.99s-6.26,13.98-13.99,13.98C.54,55.26.27,55.24,0,55.23v13.01c.27-.02.54-.04.82-.04,7.73,0,13.99,6.26,13.99,13.99s-6.26,13.99-13.99,13.99C.54,96.16.27,96.14,0,96.12v13.01c.27-.01.54-.04.82-.04,7.73,0,13.99,6.26,13.99,13.98s-6.26,13.99-13.99,13.99C.54,137.06.27,137.04,0,137.02v13.01c.27-.02.54-.04.82-.04,7.73,0,13.99,6.26,13.99,13.99s-6.26,13.98-13.99,13.98C.54,177.96.27,177.94,0,177.92v13.01c.27-.02.54-.04.82-.04,7.73,0,13.99,6.26,13.99,13.99s-6.26,13.98-13.99,13.98C.54,218.86.27,218.83,0,218.82v13.39c.27-.01.54-.04.82-.04,7.73,0,13.99,6.26,13.99,13.98h12.93c0-7.72,6.26-13.98,13.99-13.98s13.98,6.26,13.98,13.98h12.93c0-7.72,6.27-13.98,13.99-13.98s13.99,6.26,13.99,13.98h12.93c0-7.72,6.26-13.98,13.98-13.98s13.99,6.26,13.99,13.98h12.93c0-7.72,6.26-13.98,13.98-13.98s13.99,6.26,13.99,13.98h12.93c0-7.72,6.26-13.98,13.99-13.98s13.98,6.26,13.98,13.98h12.93c0-7.7,6.23-13.95,13.93-13.98Z"/>
  <path class="cls-1" d="M220.21,220.21H25.95V25.94h194.26v194.26ZM28.15,218.01h189.86V28.15H28.15v189.86Z"/>
  <path class="cls-1" d="M83.35,204.16c-.58,0-1.24-.13-2.01-.32-.26-.06-.52-.12-.78-.18-.65-.15-1.32-.29-1.97-.54-.99-.37-1.85-.74-2.26-1.52-.32-.61-.22-1.18-.15-1.61l.03-.21c.17-1.21.34-2.38-.15-3.8-.4-1.12-3.67-5.99-4.68-7.24-2.16-2.65-4.34-5.33-7.31-6.54-.65-.26-1.62-.41-2.64-.57-.43-.07-.87-.13-1.3-.21-.58-.1-1.25-.25-1.85-.52-.4-.18-.85-.43-1.14-.94-.6-1.06-.78-2.54-.54-4.54.25-2.14,1.09-5.18,2.64-6.75.51-.52,1.17-.94,1.81-1.34.45-.29.92-.59,1.29-.9.84-.7,1.28-1.44,1.36-2.25.07-.75-.2-1.53-.86-2.46-.14-.2-.29-.4-.44-.6-.23-.3-.45-.6-.64-.9-.2-.3-.47-.7-.42-1.25.13-1.29.7-2.39,1.25-3.45l.19-.37c.66-1.28,1.3-2.66,1.3-4.06,0-2.72-.99-4.92-2.47-7.38-.22-.37-.45-.74-.68-1.11-.86-1.39-1.75-2.82-2.35-4.44l-.35-.95.92-.43c.79-.37,1.86-.77,2.31-.94l.16-.06c2.52-.99,4.4-2.17,5.33-4.7.2-.56.21-1.11.03-1.83-.04-.14-.08-.29-.12-.43-.05-.16-.09-.32-.13-.47-.08-.29-.19-.7-.04-1.19.36-1.16.77-2.14,1.16-3.09.8-1.93,1.5-3.59,1.44-6.04-.02-.94-.38-2.19-.73-3.41l-.17-.59c-.3-1.07-.62-2.18-.38-3.19.57-2.43,2.36-3.61,4.15-4.61.36-.2.72-.4,1.08-.59,1.73-.94,3.37-1.82,4.38-3.13.05-.06.07-.12.08-.2-.01-.03-.1-.4-.14-.52-1.41-3.5-3.77-7.86-5.85-9.64-.04-.03-.09-.06-.14-.07-.65-.16-1.64.04-2.78.55-.41.18-.83.4-1.24.62-.93.49-1.81.96-2.66,1.08-2.49.35-6.16-.3-8.7-.82-1.96-.4-3.07-1.58-4.04-2.61l-.37-.39c-.96-1-1.83-1.75-2.96-2.18-.59-.23-1.39-.07-2.44.49l-.28.15c-.35.19-.71.38-1.07.52-.27.11-.79.31-1.39.09l-.62-.23-.09-.65c-.02-.14-.04-.34-.03-.49,0-.35.06-.8.16-1.37.1-.54.23-1.12.37-1.69.16-.68.32-1.37.42-1.99.19-1.2.07-1.83-.01-2.11-.33-1.02-1.32-2.49-2.04-3.51l-.77-1.07c-1.16-1.6-2.48-3.41-3.27-5.15-.5-1.09-.95-2.36-.53-3.59.24-.71.76-1.29,1.6-1.77,1.61-.92,3.44-1.13,5.2-1.34l.38-.04c2.23-.27,4.21-.57,5.89-1.57,1.03-.61,1.88-1.61,2.78-2.67l.56-.66c.74-.85,1.85-2.13,3.65-2.44,2.51-.43,5.22.93,8.09,2.37l.46.23c3.06,1.54,6.22,3.13,8.72,3.19,1.71.05,3.4-.2,5.19-.46l.79-.11c1.93-.27,3.82-.48,5.8-.17,2.27.36,5.23,1.33,8.09,2.26,2.6.85,5.3,1.73,6.65,1.83,4.62.34,9.31-.06,13.85-.45,3.7-.32,7.53-.64,11.35-.58,3,.05,6.16.74,9.22,1.41,2.06.45,4.19.92,6.17,1.16,1.4.17,2.47,1.02,3.43,1.9.49.46.97.95,1.43,1.44.56.58,1.09,1.14,1.61,1.58,1.8,1.54,6.76,4.06,9.15,4.65.72.18,1.58.42,2.5.69,1.67.48,3.57,1.02,5.38,1.38,2.18.43,3.98.49,5.21.2,1.09-.26,1.81-.91,2.56-1.8.1-.12.19-.24.29-.36.61-.78,1.44-1.85,3.18-1.91,2.8-.1,4.32,1.01,5.43,2.11.41.4.81.84,1.22,1.29.51.56,1.04,1.14,1.63,1.7.05.05.27.23.74.36.37.1.88.16,1.28.21.2.02.37.04.5.06,1,.16,1.92.52,2.8.86l.26.1c1.04.4,2.14.8,3.19.9,1.06.11,4.1-.52,6.79-1.06,1.51-.31,3.02-.61,4.3-.82.82-.13,1.75-.2,2.23-.22l.91-.05.22.89c.07.27.16.72.19,1.07.06.79.05,1.63.04,2.38-.01.64-.02,1.31.03,1.61.08.43.27.9.43,1.26l.11.24c.18.37.4.84.42,1.4.05,1.58-1.03,2.7-1.98,3.51-1.5,1.27-3.41,2.22-4.94,2.99-.41.21-.79.39-1.11.57-2.17,1.16-4.07,2.79-6.07,4.52l-.52.45c-2.18,1.87-4.18,3.5-6.65,4.51-1.11.46-2.45.68-3.86.92-.98.16-1.98.33-2.89.58-1.88.52-3.14,1.29-3.87,2.36-.4.59-.62,1.36-.73,2.48-.02.23-.03.47-.05.71-.05.9-.1,1.92-.66,2.82-1.25,2.02-2.71,4.05-4.26,6.2-1.34,1.86-2.72,3.79-3.99,5.74-3.34,5.15-5.08,9.38-5.48,13.3-.21,2.13,1.2,6.07,2.56,8.05.08.11.59.67,1.93,1.99l.55.55-.33.7c-.47,1.01-1.27,1.82-1.97,2.5-.4.38-.81.75-1.22,1.12-.69.62-1.34,1.2-1.85,1.78-1.9,2.17-3.92,6.27-5.26,8.98-.44.9-.57,2.26-.68,3.57l-.03.29c-.05.6-.12,1.24-.28,1.83-.12.44-.28.9-.68,1.28-.72.7-1.68,1-2.46,1.24l-.75.23c-.78.23-1.52.46-2.12.75-2.6,1.27-5.4,3.24-7.67,5.41-1.59,1.52-2.21,3.49-2.86,5.58l-.12.37c-.52,1.66-1.17,3.72-3.34,4.94-.58.33-1.18.22-1.58.15-.72-.13-1.46-.42-2.09-.68l-.42-.17c-1.43-.59-2.92-1.2-3.83-1.17-.56.02-1.15.18-1.95.55-.14.06-.27.13-.41.2-.59.3-1.33.67-2.23.68-2.09,0-4.23-.09-6.3-.19-4.69-.23-9.55-.46-14.2.64-.85.24-12.44,4.63-13.17,4.98-1.69,1.18-2.42,2.68-3.06,4.01l-.15.31c-.28.61-.6,1.3-1.32,1.73-.43.26-.9.36-1.43.36ZM78.33,200.66c.07,0,.35.15,1.04.4.51.19,1.08.32,1.68.45.28.06.56.13.84.2,1.23.31,1.64.28,1.77.2.14-.09.3-.42.46-.77l.16-.35c.69-1.41,1.63-3.35,3.89-4.92.67-.46,13.72-5.23,13.82-5.25,4.95-1.16,9.96-.92,14.81-.69,2.03.1,4.11.2,6.18.19.38,0,.78-.2,1.24-.44.16-.08.32-.16.48-.24.72-.34,1.7-.73,2.81-.76,1.4-.04,3.09.66,4.73,1.34l.42.17c.53.22,1.14.46,1.65.55.07.01.14.03.21.04,1.23-.74,1.68-1.92,2.21-3.62l.12-.37c.67-2.15,1.44-4.6,3.44-6.51,2.42-2.31,5.42-4.42,8.22-5.79.76-.37,1.62-.63,2.46-.88l.72-.22c.7-.22,1.27-.42,1.6-.73,0,0,.03-.07.08-.27.12-.42.17-.94.21-1.44l.03-.29c.14-1.51.27-3.08.89-4.32,1.4-2.84,3.5-7.1,5.59-9.48.59-.68,1.33-1.34,2.04-1.97.39-.35.79-.7,1.17-1.07.45-.43.82-.82,1.11-1.2-1.32-1.32-1.51-1.59-1.58-1.69-1.39-2.02-3.23-6.57-2.94-9.52.43-4.28,2.28-8.82,5.82-14.28,1.29-1.99,2.69-3.94,4.05-5.83,1.52-2.12,2.96-4.12,4.18-6.08.26-.42.29-1.08.33-1.77.01-.27.03-.54.05-.81.09-.94.3-2.33,1.1-3.5,1.03-1.53,2.7-2.59,5.11-3.25,1.02-.28,2.08-.46,3.11-.63,1.29-.22,2.5-.42,3.39-.78,2.16-.88,4.02-2.4,6.05-4.14l.52-.45c2.01-1.73,4.09-3.52,6.47-4.8.34-.18.73-.38,1.16-.59,1.43-.71,3.2-1.6,4.5-2.7.85-.72,1.22-1.26,1.21-1.75,0-.09-.12-.34-.21-.52l-.14-.3c-.21-.48-.47-1.11-.59-1.78-.09-.5-.08-1.21-.06-2.02.01-.64.02-1.35-.02-1.99-.33.03-.68.07-1.01.12-1.25.21-2.73.51-4.22.81-3.11.63-6.05,1.23-7.44,1.1-1.33-.13-2.59-.58-3.77-1.04l-.27-.1c-.82-.32-1.59-.62-2.35-.74-.11-.02-.25-.03-.41-.05-.45-.05-1.07-.13-1.6-.27-.66-.18-1.24-.48-1.65-.87-.66-.62-1.22-1.24-1.76-1.83-.38-.42-.75-.83-1.13-1.2-.97-.96-1.95-1.54-3.81-1.48-.68.02-.97.36-1.52,1.06-.11.14-.22.29-.34.42-.85,1.01-1.95,2.09-3.73,2.52-1.55.37-3.62.31-6.15-.18-1.9-.37-3.85-.93-5.56-1.42-.9-.26-1.73-.5-2.43-.67-2.73-.68-7.99-3.35-10.05-5.11-.6-.52-1.2-1.13-1.77-1.73-.44-.46-.88-.92-1.35-1.35-.79-.73-1.46-1.24-2.2-1.33-2.09-.26-4.27-.73-6.37-1.19-2.96-.65-6.01-1.32-8.79-1.36-3.7-.06-7.48.26-11.12.57-4.62.39-9.4.8-14.2.45-1.62-.12-4.19-.96-7.17-1.94-2.78-.91-5.66-1.85-7.75-2.18-1.68-.27-3.4-.07-5.16.18l-.78.11c-1.8.26-3.66.52-5.55.48-2.99-.07-6.38-1.78-9.65-3.43l-.45-.23c-2.54-1.28-4.93-2.48-6.73-2.17-.96.16-1.61.84-2.37,1.71l-.55.64c-.98,1.15-1.99,2.34-3.33,3.14-2.04,1.21-4.36,1.57-6.75,1.86l-.38.05c-1.62.19-3.15.37-4.37,1.07-.23.13-.53.34-.6.56-.17.51.15,1.32.45,1.97.7,1.53,1.9,3.18,3.05,4.77l.78,1.09c1.3,1.83,2.02,3.1,2.34,4.12.26.81.28,1.86.09,3.11-.11.68-.28,1.41-.44,2.15-.1.43-.2.86-.28,1.28l.06-.03c1.64-.87,3.03-1.07,4.25-.6,1.6.61,2.76,1.67,3.76,2.71l.39.41c.86.91,1.6,1.7,2.88,1.97,1.37.28,5.56,1.14,7.95.8.47-.07,1.22-.46,1.95-.84.45-.24.91-.48,1.36-.68,1.63-.73,3.04-.96,4.2-.68.38.09.75.28,1.05.53,3.26,2.79,5.97,9.26,6.48,10.53.01.02.32.93.28,1.47-.04.52-.22.99-.54,1.39-1.29,1.66-3.21,2.7-5.07,3.71-.35.19-.7.38-1.05.58-1.47.82-2.72,1.63-3.08,3.19-.11.46.13,1.29.36,2.09l.17.58c.39,1.35.79,2.75.82,3.97.07,2.92-.75,4.87-1.61,6.94-.36.87-.74,1.77-1.05,2.78l.03.11c.03.13.07.27.11.4.05.17.1.34.15.52.18.73.37,1.84-.1,3.13-1.29,3.49-3.93,4.94-6.6,5.99l-.19.07c-.25.09-.7.26-1.19.46.49,1.04,1.1,2.04,1.75,3.07.24.38.47.76.7,1.14,1.44,2.4,2.78,5.1,2.78,8.51,0,1.89-.79,3.61-1.54,5.06l-.2.38c-.43.84-.85,1.63-.98,2.42l.05.08c.16.25.35.5.54.75.16.22.33.44.49.66.95,1.36,1.36,2.65,1.25,3.93-.13,1.41-.85,2.66-2.14,3.74-.48.4-1.01.74-1.52,1.06-.56.36-1.09.69-1.42,1.03-.91.92-1.76,3.22-2.02,5.46-.21,1.81.01,2.71.25,3.15,0-.01.05.01.15.06.39.17.89.28,1.34.36.41.07.83.14,1.24.2,1.16.18,2.25.34,3.14.7,3.5,1.42,5.97,4.46,8.15,7.14,1,1.23,4.53,6.36,5.09,7.95.68,1.93.45,3.5.27,4.76l-.06.35c-.02.11-.04.26-.04.31,0,0,0-.01.02-.01Z"/>
  <text class="cls-3" transform="translate(33.03 66.8) rotate(42.98)"><tspan x="0" y="0">ESPANHA</tspan></text>
</svg>