<?xml version="1.0" encoding="UTF-8"?>
<svg id="Layer_1" data-name="Layer 1" xmlns="http://www.w3.org/2000/svg" xmlns:xlink="http://www.w3.org/1999/xlink" viewBox="0 0 307.19 498.64">
  <defs>
    <style>
      .cls-1 {
        fill: #3f0a25;
      }

      .cls-2 {
        fill: #c7ae9a;
        filter: url(#drop-shadow-9);
      }

      .cls-3 {
        fill: #f7f9ea;
      }
    </style>
    <filter id="drop-shadow-9" x="0" y="0" width="307.19" height="498.64" filterUnits="userSpaceOnUse">
      <feOffset dx="4.4" dy="8.8"/>
      <feGaussianBlur result="blur" stdDeviation="8.8"/>
      <feFlood flood-color="#000" flood-opacity=".3"/>
      <feComposite in2="blur" operator="in"/>
      <feComposite in="SourceGraphic"/>
    </filter>
  </defs>
  <path class="cls-2" d="M16.66,498.64h26.53c0-9.33,7.57-16.91,16.9-16.91s16.9,7.57,16.9,16.91h15.62c0-9.33,7.56-16.91,16.9-16.91s16.9,7.57,16.9,16.91h15.62c0-9.33,7.57-16.91,16.9-16.91s16.9,7.57,16.9,16.91h15.62c0-9.33,7.57-16.91,16.9-16.91s16.9,7.57,16.9,16.91h15.62c0-9.33,7.57-16.91,16.9-16.91s16.9,7.57,16.9,16.91h15.85c1.31-8.04,8.26-14.18,16.67-14.18v-16.81c-9.34,0-16.9-7.57-16.9-16.9s7.57-16.9,16.9-16.9v-16.8c-9.34,0-16.9-7.57-16.9-16.91s7.57-16.89,16.9-16.89v-16.81c-9.34,0-16.9-7.57-16.9-16.9s7.57-16.9,16.9-16.9v-16.81c-9.34,0-16.9-7.57-16.9-16.91s7.57-16.9,16.9-16.9v-15.62c-9.33,0-16.9-7.57-16.9-16.9s7.57-16.9,16.9-16.9v-15.62c-9.33,0-16.9-7.56-16.9-16.9s7.57-16.9,16.9-16.9v-15.62c-9.33,0-16.9-7.57-16.9-16.9s7.57-16.9,16.9-16.9v-15.62c-9.33,0-16.9-7.57-16.9-16.9s7.57-16.9,16.9-16.9v-15.62c-9.33,0-16.9-7.57-16.9-16.9s7.57-16.9,16.9-16.9v-15.62c-9.33,0-16.9-7.57-16.9-16.9C290.29,1.59,290.37.79,290.48,0h-16c.11.79.19,1.59.19,2.4,0,9.33-7.57,16.9-16.9,16.9s-16.9-7.57-16.9-16.9C240.87,1.59,240.95.79,241.07,0h-16c.11.79.19,1.59.19,2.4,0,9.33-7.57,16.9-16.9,16.9s-16.9-7.57-16.9-16.9C191.45,1.59,191.53.79,191.64,0h-16c.11.79.19,1.59.19,2.4,0,9.33-7.57,16.9-16.9,16.9s-16.9-7.57-16.9-16.9C142.03,1.59,142.11.79,142.22,0h-16c.11.79.19,1.59.19,2.4,0,9.33-7.56,16.9-16.9,16.9s-16.9-7.57-16.9-16.9C92.61,1.59,92.69.79,92.8,0h-16c.12.79.19,1.59.19,2.4,0,9.33-7.57,16.9-16.9,16.9s-16.9-7.57-16.9-16.9C43.19,1.59,43.27.79,43.38,0h-26.66c.11.79.18,1.59.18,2.4,0,9.33-7.57,16.9-16.9,16.9v15.62c9.33,0,16.9,7.57,16.9,16.9s-7.57,16.9-16.9,16.9v15.62c9.33,0,16.9,7.56,16.9,16.9s-7.57,16.9-16.9,16.9v15.62c9.33,0,16.9,7.57,16.9,16.9s-7.57,16.9-16.9,16.9v15.62c9.33,0,16.9,7.57,16.9,16.9s-7.57,16.9-16.9,16.9v15.62c9.33,0,16.9,7.57,16.9,16.9s-7.57,16.9-16.9,16.9v15.62c9.33,0,16.9,7.57,16.9,16.9s-7.57,16.91-16.9,16.91v16.81c9.33,0,16.9,7.57,16.9,16.9s-7.57,16.9-16.9,16.9v16.81c9.33,0,16.9,7.57,16.9,16.89s-7.57,16.91-16.9,16.91v16.8c9.33,0,16.9,7.57,16.9,16.9s-7.57,16.9-16.9,16.9v16.81c8.4,0,15.36,6.14,16.66,14.18Z"/>
  <path class="cls-3" d="M275.23,459.79H31.96V38.85h243.27v420.93ZM34.16,457.59h238.87V41.06H34.16v416.53Z"/>
  <g>
    <path class="cls-1" d="M249.53,262.45c.01,3.35-.61,6.27-1.87,8.74-1.26,2.47-3.09,4.38-5.5,5.74-2.41,1.36-5.26,2.04-8.57,2.06l-25.15.11c-3.35.01-6.23-.65-8.62-1.98-2.39-1.34-4.23-3.23-5.51-5.69-1.28-2.46-1.93-5.37-1.94-8.72-.01-3.35.62-6.25,1.91-8.7s3.12-4.33,5.5-5.66c2.38-1.33,5.23-2,8.53-2.02l.03,6.86c-3.15.01-5.57.85-7.27,2.51-1.7,1.66-2.54,3.99-2.52,6.99.01,3,.86,5.35,2.55,7.04,1.68,1.7,4.1,2.54,7.25,2.52l25.23-.11c3.15-.01,5.57-.87,7.27-2.59,1.7-1.71,2.54-4.06,2.52-7.06-.01-3-.87-5.32-2.58-6.96-1.71-1.64-4.14-2.46-7.29-2.45l-.03-6.86c3.25-.01,6.09.63,8.51,1.95,2.42,1.31,4.28,3.18,5.59,5.62,1.31,2.43,1.97,5.33,1.98,8.68Z"/>
    <path class="cls-1" d="M248.65,234.71l-55.64.24-.03-6.86,23.78-.1-.08-17.84-23.78.1-.03-6.86,55.64-.24.03,6.86-25.61.11.08,17.84,25.61-.11.03,6.86Z"/>
    <path class="cls-1" d="M248.46,189.97l-6.25.03-.05-11.36-43.14.19.05,11.36-6.25.03-.13-29.73,6.25-.03.05,11.36,43.14-.19-.05-11.36,6.25-.03.13,29.73Z"/>
    <path class="cls-1" d="M248.27,145.38l-55.64.24-.03-6.86,49.39-.21-.11-25.15,6.25-.03.14,32.01Z"/>
    <path class="cls-1" d="M248.08,102.69l-55.64.24-.14-32.01,6.25-.03.11,25.23,17.23-.07-.1-22.56,6.17-.03.1,22.56,19.74-.09-.11-25.23,6.25-.03.14,32.01Z"/>
  </g>
  <path class="cls-3" d="M136.36,433.26c-2.22,0-4.51-1.49-6.35-2.69-1.02-.67-1.99-1.3-2.79-1.62-2.59-1.03-5.4-1.61-8.13-2.18-6.99-1.45-14.23-2.95-17.03-12.22-.73-2.43-.71-5.08-.69-7.64.02-3.02.04-5.86-1.1-8.17-1.06-2.13-2.95-3.36-4.94-4.67-1.69-1.1-3.45-2.24-4.77-4-.66-.87-.9-1.94-1.11-2.88-.13-.59-.26-1.14-.46-1.58-2.54-5.51-3.3-10.21-4.18-15.65l-.36-2.21c-.22-1.31-.75-2.54-1.3-3.84-.71-1.65-1.44-3.36-1.57-5.33-.24-3.51,1.18-6.8,2.56-9.98,1.07-2.48,2.09-4.83,2.36-7.24.24-2.12-.15-4.43-.57-6.88-.53-3.13-1.09-6.36-.23-9.28.58-1.99,1.89-3.64,3.15-5.24,1.22-1.55,2.38-3.01,2.68-4.55.52-2.64.67-5.5.82-8.53.38-7.53.81-16.06,7.88-21.81.35-.29.85-.33,1.24-.1.4.23.61.68.54,1.13-.76,4.78,1.2,8.38,3.27,12.2,1.61,2.96,3.28,6.03,3.68,9.74.37,3.43-.76,6.41-1.85,9.3-.52,1.36-1.05,2.78-1.4,4.2-.74,2.96-.93,5.92-1.13,9.06-.14,2.11-.28,4.29-.6,6.45-.93,6.16-4.17,11.88-7.3,17.41-1.42,2.5-2.76,4.86-3.88,7.25-1.3,2.75-3.4,7.2-1.89,9.83.57.99,1.9,2.08,2.91,2.4.11.03.48.05.72.06.93.04,1.89.09,2.43.77.99,1.26,1.26,2.63,1.5,3.84.14.7.27,1.36.52,1.98.91,2.26,3.53,4.14,5.49,5.06,1.97.93,4.07,1.18,6.29,1.45,1.97.24,4,.48,5.96,1.24,2.3.87,6.65,5.82,7.36,6.7,1.62,2.01,1.55,5.34,1.49,8.01-.01.61-.03,1.17-.02,1.67.11,5.17.49,11.09,2.47,15.77,1.14,2.69,4.49,3.77,6.92,4.35.19.05.48.08.82.12,1.54.19,2.76.39,3.44,1.15,1,1.13,2.05,4.2.43,5.8-1.02,1-2.13,1.39-3.26,1.39ZM99.64,288.65c-4.43,5.03-4.77,11.78-5.1,18.33-.16,3.11-.31,6.05-.86,8.85-.41,2.06-1.78,3.81-3.11,5.49-1.13,1.43-2.3,2.91-2.76,4.49-.71,2.43-.23,5.27.29,8.29.43,2.49.87,5.07.59,7.5-.31,2.74-1.44,5.34-2.53,7.86-1.33,3.08-2.59,5.98-2.38,8.96.11,1.6.74,3.07,1.4,4.62.59,1.37,1.19,2.78,1.45,4.34l.36,2.22c.89,5.5,1.6,9.85,4.01,15.09.3.65.46,1.35.61,2.02.18.8.35,1.55.72,2.04,1.09,1.44,2.6,2.43,4.21,3.48,2.16,1.41,4.39,2.86,5.71,5.53,1.37,2.77,1.35,6.02,1.32,9.16-.02,2.51-.04,4.88.6,6.99,2.42,8.02,8.42,9.27,15.37,10.7,2.81.58,5.72,1.19,8.49,2.29,1.01.4,2.06,1.09,3.18,1.82,3.08,2.01,5.22,3.2,6.87,1.58.44-.43.04-2.11-.54-2.77-.26-.21-1.52-.36-2.06-.43-.43-.05-.81-.1-1.06-.16-2.89-.69-6.91-2.03-8.44-5.63-2.12-5.02-2.53-11.2-2.65-16.58-.01-.53,0-1.13.02-1.77.05-2.19.12-5.2-1-6.58-1.43-1.77-5.04-5.5-6.43-6.02-1.71-.66-3.52-.87-5.44-1.11-2.29-.28-4.67-.56-6.96-1.64-2.43-1.14-5.44-3.38-6.6-6.22-.33-.82-.49-1.61-.64-2.38-.2-1.04-.38-1.95-.96-2.76-.22-.04-.66-.07-.91-.08-.47-.02-.91-.04-1.27-.15-1.53-.47-3.32-1.94-4.17-3.4-2.09-3.63.32-8.72,1.76-11.77,1.21-2.55,2.63-5.06,4-7.49,3.04-5.36,6.17-10.89,7.04-16.65.31-2.07.45-4.2.58-6.27.2-3.1.41-6.3,1.19-9.45.38-1.55.94-3.02,1.48-4.44,1.05-2.77,2.03-5.38,1.72-8.29-.35-3.28-1.84-6.02-3.43-8.92-1.76-3.24-3.57-6.57-3.7-10.68ZM82.66,300.23c-.24,0-.49-.03-.74-.08-.6-.13-1.2-.42-1.5-.59-2.42-1.28-1.86-3.67-1.49-5.25.13-.54.25-1.06.27-1.49.05-.98.32-2.92.6-4.98.26-1.94.54-3.95.59-4.85.08-1.49.64-2.76,1.19-3.99.12-.28.25-.56.36-.84.15-.36.48-.62.87-.67.39-.05.77.11,1.01.42.29.38,1.85,1.1,2.88,1.57,2.55,1.18,4.13,1.98,4.6,3.2.9,2.37-.88,6.98-2.78,11.51-.23.55-.42,1.01-.56,1.36-.64,1.63-2.69,4.67-5.3,4.67ZM83.41,280.31c-.41.94-.77,1.85-.82,2.8-.05.99-.32,2.95-.6,5.03-.26,1.93-.53,3.92-.58,4.81-.03.63-.18,1.26-.33,1.87-.43,1.82-.43,2.37.38,2.8.34.18.7.32.94.38,1.26.27,2.93-1.73,3.51-3.24.14-.36.34-.85.58-1.41,1.02-2.43,3.41-8.13,2.75-9.87-.25-.5-2.34-1.47-3.46-1.98-.89-.41-1.71-.79-2.38-1.18ZM96.58,278.31h-.03c-2.02,0-3.73-.82-5.06-2.4-5.8-6.89-3.32-27.05-.51-43.84.2-1.21.37-2.18.46-2.85,1-6.81,3.72-13.15,6.36-19.28,2.47-5.74,5.02-11.67,6.07-17.88.88-5.21-.05-10.8-.95-16.21-1-5.99-2.03-12.18-.71-18.08.78-3.46,2.56-6.67,4.28-9.78,2.16-3.88,4.19-7.55,4.36-11.56.15-3.72.1-8.86.05-14.83-.19-19.71-.45-46.7,6.31-55.78.2-.27.52-.44.86-.44.34,0,.66.15.88.41,4.88,6.09,6.73,12.5,8.52,18.71,1.2,4.14,2.43,8.43,4.57,12.62l.28.56c.83,1.67,1.97,3.96,3.51,4.01.31.01,1.41-.1,2.39-.2,4.28-.43,4.89-.41,5.42.12.23.24.36.62.32.95-.77,6.4-4.35,11.59-7.82,16.6-1.77,2.56-3.61,5.21-4.97,7.93-.34.89-8.01,24.72-8.39,26.32-1.77,7.46-4.19,20.97-4,27.66.09,3.34.84,6.67,1.56,9.89,1.04,4.66,2.12,9.48,1.35,14.59-.77,5.14-3.33,8.94-5.8,12.62-1.67,2.48-3.39,5.05-4.51,7.98-1.33,3.49-.71,6.87-.05,10.46.55,2.99,1.12,6.08.54,9.34-.63,3.55-2.51,6.57-4.33,9.48-1.71,2.73-3.32,5.32-3.97,8.3-.12.56-.2,1.5-.29,2.59-.36,4.49-.97,11.99-6.73,11.99ZM118.17,68.4c-5.49,9.68-5.24,35.71-5.07,53.19.06,5.99.11,11.17-.05,14.94-.19,4.53-2.45,8.6-4.63,12.54-1.65,2.97-3.36,6.04-4.06,9.19-1.23,5.48-.28,11.19.73,17.24.93,5.59,1.89,11.37.95,16.94-1.09,6.47-3.7,12.52-6.22,18.38-2.58,6-5.25,12.2-6.2,18.72-.1.68-.26,1.66-.47,2.89-1.45,8.67-5.87,35.07.02,42.06.91,1.08,2.02,1.61,3.39,1.62,3.47.08,4.14-4.92,4.55-9.97.1-1.17.18-2.18.33-2.88.73-3.35,2.52-6.22,4.25-8.99,1.79-2.86,3.47-5.57,4.03-8.7.51-2.86,0-5.63-.54-8.55-.69-3.73-1.4-7.58.15-11.64,1.21-3.16,3-5.84,4.74-8.42,2.45-3.64,4.75-7.08,5.45-11.72.7-4.71-.28-9.11-1.32-13.78-.74-3.33-1.51-6.77-1.61-10.31-.19-6.88,2.26-20.65,4.06-28.22.33-1.39,8.25-26.19,8.56-26.8,1.43-2.85,3.31-5.57,5.12-8.19,3.1-4.49,6.31-9.12,7.28-14.5-.93.05-2.31.19-3.17.27-1.37.14-2.23.22-2.67.21-2.86-.09-4.4-3.18-5.42-5.23l-.27-.54c-2.23-4.38-3.5-8.76-4.72-13.01-1.68-5.83-3.28-11.36-7.19-16.72Z"/>
</svg>