<?xml version="1.0" encoding="UTF-8"?>
<svg id="Layer_1" data-name="Layer 1" xmlns="http://www.w3.org/2000/svg" xmlns:xlink="http://www.w3.org/1999/xlink" viewBox="0 0 532.67 452.91">
  <defs>
    <style>
      .cls-1 {
        fill: #891a3d;
        filter: url(#drop-shadow-2);
      }

      .cls-2 {
        fill: #5b0718;
      }

      .cls-3 {
        fill: #f7f9ea;
      }
    </style>
    <filter id="drop-shadow-2" x="0" y="0" width="532.67" height="452.91" filterUnits="userSpaceOnUse">
      <feOffset dx="5.03" dy="10.05"/>
      <feGaussianBlur result="blur" stdDeviation="10.05"/>
      <feFlood flood-color="#000" flood-opacity=".75"/>
      <feComposite in2="blur" operator="in"/>
      <feComposite in="SourceGraphic"/>
    </filter>
  </defs>
  <path class="cls-1" d="M368.15,372.48c-12.05,47.61-53.71,80.37-102.03,80.43-47.99.06-90.67-32.3-102.27-80.93l-83.39-.45-.2-43.36C31.55,316.25-.32,273.3,0,225.42c.33-48.22,33.46-90.01,81.07-101.39l.28-43.87,83.45.08C176.65,32.16,218.92.07,266.53,0c47.96-.07,90.7,32.22,102.29,80.89l83.52.51-.02,43.88c47.57,11.66,80.3,53.65,80.36,101.78.05,47.95-32.04,90.71-80.89,102.31l-.47,43.46-83.16-.35Z"/>
  <g>
    <path class="cls-3" d="M277.55,266.95l.11-30.94-16.49-.05-.03,4.13,10.92.11-.08,21h-.75c-9.81-.12-18.59-3.94-24.72-10.75-6.07-6.74-8.88-15.7-7.91-25.22.85-8.3,4.64-15.87,10.69-21.31,5.97-5.37,13.79-8.36,22.08-8.45l.09-5.83c-9.29.02-18.25,3.28-25.23,9.2-7.11,6.02-11.8,14.47-13.21,23.79-1.66,10.95,1.04,21.55,7.59,29.83,6.59,8.33,16.36,13.43,27.5,14.35,1.51.12,3.06.18,5.03.19.99,0,2.01,0,3.08-.02h.06c.41,0,.82,0,1.24-.01Z"/>
    <path class="cls-3" d="M308.36,267.05h6.14s-.04-67.37-.04-67.37c0-3.2-1.08-5.64-3.3-7.46-5.34-4.38-12.83-4.55-18.22-.42-2.23,1.71-3.58,4.13-3.61,6.48l-.46,33.97-.11,34.78,5.99.02.4-47.8,13.07.08.13,47.72ZM295.55,198.63c.04-1.34.49-2.44,1.35-3.25,1.12-1.06,2.88-1.59,5.07-1.53,4.03.11,6.26,1.99,6.27,5.28l.03,15.99-13.07-.03.33-16.46Z"/>
    <path class="cls-3" d="M372.34,191.24h-3.65s-.2,60.29-.2,60.29h3.65c8.55.04,15.69-2.93,20.67-8.58,4.75-5.39,7.28-12.83,7.3-21.52.03-8.68-2.45-16.12-7.16-21.51-4.94-5.65-12.07-8.65-20.62-8.67ZM388.9,239.11c-3.55,4.39-8.41,6.81-14.07,6.99l-.77.03.16-49.47.77.03c5.65.22,10.5,2.66,14.02,7.07,3.58,4.48,5.46,10.58,5.44,17.64-.02,7.11-1.94,13.24-5.55,17.71Z"/>
    <polygon class="cls-3" points="431.02 196.11 431.03 191.43 410.46 191.36 410.28 245.37 430.86 245.44 430.87 240.75 415.85 240.71 415.93 213.62 426.07 213.65 426.09 209.07 415.95 209.04 415.99 196.06 431.02 196.11"/>
    <polygon class="cls-3" points="472.23 267.29 472.47 191.76 466.78 191.74 466.73 207.77 443.84 190.57 443.65 190.57 443.4 267.2 449.09 267.22 449.31 201.31 466.71 214.45 466.53 267.27 472.23 267.29"/>
    <path class="cls-3" d="M391.06,267.52c.45-.18.9-.35,1.34-.52,18.45-7.13,26.41-4.37,36.87,1.25l2.58-4.77c-5.09-2.74-10.25-5.2-16.68-5.93-7.06-.79-14.92.6-24.72,4.39-.45.18-.91.35-1.37.53-8.31,3.24-17.71,6.91-30.42,1.04-8.03-3.71-12.04-13.63-13.38-17.72l-.18-.53.47-.31c6.83-4.6,11.32-11.68,12.63-19.93.85-5.38.33-10.86-1.51-15.86-1.86-5.06-5.05-9.52-9.22-12.89-5.88-4.76-13.38-7.17-21.72-6.97l-.25,77.83,6.3.06.07-16.8.63-.09c.52-.08.82-.16,1.24-.28.23-.06.49-.14.84-.22.29-.07.58-.16.85-.27l4.75-1.84.25.72c4.61,13.14,11.97,18.19,15.95,20.03,5.24,2.42,10.31,3.61,15.5,3.62,1.37,0,2.77-.07,4.16-.24,5.69-.66,10.63-2.59,14.98-4.29h.03ZM332.77,243.8l-.89.17.16-48.3.9.2c11.22,2.53,18.98,11.95,19.32,23.44.35,12.09-7.66,22.16-19.49,24.49Z"/>
    <path class="cls-3" d="M67.25,266.08c9.26.03,15.83-3.93,19.06-11.48,3.18,7.57,9.72,11.57,18.98,11.6h1.25s4.6-76.04,4.6-76.04l-5.13-.02-4.31,70.99c-4.32-.45-7.6-2.48-9.77-6.03-2.02-3.31-3.03-7.83-3.01-13.44l.17-51.57-5.13-.02-.17,51.57c-.02,5.61-1.06,10.12-3.1,13.42-2.19,3.54-5.49,5.55-9.81,5.97l-3.85-71.01-5.13-.02,4.1,76.07h1.25Z"/>
    <rect class="cls-3" x="86.88" y="225.68" width="76.06" height="5.13" transform="translate(-103.74 352.4) rotate(-89.81)"/>
    <polygon class="cls-3" points="145.49 198.4 161.81 210.62 161.63 266.39 166.76 266.41 167.01 190.35 161.88 190.33 161.83 204.43 141.48 189.19 140.39 189.19 140.14 266.32 145.27 266.34 145.49 198.4"/>
    <polygon class="cls-3" points="201.68 195.59 201.7 190.46 179.91 190.39 179.66 266.45 201.45 266.52 201.46 261.39 184.81 261.34 184.94 219.18 197.62 219.22 197.64 214.09 184.96 214.05 185.02 195.54 201.68 195.59"/>
  </g>
  <g>
    <path class="cls-2" d="M432.49,150.38h-2.71s.14-42.51.14-42.51l.02-.02-.02-.02v-2.95s-86.47-.28-86.47-.28l.02-6.17c.07-20.49-7.85-39.78-22.29-54.31-14.44-14.54-33.68-22.58-54.17-22.64-.09,0-.17,0-.26,0-42.17,0-76.56,34.25-76.7,76.46l-.02,6.17-86.84-.28v2.94s-.1.1-.1.1l.09.09-.14,42.37h-2.35c-20.51-.1-39.78,7.84-54.31,22.28-14.54,14.44-22.58,33.68-22.64,54.17-.14,42.3,34.16,76.82,76.46,76.96h2.28s-.14,42.51-.14,42.51l-.02.02.02.02v2.94s86.47.28,86.47.28l-.02,6.17c-.07,20.49,7.85,39.78,22.29,54.31,14.44,14.54,33.68,22.58,54.17,22.64h.26c42.18,0,76.57-34.24,76.7-76.46l.02-6.17,86.84.28v-2.94s.1-.1.1-.1l-.09-.09.14-42.37h2.78c.09,0,.17,0,.26,0,20.39,0,39.58-7.91,54.05-22.29,14.54-14.44,22.58-33.68,22.64-54.17.14-42.3-34.16-76.82-76.46-76.96ZM426.66,150.36l-20.16-.07.07-20.51,20.22-18.98-.13,39.56ZM425.23,107.99l-20.83,19.56-61.03-.2.06-19.63,81.8.27ZM193.17,97.94c.13-40.5,33.12-73.35,73.59-73.35.08,0,.16,0,.25,0,19.66.06,38.11,7.78,51.97,21.72,13.85,13.94,21.45,32.45,21.38,52.11l-.1,32.03h1.56,0l61.65.2-.06,19.62-274.1-.9.06-19.63,61.65.7h2.06l.1-32.52ZM189.96,126.84l-61.53-.2-20.7-19.69,82.3.27-.06,19.63ZM106.29,109.89l19.95,18.98-.07,20.51-20.01-.07.13-39.42ZM105.58,302.73l20.15.07-.07,20.51-20.22,18.98.13-39.56ZM107.01,345.1l20.83-19.56,61.03.2-.06,19.63-81.8-.27ZM339.08,355.15c-.06,19.66-7.78,38.11-21.72,51.97-13.94,13.85-32.48,21.52-52.11,21.38-19.66-.06-38.11-7.78-51.97-21.72-13.85-13.94-21.45-32.45-21.38-52.11l.1-31.54h-1.56,0l-61.65-.7.06-19.62,274.1.9-.06,19.63-61.65-.2h-2.06l-.1,32.02ZM342.29,326.24l61.53.2,20.7,19.69-82.3-.27.06-19.63ZM425.96,343.2l-19.95-18.98.07-20.51,20.01.07-.13,39.42ZM432.24,300.68h-.24l-331.8-1.09c-40.58-.13-73.48-33.26-73.35-73.83.13-40.5,33.12-73.35,73.59-73.35h.25l331.8,1.09c40.58.13,73.48,33.25,73.35,73.83-.13,40.5-33.12,73.35-73.59,73.35Z"/>
    <rect class="cls-2" x="224.66" y="89.32" width="3.12" height="31.82" transform="translate(120.25 331.11) rotate(-89.81)"/>
    <rect class="cls-2" x="305.69" y="89.59" width="3.12" height="31.82" transform="translate(200.74 412.4) rotate(-89.81)"/>
    <rect class="cls-2" x="250.16" y="61.86" width="32.51" height="3.12" transform="translate(202.13 329.63) rotate(-89.81)"/>
    <rect class="cls-2" x="236.2" y="60.54" width="3.12" height="31.82" transform="translate(15.2 189.78) rotate(-44.81)"/>
    <rect class="cls-2" x="279.5" y="73.75" width="32.51" height="3.12" transform="translate(32.91 230.4) rotate(-44.83)"/>
    <rect class="cls-2" x="304.89" y="331.4" width="3.12" height="31.82" transform="translate(-41.86 652.62) rotate(-89.81)"/>
    <rect class="cls-2" x="223.87" y="331.13" width="3.12" height="31.82" transform="translate(-122.35 571.33) rotate(-89.81)"/>
    <rect class="cls-2" x="250" y="387.57" width="32.51" height="3.12" transform="translate(-123.73 654.12) rotate(-89.81)"/>
    <rect class="cls-2" x="293.36" y="360.18" width="3.12" height="31.82" transform="translate(-179.37 317.14) rotate(-44.81)"/>
    <rect class="cls-2" x="220.67" y="375.68" width="32.51" height="3.12" transform="translate(-197.03 276.62) rotate(-44.82)"/>
  </g>
</svg>