<?xml version="1.0" encoding="UTF-8"?>
<svg id="Layer_1" data-name="Layer 1" xmlns="http://www.w3.org/2000/svg" xmlns:xlink="http://www.w3.org/1999/xlink" viewBox="0 0 411.38 253.43">
  <defs>
    <style>
      .cls-1 {
        fill: #891a3d;
        filter: url(#drop-shadow-3);
      }

      .cls-2 {
        fill: #5b0718;
      }

      .cls-3 {
        fill: #f7f9ea;
      }
    </style>
    <filter id="drop-shadow-3" x="0" y="0" width="411.38" height="253.43" filterUnits="userSpaceOnUse">
      <feOffset dx="4.4" dy="8.8"/>
      <feGaussianBlur result="blur" stdDeviation="8.8"/>
      <feFlood flood-color="#000" flood-opacity=".3"/>
      <feComposite in2="blur" operator="in"/>
      <feComposite in="SourceGraphic"/>
    </filter>
  </defs>
  <path class="cls-1" d="M411.38,239.69v-21.88c-7.7,0-13.94-6.24-13.94-13.94s6.25-13.94,13.94-13.94v-12.89c-7.7,0-13.94-6.24-13.94-13.94s6.25-13.94,13.94-13.94v-12.89c-7.7,0-13.94-6.24-13.94-13.94s6.25-13.94,13.94-13.94v-12.89c-7.7,0-13.94-6.24-13.94-13.94s6.25-13.94,13.94-13.94v-12.89c-7.7,0-13.94-6.24-13.94-13.94s6.25-13.94,13.94-13.94v-13.08C404.75,12.67,399.68,6.93,399.68,0h-13.86c0,7.7-6.25,13.94-13.94,13.94S357.93,7.7,357.93,0h-13.87c0,7.7-6.24,13.94-13.94,13.94S316.18,7.7,316.18,0h-13.86c0,7.7-6.25,13.94-13.94,13.94S274.42,7.7,274.42,0h-13.86c0,7.7-6.25,13.94-13.94,13.94S232.67,7.7,232.67,0h-12.89c0,7.7-6.24,13.94-13.94,13.94S191.9,7.7,191.9,0h-12.89c0,7.7-6.24,13.94-13.94,13.94S151.13,7.7,151.13,0h-12.89c0,7.7-6.24,13.94-13.94,13.94S110.36,7.7,110.36,0h-12.89c0,7.7-6.24,13.94-13.94,13.94S69.59,7.7,69.59,0h-12.89c0,7.7-6.24,13.94-13.94,13.94S28.81,7.7,28.81,0h-12.89c0,7.7-6.24,13.94-13.94,13.94C1.31,13.94.65,13.88,0,13.79v13.2c.65-.09,1.31-.16,1.98-.16,7.7,0,13.94,6.24,13.94,13.94s-6.25,13.94-13.94,13.94C1.31,54.71.65,54.65,0,54.56v13.2c.65-.09,1.31-.16,1.98-.16,7.7,0,13.94,6.24,13.94,13.94s-6.25,13.94-13.94,13.94C1.31,95.49.65,95.42,0,95.33v13.2c.65-.09,1.31-.16,1.98-.16,7.7,0,13.94,6.24,13.94,13.94s-6.25,13.94-13.94,13.94C1.31,136.26.65,136.2,0,136.1v13.2c.65-.09,1.31-.16,1.98-.16,7.7,0,13.94,6.24,13.94,13.94s-6.25,13.94-13.94,13.94C1.31,177.03.65,176.97,0,176.87v13.2c.65-.09,1.31-.15,1.98-.15,7.7,0,13.94,6.24,13.94,13.94s-6.25,13.94-13.94,13.94C1.31,217.8.65,217.74,0,217.65v22c.65-.09,1.31-.16,1.98-.16,7.7,0,13.94,6.24,13.94,13.94h12.89c0-7.7,6.24-13.94,13.94-13.94s13.94,6.24,13.94,13.94h12.89c0-7.7,6.24-13.94,13.94-13.94s13.94,6.24,13.94,13.94h12.89c0-7.7,6.24-13.94,13.94-13.94s13.94,6.24,13.94,13.94h12.89c0-7.7,6.24-13.94,13.94-13.94s13.94,6.24,13.94,13.94h12.89c0-7.7,6.24-13.94,13.94-13.94s13.94,6.24,13.94,13.94h12.89c0-7.7,6.25-13.94,13.94-13.94s13.94,6.24,13.94,13.94h13.86c0-7.7,6.25-13.94,13.94-13.94s13.94,6.24,13.94,13.94h13.86c0-7.7,6.24-13.94,13.94-13.94s13.94,6.24,13.94,13.94h13.87c0-7.7,6.24-13.94,13.94-13.94s13.94,6.24,13.94,13.94h13.86c0-6.94,5.07-12.67,11.7-13.75Z"/>
  <path class="cls-2" d="M382.9,225.9H28.48V26.28h354.43v199.62ZM30.68,223.7h350.03V28.48H30.68v195.21Z"/>
  <path class="cls-2" d="M321.38,203.21c-2.66,0-4.83-3.04-5.98-4.65-1.31-1.84-5.29-7.86-6.01-10.16-.43-1.35-.57-2.58-.71-3.77-.21-1.79-.39-3.34-1.52-5-1.69-2.49-3.84-2.33-7.22-1.85-1.13.16-2.31.32-3.51.34-1.5.01-2.97-.22-4.38-.45-1.43-.23-2.77-.45-4.14-.42h-.91c-1.88.03-4.19.05-5.48,1.07.02.31.22.95.35,1.39.45,1.51,1.02,3.4.04,4.87-.61.91-1.69,1.45-3.21,1.61-2.18.23-5.35-1.05-9.01-2.52-4.92-1.98-11.05-4.45-14.17-2.5-3.44,2.15-11.43,8.96-12.93,12.11-.29.62.2,2.04.6,3.19.57,1.64,1.16,3.33.32,4.56-.48.7-1.3,1.07-2.44,1.12-2.67.12-4.63-1.58-6.32-3.07l-.56-.49c-.6-.52-1.19-.97-1.76-1.4-1.84-1.4-3.58-2.72-4.63-5.43-.68-1.74-1.07-3.55-1.46-5.3-.9-4.12-1.68-7.68-5.74-9.66-1.05-.51-2.81,1.59-3.98,2.98-1.26,1.5-2.17,2.58-3.33,2.17-4.32-1.55-5.87-5.52-7.24-9.02-.44-1.12-.85-2.18-1.33-3.14-1.17-2.33-3.87-4.64-7.22-6.16-2.58-1.17-4.55-.24-6.84.83-2.15,1.01-4.59,2.15-7.71,1.5-5.58-1.17-11.83-4.95-17.35-8.29-1.79-1.08-3.48-2.11-5.09-3.01-.71-.4-1.88-.67-3.01-.94-1.6-.38-3.26-.76-4.27-1.63-.74-.64-.81-1.93-.84-3.97,0-.49,0-.92-.04-1.15-.25-1.6-1.54-3.12-2.73-4.42-.89-.97-2.14-1.91-3.46-2.9-2.61-1.96-5.31-3.99-6.25-6.91-1.49-4.63-1.77-10.79-2-16.22-.09-1.92-.17-3.77-.3-5.45-.11-1.35-.36-2.67-.64-4.07-.47-2.41-.96-4.9-.59-7.5.29-2.08,1.35-3.76,2.39-5.38.59-.93,1.15-1.81,1.55-2.74.68-1.58,1.03-3.24,1.4-5,.35-1.66.71-3.39,1.38-5.05.94-2.35,2.36-4.93,3.87-7.67,3.03-5.48,6.46-11.69,6.22-16.94-.01-.3.1-.59.3-.81.21-.22.51-.36.8-.34,2.36,0,5.46.82,6.44,3.14.2.48.29,1.08.38,1.77.05.32.13.89.24,1.37.35-.46.72-.99.88-1.25.23-.36.27-1.76.3-2.69.06-1.93.11-3.59,1.07-4.42.4-.34.91-.49,1.45-.41,4.5.59,9.13,2.6,13.61,4.54,1.95.85,3.79,1.64,5.57,2.31,7.42,2.76,17.27,5.6,29.3,8.45,2.79.66,5.7,1.07,8.52,1.47,2.8.4,5.69.81,8.52,1.47,2.06.48,4.08,1.12,6.03,1.73,2.87.91,5.58,1.76,8.48,2.19,3.32.48,6.54.49,9.58.02.27-.04.59-.2.93-.37.64-.31,1.44-.7,2.39-.58,1.63.2,2.46,1.36,3.13,2.29.34.47.65.91,1.01,1.15,1.46.98,5.1,1.61,8.32,2.16,2.67.46,5.18.89,6.78,1.54,1.27.51,2.37,1.28,3.43,2.02,1.05.73,2.03,1.42,3.14,1.85,1.44.57,2.93,1.04,4.36,1.49,3.66,1.16,7.45,2.36,10.81,5.23,2.4,2.05,2.21,3.16,1.5,5.71l-.06.21c-.15.56-.27,1.01-.36,1.37,1.3-.38,2.86-.75,4.15.16,2.19,1.54,3.17,4.53,2.89,8.87-.02.22-.06.52-.12.85s-.18,1.04-.16,1.42c4.76.97,7.7-1.84,10.79-4.81,1.24-1.19,2.53-2.43,3.92-3.36,1.07-.72,2.19-1.22,3.28-1.71,1.63-.73,3.18-1.42,4.31-2.75.74-.87,1.29-1.87,1.86-2.93.87-1.6,1.77-3.26,3.41-4.5,2.12-1.61,4.55-2.38,6.89-3.13,2.1-.67,4.08-1.3,5.8-2.49,1.32-.91,2.1-3.31,2.79-5.43.86-2.65,1.67-5.15,3.68-5.7,1.27-.35,2.69.19,4.35,1.64,1.51,1.32,2.64,3.1,3.36,4.32.28.47.66.98,1.05,1.52.99,1.35,2.11,2.88,2.33,4.42.55,3.92-2.82,6.09-6.09,8.2-2.89,1.86-5.62,3.61-5.75,6.38-.02.48,1.28,1.61,1.99,2.22,1.38,1.2,2.81,2.45,2.42,3.95-.36,1.34-1.94,2.13-3.34,2.82-.49.24-.95.47-1.21.65-1.12.8-2.4,1.51-3.63,2.2-3.28,1.83-6.38,3.57-7.23,6.98-.39,1.57-.52,3.16-.65,4.84-.14,1.74-.29,3.53-.74,5.32-.34,1.35-.84,2.67-1.32,3.96-.8,2.13-1.55,4.14-1.66,6.22-.05,1.03.35,2.14.77,3.32.73,2.03,1.56,4.33.06,6.64-1.9,2.92-5.68,4.83-9.01,6.51-1.21.61-2.35,1.19-3.31,1.76-2.26,1.36-4.17,3.99-5.79,6.34-4.58,6.67-1.84,12.48,1.34,19.19.84,1.77,1.71,3.61,2.44,5.49.17.43.36.89.56,1.37,1.64,3.93,4.11,9.88-1.37,12.73-.6.31-1.18.44-1.74.44ZM302.93,175.28c2.2,0,4.36.61,6.04,3.1,1.43,2.11,1.66,4.08,1.88,5.98.13,1.09.26,2.21.62,3.37.55,1.76,4.05,7.22,5.69,9.52,1.54,2.17,3.32,4.39,4.92,3.55,3.41-1.77,2.24-5.39.35-9.93-.21-.49-.4-.97-.58-1.41-.71-1.81-1.56-3.61-2.38-5.35-3.18-6.72-6.47-13.66-1.17-21.38,1.74-2.55,3.83-5.4,6.47-6.98,1.03-.62,2.21-1.21,3.45-1.84,3.09-1.56,6.58-3.32,8.16-5.74.91-1.4.35-2.93-.28-4.7-.48-1.33-.98-2.71-.9-4.18.13-2.42.97-4.68,1.79-6.88.48-1.29.93-2.5,1.25-3.73.41-1.61.54-3.23.68-4.95.14-1.7.28-3.45.71-5.19,1.08-4.34,4.91-6.48,8.29-8.37,1.23-.69,2.4-1.34,3.42-2.07.4-.29.94-.55,1.51-.84.61-.3,2.06-1.02,2.19-1.41-.08-.28-1.11-1.18-1.73-1.72-1.38-1.2-2.81-2.45-2.74-3.99.19-3.9,3.68-6.14,6.76-8.12,3.4-2.19,5.44-3.68,5.1-6.04-.14-1-1.09-2.29-1.92-3.43-.44-.6-.85-1.16-1.17-1.7-.64-1.1-1.65-2.68-2.92-3.79-1-.88-1.85-1.31-2.32-1.17-.87.24-1.56,2.37-2.18,4.26-.8,2.45-1.7,5.22-3.63,6.56-1.99,1.37-4.22,2.08-6.38,2.77-2.27.72-4.41,1.41-6.23,2.78-1.26.95-2.01,2.33-2.8,3.8-.61,1.12-1.23,2.27-2.12,3.31-1.46,1.71-3.3,2.53-5.09,3.33-1.05.47-2.04.91-2.95,1.52-1.23.83-2.39,1.94-3.62,3.12-3.28,3.15-7,6.73-13.11,5.3-1.81-.42-1.43-2.66-1.22-3.87.04-.25.08-.46.09-.62.15-2.42-.06-5.59-1.96-6.93-.52-.37-1.58-.05-2.52.23-.52.15-1.07.31-1.58.38-.36.05-.74-.09-.98-.37-.35-.4-.54-.62.44-4.16l.06-.21q.62-2.22-.81-3.44c-3.02-2.58-6.44-3.66-10.05-4.81-1.47-.47-2.99-.95-4.5-1.54-1.35-.53-2.49-1.33-3.6-2.1-1-.7-1.95-1.36-2.99-1.78-1.38-.56-3.78-.97-6.33-1.41-3.6-.62-7.33-1.26-9.18-2.51-.68-.46-1.15-1.11-1.57-1.69-.6-.83-.97-1.31-1.61-1.39-.31-.04-.7.15-1.15.37-.45.22-.97.48-1.57.57-3.25.5-6.7.5-10.24-.01-3.08-.45-6-1.37-8.83-2.27-1.91-.6-3.88-1.23-5.86-1.69-2.73-.63-5.58-1.04-8.33-1.43-2.86-.41-5.83-.83-8.71-1.51-12.11-2.87-22.06-5.74-29.56-8.52-1.84-.68-3.7-1.49-5.68-2.35-4.26-1.85-8.67-3.76-12.8-4.35-.19.52-.23,1.85-.25,2.68-.05,1.57-.09,2.93-.63,3.8-2.18,3.49-2.97,3.06-3.49,2.77-1.24-.69-1.48-2.38-1.67-3.74-.07-.47-.14-1.01-.23-1.22-.42-.99-1.86-1.54-3.32-1.73-.23,5.53-3.55,11.54-6.5,16.88-1.48,2.67-2.87,5.2-3.75,7.42-.6,1.49-.92,3.05-1.27,4.69-.38,1.79-.77,3.64-1.53,5.42-.47,1.09-1.1,2.09-1.72,3.05-.95,1.49-1.84,2.9-2.06,4.5-.31,2.23.12,4.44.57,6.78.27,1.4.56,2.85.67,4.32.13,1.7.22,3.57.3,5.52.23,5.29.5,11.29,1.9,15.64.72,2.25,3.14,4.06,5.47,5.82,1.41,1.06,2.73,2.06,3.76,3.17,1.41,1.54,2.94,3.36,3.28,5.56.05.34.06.84.07,1.46,0,.65.03,1.97.17,2.41.65.47,2.02.79,3.24,1.08,1.28.3,2.61.61,3.59,1.16,1.64.92,3.34,1.95,5.15,3.05,5.36,3.25,11.45,6.93,16.66,8.02,2.4.5,4.31-.39,6.32-1.34,2.42-1.14,5.17-2.43,8.68-.84,1.82.83,6.28,3.18,8.28,7.17.53,1.06.98,2.21,1.42,3.33,1.27,3.25,2.47,6.33,5.6,7.62.31-.28.84-.9,1.24-1.38,1.7-2.03,4.03-4.81,6.63-3.55,5.02,2.45,5.99,6.88,6.93,11.17.37,1.67.74,3.39,1.36,4.97.83,2.14,2.19,3.17,3.91,4.48.61.46,1.23.94,1.87,1.49l.58.51c1.52,1.34,2.98,2.6,4.78,2.52.51-.02.69-.13.71-.16.21-.31-.3-1.8-.58-2.6-.58-1.68-1.19-3.42-.51-4.86,1.87-3.93,10.47-10.98,13.75-13.03,4.07-2.54,10.49.05,16.16,2.33,3.25,1.31,6.33,2.55,7.96,2.37.58-.06,1.33-.22,1.61-.64.41-.61,0-1.95-.31-3.02-.41-1.37-.8-2.67.12-3.52,1.87-1.72,4.76-1.74,7.09-1.76h.88c1.57-.05,3.08.2,4.55.44,1.38.22,2.71.44,4.01.42,1.06-.01,2.16-.17,3.23-.31,1.07-.15,2.2-.31,3.31-.31Z"/>
  <g>
    <path class="cls-3" d="M117.56,198.04H51.37v-38.08h7.44v30.01h20.49v-26.84h7.34v26.84h23.48v-30.01h7.44v38.08Z"/>
    <path class="cls-3" d="M118.47,127.77c0,6.17-1.71,10.88-5.12,14.14-3.41,3.26-8.05,4.9-13.92,4.9h-48.06v-8.16h48.06c3.63,0,6.5-.89,8.61-2.67,2.12-1.78,3.17-4.52,3.17-8.21s-1.06-6.35-3.17-8.16-4.99-2.72-8.61-2.72h-48.06v-8.16h48.06c5.92,0,10.58,1.62,13.96,4.85,3.39,3.23,5.08,7.97,5.08,14.19Z"/>
    <path class="cls-3" d="M117.56,98.3l-66.19-17.23v-10.97l66.19-17.14v8.25l-17.59,4.35v20.04l17.59,4.35v8.34ZM93.08,83.97v-16.68l-20.4,5.08c-3.87.97-7.1,1.72-9.7,2.27-2.6.54-4.29.88-5.08,1,.79.12,2.48.45,5.08,1,2.6.54,5.8,1.3,9.61,2.27l20.49,5.08Z"/>
  </g>
</svg>