<?xml version="1.0" encoding="UTF-8"?>
<svg id="Layer_1" data-name="Layer 1" xmlns="http://www.w3.org/2000/svg" xmlns:xlink="http://www.w3.org/1999/xlink" viewBox="0 0 246.15 246.15">
  <defs>
    <style>
      .cls-1 {
        fill: #891a3d;
      }

      .cls-2 {
        fill: #3f0a25;
        filter: url(#drop-shadow-2);
      }

      .cls-3 {
        fill: #f7f9ea;
      }
    </style>
    <filter id="drop-shadow-2" x="0" y="0" width="246.15" height="246.15" filterUnits="userSpaceOnUse">
      <feOffset dx="4.4" dy="8.8"/>
      <feGaussianBlur result="blur" stdDeviation="8.8"/>
      <feFlood flood-color="#000" flood-opacity=".3"/>
      <feComposite in2="blur" operator="in"/>
      <feComposite in="SourceGraphic"/>
    </filter>
  </defs>
  <path class="cls-2" d="M246.15,232.17v-13.31c-7.72,0-13.99-6.26-13.99-13.99s6.27-13.99,13.99-13.99v-12.93c-7.72,0-13.99-6.26-13.99-13.98s6.27-13.99,13.99-13.99v-12.93c-7.72,0-13.99-6.26-13.99-13.99s6.27-13.99,13.99-13.99v-12.93c-7.72,0-13.99-6.26-13.99-13.99s6.27-13.99,13.99-13.99v-12.93c-7.72,0-13.99-6.26-13.99-13.98s6.27-13.99,13.99-13.99v-13.31c-7.7-.03-13.93-6.28-13.93-13.98h-12.93c0,7.72-6.26,13.99-13.99,13.99s-13.98-6.26-13.98-13.99h-12.93c0,7.72-6.27,13.99-13.99,13.99s-13.99-6.26-13.99-13.99h-12.92c0,7.72-6.26,13.99-13.99,13.99s-13.99-6.26-13.99-13.99h-12.93c0,7.72-6.27,13.99-13.99,13.99s-13.99-6.26-13.99-13.99h-12.93c0,7.72-6.26,13.99-13.99,13.99S27.73,7.72,27.73,0h-12.93c0,7.72-6.26,13.99-13.99,13.99-.27,0-.54-.03-.82-.04v13.39c.27-.02.54-.04.82-.04,7.72,0,13.99,6.26,13.99,13.99s-6.26,13.98-13.99,13.98c-.27,0-.54-.03-.82-.04v13.01c.27-.02.54-.04.82-.04,7.72,0,13.99,6.26,13.99,13.99s-6.26,13.99-13.99,13.99c-.27,0-.54-.03-.82-.04v13.01c.27-.01.54-.04.82-.04,7.72,0,13.99,6.26,13.99,13.99s-6.26,13.99-13.99,13.99c-.27,0-.54-.03-.82-.04v13.01c.27-.02.54-.04.82-.04,7.72,0,13.99,6.26,13.99,13.99s-6.26,13.98-13.99,13.98c-.27,0-.54-.03-.82-.04v13.01c.27-.02.54-.04.82-.04,7.72,0,13.99,6.26,13.99,13.99s-6.26,13.99-13.99,13.99c-.27,0-.54-.03-.82-.04v13.39c.27-.01.54-.04.82-.04,7.72,0,13.99,6.26,13.99,13.99h12.93c0-7.72,6.26-13.99,13.98-13.99s13.99,6.26,13.99,13.99h12.93c0-7.72,6.26-13.99,13.99-13.99s13.99,6.26,13.99,13.99h12.93c0-7.72,6.26-13.99,13.99-13.99s13.99,6.26,13.99,13.99h12.92c0-7.72,6.27-13.99,13.99-13.99s13.99,6.26,13.99,13.99h12.93c0-7.72,6.26-13.99,13.98-13.99s13.99,6.26,13.99,13.99h12.93c0-7.7,6.23-13.95,13.93-13.98Z"/>
  <path class="cls-1" d="M220.21,220.21H25.94V25.94h194.26v194.26ZM28.14,218.01h189.86V28.15H28.14v189.86Z"/>
  <path class="cls-1" d="M110.22,207.56c-3.29,0-6.88-.19-7.49-.83-1.67-1.77-1.75-5.41-1.85-9.26-.07-2.89-.14-5.87-.93-7.42-.84-1.65-2.09-1.88-4.24-2.15-1.29-.16-2.75-.35-4.11-1.1-1.46-.8-8.16-12.31-8.4-13.94-.41-2.75,1.61-4.52,3.4-6.08.99-.86,1.93-1.68,2.36-2.55,1.62-3.26,2.13-8.17,2.57-12.51.19-1.9.38-3.69.64-5.3.33-2.02-.42-4.24-1.22-6.59-.69-2.03-1.4-4.14-1.42-6.25-.04-4.62,1.14-8.89,2.28-13.03.64-2.31,1.3-4.69,1.71-7.06.25-1.44-.1-2.96-.48-4.56-.38-1.62-.77-3.3-.56-5.04.34-2.76,2.06-5.19,3.73-7.54,1.59-2.25,3.1-4.37,3.32-6.57.28-2.8-.2-5.57-.72-8.5-.76-4.33-1.55-8.81.3-13.48.44-1.5,1.07-2.89,1.67-4.24.69-1.53,1.34-2.98,1.73-4.54.26-1.02.28-2.13.3-3.31.03-1.77.06-3.6.91-5.29.72-1.43,1.79-2.51,2.83-3.56.84-.85,1.64-1.66,2.22-2.61.23-.37.4-.88.59-1.42.35-1,.74-2.14,1.65-2.9,2.33-1.96,5.34-1.35,8.01-.82.95.19,1.85.37,2.64.42.93.05,1.84-.07,2.81-.19,1.55-.2,3.15-.42,4.93.07,2.25.61,16.8,10.67,17.89,12.37.73,1.13-.24,2.48-1.36,4.04-.44.61-1.21,1.68-1.38,2.22.53.15,1.93.12,2.42.11.29,0,.53-.01.7,0,6.04.21,6.48-.11,10.36-4.42.65-.71,1.59-.29,2-.11.76.34,3.25,1.54,3.12,2.85-.56,5.7-4.97,9.26-9.24,12.71-3.22,2.61-6.56,5.3-8.01,8.83-1.7,4.13.32,10.96,2.09,16.99,1.62,5.49,3.01,10.23,1.77,12.99-2.29,5.1-7.02,5.76-11.6,6.4-3.4.48-6.61.93-8.84,3.11-.61.6-.56,1.54-.41,3.02.16,1.56.36,3.5-1.07,4.96-1.17,1.2-2.96,1.37-4.69,1.53-2.07.19-3.38.39-3.83,1.48.14.23.61.66.9.92.99.91,2.34,2.15,1.76,3.81-.53,1.49-1.5,2.69-2.44,3.84-.82,1.01-1.6,1.97-2.05,3.06-.28.67-.4,1.34-.53,2.04-.21,1.16-.45,2.48-1.47,3.74-.75.92-1.75,1.64-2.72,2.34-1.12.81-2.19,1.57-2.74,2.54.67,1.24,4.33,4.86,5.58,6.09,1.53,1.52,1.66,1.64,1.43,2.32-.77,2.36-3.1,5.56-5.57,8.96-3.75,5.15-8.41,11.57-7.15,14.86.3.79.95,1.49,1.62,2.22.84.9,1.78,1.93,2.23,3.32.5,1.57.63,3.28.76,4.94.2,2.57.39,5,1.84,6.71,1.42,1.67,3.63,2.55,5.77,3.31.16.06.63.09.94.12.98.08,1.9.15,2.3.94.21.43.18.92-.1,1.36-.5.8-1.7,1.22-4.15,1.47-.91.09-3.04.18-5.31.18ZM104.18,205.04c1.44.31,7.08.47,10.7.19-2.13-.8-4.26-1.8-5.81-3.63-1.91-2.25-2.13-5.16-2.35-7.96-.12-1.61-.24-3.12-.66-4.45-.3-.93-1-1.69-1.75-2.49-.79-.85-1.61-1.74-2.07-2.93-1.69-4.4,2.95-10.78,7.43-16.94,2.14-2.95,4.18-5.75,5.04-7.76-.18-.18-.4-.4-.66-.66-5.87-5.81-6.69-7.16-6.18-8.28.74-1.63,2.2-2.68,3.61-3.7.89-.64,1.74-1.25,2.3-1.95.66-.82.82-1.67,1.01-2.74.14-.76.29-1.61.66-2.5.58-1.39,1.49-2.51,2.37-3.6.86-1.06,1.68-2.06,2.08-3.19.1-.28-.73-1.04-1.17-1.45-.88-.81-1.98-1.82-1.54-3.13.89-2.62,3.59-2.88,5.75-3.08,1.33-.13,2.71-.25,3.32-.88.66-.68.62-1.66.46-3.2-.17-1.61-.36-3.43,1.06-4.82,2.75-2.68,6.47-3.21,10.07-3.71,4.35-.61,8.1-1.14,9.89-5.12.91-2.01-.51-6.82-1.88-11.46-1.88-6.38-4.01-13.61-2.02-18.45,1.67-4.05,5.22-6.92,8.66-9.7,3.97-3.21,7.72-6.24,8.38-10.78-.4-.31-1.16-.77-1.66-1.01-3.96,4.36-5.07,4.91-11.65,4.68-.14,0-.34,0-.58,0-1.83.03-3.42,0-4.22-.88-1.23-1.33.09-3.16,1.36-4.93.39-.54.95-1.33,1.14-1.75-1.88-1.92-14.79-10.79-16.46-11.26-1.35-.37-2.67-.19-4.07,0-1.03.14-2.1.28-3.23.21-.94-.06-1.91-.25-2.94-.46-2.28-.46-4.64-.93-6.15.34-.45.38-.71,1.14-.99,1.94-.22.62-.44,1.27-.79,1.84-.71,1.17-1.64,2.11-2.53,3.02-.96.97-1.86,1.89-2.42,3-.62,1.24-.65,2.74-.68,4.34-.02,1.25-.05,2.55-.36,3.81-.44,1.75-1.16,3.35-1.85,4.9-.61,1.36-1.18,2.64-1.58,4.01l-.03.1c-1.64,4.11-.94,8.1-.2,12.34.52,2.95,1.05,5.99.74,9.1-.28,2.78-2.03,5.24-3.71,7.62-1.58,2.23-3.07,4.33-3.34,6.54-.17,1.36.17,2.77.52,4.27.41,1.75.83,3.56.5,5.44-.43,2.47-1.11,4.91-1.76,7.27-1.1,3.99-2.24,8.11-2.2,12.42.01,1.75.64,3.6,1.31,5.56.85,2.5,1.72,5.08,1.31,7.65-.25,1.55-.43,3.31-.62,5.17-.46,4.53-.99,9.66-2.79,13.27-.63,1.26-1.77,2.26-2.88,3.23-1.81,1.58-2.89,2.64-2.67,4.1.32,1.4,6.32,11.49,7.37,12.39.9.49,2.04.64,3.24.79,2.12.27,4.52.57,5.93,3.34,1.02,1.99,1.09,5.09,1.17,8.37.07,2.97.15,6.31,1.1,7.62Z"/>
  <g>
    <path class="cls-3" d="M52.6,118.53l9.41-36.79,6.09-.03,9.67,36.71-4.58.02-2.46-9.76-11.13.05-2.37,9.78-4.63.02ZM60.5,104.9l9.26-.04-2.87-11.31c-.55-2.14-.97-3.94-1.28-5.38-.31-1.44-.5-2.38-.57-2.82-.06.44-.25,1.38-.54,2.82-.3,1.45-.71,3.23-1.24,5.34l-2.77,11.39Z"/>
    <path class="cls-3" d="M83.66,118.4l-.16-36.75,11.38-.05c2.18,0,4.1.43,5.75,1.31,1.65.88,2.93,2.11,3.84,3.68.91,1.57,1.37,3.42,1.38,5.53.01,2.48-.63,4.62-1.91,6.4-1.28,1.79-3.03,3.02-5.24,3.7l7.77,16.08-5.34.02-7.11-15.58-5.89.03.07,15.61-4.53.02ZM88.11,98.69l6.85-.03c1.88,0,3.39-.61,4.52-1.81,1.14-1.2,1.7-2.77,1.69-4.71,0-1.98-.59-3.55-1.73-4.72-1.14-1.17-2.66-1.75-4.54-1.74l-6.85.03.06,12.99Z"/>
    <path class="cls-3" d="M123.29,118.73c-2.22,0-4.14-.4-5.77-1.23-1.63-.83-2.9-2.04-3.79-3.63-.9-1.59-1.35-3.48-1.36-5.66l-.07-16.61c-.01-2.22.43-4.11,1.31-5.69.88-1.58,2.13-2.79,3.76-3.64,1.62-.85,3.54-1.27,5.76-1.28,2.21,0,4.13.41,5.74,1.26,1.61.85,2.86,2.06,3.74,3.63.88,1.57,1.32,3.45,1.33,5.63l-4.53.02c-.01-2.08-.56-3.68-1.66-4.8-1.09-1.12-2.63-1.68-4.61-1.67-1.98,0-3.53.57-4.65,1.68-1.12,1.11-1.68,2.71-1.67,4.79l.07,16.66c0,2.08.58,3.69,1.71,4.83,1.13,1.14,2.68,1.7,4.66,1.69,1.98,0,3.51-.59,4.6-1.73,1.09-1.15,1.62-2.76,1.62-4.84l-.02-4.53-7.45.03-.02-4.13,11.98-.05.04,8.66c0,2.15-.42,4.02-1.28,5.62-.87,1.6-2.1,2.83-3.71,3.69-1.61.86-3.52,1.3-5.73,1.31Z"/>
    <path class="cls-3" d="M141.96,118.15l-.16-36.75,21.14-.09.02,4.13-16.66.07.05,11.38,14.9-.06.02,4.08-14.9.06.06,13.04,16.66-.07.02,4.13-21.14.09Z"/>
    <path class="cls-3" d="M170.4,118.02l-.16-36.75,6.04-.03,11.36,31.41c-.07-.84-.15-1.87-.24-3.1-.09-1.22-.16-2.52-.22-3.88-.06-1.36-.09-2.64-.09-3.85l-.09-20.64,4.38-.02.16,36.75-6.04.03-11.31-31.42c.07.8.14,1.82.22,3.04.07,1.23.14,2.52.19,3.88s.09,2.66.09,3.9l.09,20.64-4.38.02Z"/>
    <path class="cls-3" d="M77.63,172.79l-.14-32.67-10.07.04-.02-4.13,24.67-.11.02,4.13-10.07.04.14,32.67-4.53.02Z"/>
    <path class="cls-3" d="M99.02,172.7l-.02-4.13,7.5-.03-.12-28.49-7.5.03-.02-4.13,19.63-.08.02,4.13-7.5.03.12,28.49,7.5-.03.02,4.13-19.63.08Z"/>
    <path class="cls-3" d="M127.22,172.58l-.16-36.75,6.04-.03,11.36,31.41c-.07-.84-.15-1.87-.24-3.1-.09-1.22-.16-2.52-.22-3.88-.06-1.36-.09-2.64-.09-3.85l-.09-20.64,4.38-.02.16,36.75-6.04.03-11.31-31.41c.07.8.14,1.82.21,3.04.07,1.23.14,2.52.19,3.88.06,1.36.09,2.66.09,3.9l.09,20.64-4.38.02Z"/>
    <path class="cls-3" d="M154.15,172.46l9.41-36.79,6.09-.03,9.67,36.71-4.58.02-2.46-9.76-11.13.05-2.37,9.78-4.63.02ZM162.04,158.84l9.26-.04-2.87-11.31c-.55-2.15-.97-3.94-1.28-5.38-.31-1.44-.5-2.38-.56-2.82-.07.44-.25,1.38-.54,2.82-.3,1.45-.71,3.23-1.24,5.34l-2.77,11.39Z"/>
  </g>
</svg>