<?xml version="1.0" encoding="UTF-8"?>
<svg id="Layer_1" data-name="Layer 1" xmlns="http://www.w3.org/2000/svg" xmlns:xlink="http://www.w3.org/1999/xlink" viewBox="0 0 510.1 393.46">
  <defs>
    <style>
      .cls-1 {
        fill: #c7ae9a;
      }

      .cls-2 {
        fill: #414417;
        filter: url(#drop-shadow-1);
      }

      .cls-3 {
        fill: #f7f9ea;
      }
    </style>
    <filter id="drop-shadow-1" x="0" y="0" width="510.1" height="393.46" filterUnits="userSpaceOnUse">
      <feOffset dx="5.03" dy="10.05"/>
      <feGaussianBlur result="blur" stdDeviation="10.05"/>
      <feFlood flood-color="#000" flood-opacity=".75"/>
      <feComposite in2="blur" operator="in"/>
      <feComposite in="SourceGraphic"/>
    </filter>
  </defs>
  <path class="cls-2" d="M510.1,52.58c-4.34.27-8.1,3.39-8.25,7.6-.17,4.44,3.39,8.22,8.23,8.32v14.49c-4.39-.03-8.07,3.36-8.22,7.54-.15,4.43,3.41,8.1,8.21,8.25v14.4c-4.57.19-8.2,3.49-8.21,7.87-.01,4.41,3.61,7.8,8.19,8.02l.04,14.42c-4.7.01-8.18,3.55-8.24,7.77s3.67,7.9,8.23,8.01v14.42c-4.3.08-8.05,3.35-8.22,7.49-.19,4.45,3.4,8.26,8.2,8.31l.04,14.49c-4.45-.02-8.09,3.39-8.25,7.55-.17,4.41,3.45,8.09,8.21,8.25l.02,14.44c-5.08-.45-8.13,3.25-8.07,7.91.06,4.59,3.09,8.33,8.07,7.85l-.02,14.52c-4.61,0-8.17,3.65-8.22,7.78-.05,4.38,3.51,7.8,8.22,7.9v14.57c-4.63.04-8.27,3.63-8.22,7.93.05,4.19,3.57,7.77,8.21,7.84l.05,14.5c-3.4-.26-6.32,1.22-7.53,4.54-.96,2.61-.66,5.59.75,8.02,1.37,2.36,3.87,3.37,6.77,3.14v14.54c-2.92-.14-5.29.81-6.7,3.1-1.5,2.42-1.74,5.32-.84,8,1.09,3.25,3.87,4.94,7.54,4.64v14.46c-4.64.27-7.9,3.38-8.2,7.96l-17.59.03c-.17-4.61-3.54-7.61-7.95-7.77s-8.5,2.9-8.55,7.76l-17.52.02c-.04-4.77-3.9-7.89-8.48-7.78-4.46.11-7.94,3.15-8.05,7.77h-17.43c-.1-4.35-3.34-7.51-7.76-7.75-4.69-.26-8.64,2.83-8.84,7.77l-17.53-.06c-.01-4.14-2.75-6.94-6.54-7.59-4.96-.86-9.78,2.16-9.84,7.61h-17.51c-.11-4.79-3.82-7.81-8.38-7.75s-8.14,3.08-8.09,7.75h-17.53c-.13-4.97-4.17-8.06-8.91-7.74-4.27.3-7.56,3.26-7.59,7.75h-17.58c.05-4.86-3.88-7.91-8.48-7.75-4.43.15-7.86,3.13-7.94,7.79l-17.58-.07c.01-4.42-3.19-7.3-7.32-7.69-4.89-.46-8.99,2.69-9.15,7.72h-17.43c-.2-5.13-4.36-8.2-9.2-7.7-4.13.43-7.33,3.29-7.25,7.69l-17.56.03c-.14-4.81-3.84-7.88-8.47-7.78-4.42.1-8.01,3.11-8.04,7.75h-17.51c-.07-5.05-4.15-8.06-8.91-7.73-4.28.3-7.5,3.21-7.62,7.75h-17.46c-.04-4.62-3.61-7.78-8.2-7.78-4.61,0-8.13,2.98-8.32,7.78l-17.51-.06c-.11-4.77-3.55-7.53-7.84-7.7-4.5-.18-8.47,2.49-8.56,7.67l-17.58.09c-.08-4.41-3.07-7.26-7.16-7.73-4.86-.55-9.29,2.56-9.3,7.72l-17.51-.04c-.25-4.67-3.83-7.62-8.31-7.94l.02-14.48c4.92-.02,8.25-3.57,8.17-8.03-.08-4.39-3.58-7.61-8.17-7.69L0,340.76c4.62-.07,8.15-3.36,8.21-7.79.05-4.51-3.36-7.94-8.17-7.93l.02-14.63c4.99,0,8.14-3.49,8.14-7.79,0-4.31-3.13-7.82-8.14-7.8v-14.67c5.03-.02,8.1-3.51,8.15-7.89.05-4.22-3.29-7.66-8.15-7.74L0,249.99c4.58-.05,8.06-3.26,8.19-7.64.14-4.63-3.4-8.05-8.18-8.12v-14.51c4.63-.06,8.17-3.35,8.2-7.75.03-4.5-3.41-7.98-8.17-7.93l-.02-14.61c4.73.05,8.15-3.37,8.2-7.82.05-4.5-3.57-7.85-8.21-7.84l.03-14.65c4.51.14,8.01-3.12,8.18-7.42s-3.11-8.17-8.16-8.19l-.04-14.56c4.54-.06,8.1-3.25,8.19-7.62.1-4.45-3.16-8.07-8.15-8.07l-.05-14.59c4.63.03,8.17-3.33,8.21-7.7.04-4.52-3.37-8-8.18-7.96v-14.65c4.94.07,8.12-3.45,8.18-7.74.06-4.45-3.46-7.88-8.17-7.87l-.02-14.63c4.71.05,8.24-3.35,8.2-7.85S4.69,22.44,0,22.47L.05,7.92C4.54,7.65,7.97,4.72,8.35.06L25.74,0c.16,4.33,3.29,7.48,7.67,7.76,4.74.3,8.76-2.64,8.9-7.71l17.46-.03c.16,4.4,3.28,7.53,7.74,7.74,4.75.22,8.74-2.75,8.78-7.73h17.5c.16,4.63,3.46,7.53,7.84,7.73,4.6.2,8.57-2.74,8.61-7.7l17.55-.04c.16,4.87,3.85,7.84,8.43,7.74,4.44-.1,7.99-3.02,8.09-7.7L161.72,0c.24,4.5,3.56,7.73,8.13,7.78,4.62.05,8.32-2.87,8.45-7.75l17.5-.02c.09,4.92,4.22,8.23,9.14,7.73,4.14-.42,7.23-3.26,7.38-7.71h17.44c.19,4.77,3.75,7.77,8.31,7.74,4.43-.03,8.14-2.9,8.17-7.74h17.52c.18,4.86,3.88,7.76,8.42,7.73,4.43-.04,8.05-3.03,8.07-7.71L297.73,0c.16,4.93,4.19,8.21,9.14,7.75,4.14-.39,7.29-3.22,7.39-7.71l17.51-.02c.05,5.1,4.49,8.38,9.54,7.67,3.98-.56,6.86-3.35,6.97-7.64l17.51-.02c.01,4.46,3.34,7.54,7.75,7.76,4.78.25,8.66-2.94,8.7-7.76h17.52c.2,4.69,3.49,7.56,7.9,7.75,4.63.2,8.55-2.79,8.57-7.73l17.54-.03c.03,5.42,4.88,8.47,9.83,7.64,3.86-.65,6.56-3.48,6.64-7.62l17.49-.03c.18,4.01,2.72,7.06,6.78,7.65,4.77.7,9.58-1.85,9.71-7.56L501.75,0c1.25,8.91,8.32,7.02,8.32,8.63v13.77c-4.9-.29-7.82,3.05-8.13,7.61-.29,4.32,3.01,8.27,6.88,8.12.47-.02,1.35.51,1.25.61l.02,13.83Z"/>
  <path class="cls-1" d="M483.82,196.66l.47-.28-.47-.78V23.84H26.27v118.59l-.61.36.61,1.03v54.87l-.62.37.62,1.03v169.54h168.29l.37.62,1.03-.62h287.84v-172.97ZM480.7,307.39l-99.43,59.12h-85.58l185.01-111.18v52.06ZM480.7,194.89l-285.59,171.62h-78.05l363.64-222.73v51.11ZM410.18,26.95L29.39,256.89v-56.44L316.6,27.86l-.55-.91h94.13ZM123.13,26.95L29.39,82.69V26.95h93.74ZM29.39,86.31l99.84-59.36h91.25L29.39,140.57v-54.25ZM29.39,144.19L226.58,26.95h85.49L29.39,196.82v-52.62ZM29.39,260.53L416.21,26.95h64.49v113.18L111.1,366.51H29.39v-105.98ZM480.7,198.53v53.17l-191.06,114.81h-88.47l279.54-167.98ZM387.37,366.51l93.33-55.49v55.49h-93.33Z"/>
  <g>
    <path class="cls-3" d="M280.01,222.51l-14.27-24.13-12.86,7.61,1.89,3.22,8.55-4.99,9.68,16.38-.59.34c-7.69,4.46-16.29,5.57-24.22,3.11-7.85-2.43-14.2-8.1-17.86-15.96-3.19-6.85-3.75-14.51-1.57-21.55,2.15-6.94,6.86-12.9,13.26-16.82l-2.64-4.58c-7.22,4.33-12.68,11.02-15.36,18.87-2.74,7.99-2.46,16.74.76,24.64,3.79,9.29,10.81,16.29,19.75,19.69,9,3.43,18.96,2.86,28.06-1.6,1.23-.6,2.46-1.28,4-2.19.77-.46,1.56-.94,2.39-1.44l.05-.03c.32-.19.64-.39.96-.59Z"/>
    <path class="cls-3" d="M304.04,208.29l4.77-2.85-31.29-52.4c-1.49-2.49-3.46-3.89-6.03-4.27-6.19-.93-12.1,2.41-14.37,8.13-.94,2.36-.87,4.87.2,6.71l15.41,26.65,16.05,27.12,4.67-2.76-21.87-37.39,10.21-6,22.25,37.08ZM262.32,160.99c-.6-1.06-.75-2.12-.46-3.16.38-1.34,1.5-2.57,3.24-3.54,3.19-1.78,5.8-1.36,7.33,1.2l7.45,12.43-10.19,6.04-7.38-12.97Z"/>
    <path class="cls-3" d="M318.65,119.6l-2.85,1.68,27.83,47.02,2.85-1.68c6.66-3.94,10.85-9.57,12.1-16.28,1.19-6.4-.29-13.36-4.3-20.14-4.01-6.77-9.38-11.41-15.56-13.42-6.46-2.1-13.4-1.13-20.07,2.82ZM353.75,149.18c-.72,5.06-3.39,9.2-7.7,11.97l-.59.38-22.83-38.57.61-.33c4.5-2.45,9.41-2.8,14.19-1.01,4.87,1.82,9.16,5.7,12.42,11.21,3.28,5.55,4.63,11.2,3.89,16.36Z"/>
    <polygon class="cls-3" points="366.58 96.17 364.42 92.51 348.37 102.01 373.3 144.13 389.34 134.63 387.18 130.98 375.46 137.91 362.96 116.79 370.87 112.11 368.76 108.54 360.85 113.22 354.86 103.1 366.58 96.17"/>
    <polygon class="cls-3" points="431.68 132.44 396.82 73.54 392.38 76.17 399.78 88.67 373.99 85.9 373.84 85.99 409.2 145.74 413.64 143.12 383.23 91.73 402.86 93.88 427.24 135.07 431.68 132.44"/>
    <path class="cls-3" d="M368.62,170.28c.27-.35.54-.69.8-1.03,11.05-14.11,18.53-15.66,29.27-16.14l-.2-4.91c-5.24.23-10.39.71-15.73,3.13-5.86,2.66-11.33,7.39-17.2,14.89-.27.35-.55.7-.82,1.05-4.96,6.38-10.57,13.6-23.19,14.92-7.98.84-15.69-5.02-18.64-7.58l-.38-.33.22-.46c3.18-6.75,3.39-14.34.58-21.37-1.83-4.58-4.78-8.61-8.53-11.64-3.8-3.07-8.35-5.06-13.16-5.76-6.79-.98-13.74.63-20.14,4.66l35.92,60.69,4.93-2.88-7.74-13.11.45-.37c.37-.3.56-.51.83-.79.15-.16.32-.34.55-.56.19-.19.37-.39.54-.6l2.85-3.63.53.44c9.69,8.09,17.76,8.6,21.71,8.18,5.2-.55,9.69-1.98,13.75-4.37,1.07-.63,2.12-1.34,3.13-2.11,4.12-3.15,7.07-6.94,9.67-10.29l.02-.02ZM312.25,178.87l-.61.55-22.29-37.67.8-.26c9.91-3.24,20.32.49,25.91,9.28,5.88,9.25,4.32,20.8-3.8,28.1Z"/>
    <path class="cls-3" d="M115.95,319.42c7.22-4.28,10.5-10.41,9.51-17.78,5.99,4.41,12.94,4.5,20.16.22l.98-.58-31.71-61.31-4,2.37,29.58,57.25c-3.57,1.65-7.07,1.6-10.4-.16-3.11-1.64-5.99-4.69-8.58-9.06l-23.8-40.21-4,2.37,23.8,40.21c2.59,4.37,3.87,8.37,3.82,11.88-.06,3.77-1.7,6.86-4.86,9.2l-35.95-53.48-4,2.37,38.49,57.3.98-.58Z"/>
    <rect class="cls-3" x="140.93" y="228.77" width="4.65" height="68.91" transform="translate(-114.09 109.66) rotate(-30.62)"/>
    <polygon class="cls-3" points="145.43 230.45 163.8 232.38 189.54 275.87 193.54 273.5 158.44 214.2 154.44 216.56 160.95 227.56 138.03 225.14 137.19 225.64 172.78 285.79 176.78 283.42 145.43 230.45"/>
    <polygon class="cls-3" points="187.86 202.19 185.49 198.19 168.5 208.24 203.6 267.55 220.59 257.49 218.22 253.49 205.23 261.18 185.78 228.31 195.66 222.46 193.29 218.46 183.41 224.31 174.87 209.87 187.86 202.19"/>
  </g>
</svg>