<?xml version="1.0" encoding="UTF-8"?>
<svg id="Layer_1" data-name="Layer 1" xmlns="http://www.w3.org/2000/svg" xmlns:xlink="http://www.w3.org/1999/xlink" viewBox="0 0 246.15 246.15">
  <defs>
    <style>
      .cls-1 {
        fill: #891a3d;
      }

      .cls-2 {
        fill: #f7f9ea;
      }

      .cls-3 {
        fill: #5b0718;
        filter: url(#drop-shadow-7);
      }
    </style>
    <filter id="drop-shadow-7" x="0" y="0" width="246.15" height="246.15" filterUnits="userSpaceOnUse">
      <feOffset dx="4.4" dy="8.8"/>
      <feGaussianBlur result="blur" stdDeviation="8.8"/>
      <feFlood flood-color="#000" flood-opacity=".3"/>
      <feComposite in2="blur" operator="in"/>
      <feComposite in="SourceGraphic"/>
    </filter>
  </defs>
  <path class="cls-3" d="M246.15,232.17v-13.31c-7.72,0-13.99-6.26-13.99-13.98s6.27-13.99,13.99-13.99v-12.93c-7.72,0-13.99-6.26-13.99-13.98s6.27-13.99,13.99-13.99v-12.93c-7.72,0-13.99-6.26-13.99-13.99s6.27-13.98,13.99-13.98v-12.93c-7.72,0-13.99-6.26-13.99-13.99s6.27-13.99,13.99-13.99v-12.93c-7.72,0-13.99-6.26-13.99-13.98s6.27-13.99,13.99-13.99v-13.31C238.45,13.95,232.22,7.71,232.22,0h-12.93c0,7.72-6.26,13.99-13.98,13.99S191.32,7.72,191.32,0h-12.93c0,7.72-6.26,13.99-13.99,13.99S150.43,7.72,150.43,0h-12.93c0,7.72-6.26,13.99-13.99,13.99S109.53,7.72,109.53,0h-12.93c0,7.72-6.26,13.99-13.99,13.99S68.63,7.72,68.63,0h-12.93c0,7.72-6.26,13.99-13.98,13.99S27.73,7.72,27.73,0h-12.93c0,7.72-6.26,13.99-13.99,13.99C.54,13.99.27,13.96,0,13.94v13.39c.27-.02.54-.04.82-.04,7.73,0,13.99,6.26,13.99,13.99s-6.26,13.98-13.99,13.98C.54,55.26.27,55.24,0,55.23v13.01c.27-.02.54-.04.82-.04,7.73,0,13.99,6.26,13.99,13.99s-6.26,13.99-13.99,13.99C.54,96.16.27,96.14,0,96.12v13.01c.27-.01.54-.04.82-.04,7.73,0,13.99,6.26,13.99,13.98s-6.26,13.99-13.99,13.99C.54,137.06.27,137.04,0,137.02v13.01c.27-.02.54-.04.82-.04,7.73,0,13.99,6.26,13.99,13.99s-6.26,13.98-13.99,13.98C.54,177.96.27,177.94,0,177.92v13.01c.27-.02.54-.04.82-.04,7.73,0,13.99,6.26,13.99,13.99s-6.26,13.98-13.99,13.98C.54,218.86.27,218.83,0,218.82v13.39c.27-.01.54-.04.82-.04,7.73,0,13.99,6.26,13.99,13.98h12.93c0-7.72,6.26-13.98,13.99-13.98s13.98,6.26,13.98,13.98h12.93c0-7.72,6.27-13.98,13.99-13.98s13.99,6.26,13.99,13.98h12.93c0-7.72,6.26-13.98,13.98-13.98s13.99,6.26,13.99,13.98h12.93c0-7.72,6.26-13.98,13.98-13.98s13.99,6.26,13.99,13.98h12.93c0-7.72,6.26-13.98,13.99-13.98s13.98,6.26,13.98,13.98h12.93c0-7.7,6.23-13.95,13.93-13.98Z"/>
  <path class="cls-1" d="M220.21,220.21H25.95V25.94h194.26v194.26ZM28.15,218.01h189.86V28.15H28.15v189.86Z"/>
  <path class="cls-1" d="M131.68,203.23c-1.83,0-3.11-.77-4.58-1.65-.83-.5-1.76-1.06-2.96-1.57-.85-.37-1.83-.49-2.87-.62-1.18-.15-2.41-.3-3.57-.83-1.31-.6-2.4-1.43-3.45-2.22-1.28-.97-2.5-1.89-4.02-2.36-2.4-.74-3.58.27-5.21,1.67-1.45,1.24-3.09,2.64-5.79,2.91-3.45.35-4.83-1.22-6.06-2.6-.77-.87-1.5-1.69-2.81-2.15-2.25-.79-4.25-1-6.03-1.19-4.43-.47-7.93-.85-9.84-9.36-.73-3.23,2.22-7.04,4.82-10.4,1.23-1.59,2.39-3.09,2.87-4.17,1.37-3.08.94-6.54.49-10.2-.33-2.7-.68-5.49-.25-8.17.22-1.39.93-2.62,1.62-3.82.79-1.37,1.53-2.67,1.35-3.92-.14-.98-.24-2.08-.34-3.23-.32-3.55-.69-7.57-2.47-9.96-1.17-1.58-2.73-2.88-4.24-4.15-3.55-2.98-7.22-6.05-5.68-12.43-2.6-1.77-3.62-3.78-4.52-5.58-.75-1.49-1.4-2.77-2.89-3.73-1.11-.72-11.77-5.5-12.82-5.75-.48-.11-1.3-.12-2.1-.13-1.79-.02-3.64-.05-4.76-1-.87-.74-.71-2.19-.51-4.02.07-.61.17-1.54.11-1.8-.2-.7-.83-1.34-1.5-2.02-.88-.89-1.88-1.9-2.06-3.32-.18-1.39,1.07-2.4,3.73-3.01,1.07-.24,2.19-.25,3.28-.25,1.18,0,2.3,0,3.19-.31.51-.17,1.01-.58,1.55-1.01.82-.66,1.75-1.41,3.01-1.56,3.66-.43,5.97,2.2,8.01,4.53.85.96,1.65,1.87,2.48,2.5,1.42.71,12.95.02,14.47-.9,1.38-1.12,1.46-9.77.39-11.56-.42-.71-1.01-1.37-1.64-2.07-1.1-1.23-2.24-2.5-2.68-4.26-.38-1.02.08-1.52.39-1.74,4.09-2.82,7.6-.07,10.7,2.36,3.06,2.4,5.96,4.67,9.71,3.11,1.44-.6,2.35-1.84,3.32-3.15.96-1.3,1.95-2.64,3.53-3.55,1.74-1.01,3.86-1.58,5.91-2.14,3.14-.85,6.11-1.65,7.76-3.84.34-.45.06-1.83-.14-2.84-.21-1.05-.41-2.04-.28-2.91.65-4.4,6.15-8.37,9.7-9.44,3.76-1.13,9.78-.33,12.75,2.66.96.97,1.27,2.2,1.53,3.29.26,1.04.48,1.94,1.19,2.55,1.01.86,2.29,1.46,3.65,2.08,1.3.6,2.65,1.22,3.8,2.13.96.75,1.44,1.74,1.87,2.62.34.69.65,1.35,1.17,1.81.82.73,1.91,1.06,3.06,1.41,1.09.33,2.22.68,3.25,1.39,1.14.79,2,1.81,2.82,2.79.85,1.01,1.65,1.96,2.69,2.58,2.15,1.28,4.51,1.42,7.01,1.58,1.86.11,3.78.23,5.67.83,1.89.6,3.36,1.59,4.79,2.55,1.71,1.16,3.32,2.25,5.59,2.58.57.08,1.91.17,3.32.27,6.18.42,6.77.54,7.04,1.53.57,2.08-.42,4.95-1.29,7.49-.4,1.17-.78,2.27-.94,3.11-.31,1.63-.35,3.34-.39,5.14-.08,3.37-.16,6.85-2.14,9.88-.8,1.22-2.16,1.77-3.48,2.31-1.27.51-2.47,1-3.1,2.01-.39.63-.49,1.45-.61,2.32-.15,1.19-.33,2.54-1.28,3.66-1.16,1.39-1.82,2.9-2.46,4.36-.55,1.27-1.12,2.58-2,3.73-.5.65-1.29,1.31-2.21,2.07-1.98,1.64-3.63,3.13-3.63,4.53.66-.33,1.65-.96,2.25-1.35.83-.53,1.48-.96,1.97-1.15,3.12-1.27,6.42-.31,8.83,2.54,2.54,3.01.79,5.4-.48,7.15-.73.99-1.41,1.93-1.55,2.97-.2,1.49.54,2.64,1.41,3.97.78,1.2,1.59,2.44,1.75,4.03.11,1.11-.59,1.98-1.15,2.68-.61.76-.88,1.16-.77,1.58.27,1.03.79,1.97,1.35,2.97.75,1.36,1.53,2.77,1.76,4.52.13,1.02-.04,2.11-.2,3.17-.23,1.49-.45,2.9.19,3.78.51.7,2.07,1.35,3.45,1.93,1.94.81,3.61,1.52,4.1,2.82.21.54.18,1.12-.08,1.67-1.3,2.74-3.59,4.7-5.8,6.6l-.88.76c-1.05.92-2.02,1.99-3.04,3.13-2.5,2.79-5.09,5.67-9.21,6.35-3.42.56-9.85-.53-12.16-3.53-.57-.74-.53-1.68-.51-2.44,0-.19.02-.47,0-.67-.78.11-2.34.55-3.24.81-1.25.35-2.05.57-2.52.62-1.43.13-2.6-.39-3.63-.85-1.22-.54-1.96-.84-2.87-.48-.99.38-2.24.81-3.63,1.28-4.51,1.53-10.68,3.62-12.43,6.07-1.31,1.82-.63,3.39.14,5.21.94,2.2,2.24,5.21-2.71,7.36-1.79.77-3.17,1.08-4.32,1.08ZM108.72,191.53c.65,0,1.36.1,2.15.35,1.9.58,3.33,1.66,4.71,2.71,1,.76,1.95,1.48,3.04,1.98.85.39,1.86.52,2.92.65,1.14.14,2.33.29,3.47.78,1.33.57,2.33,1.18,3.22,1.71,2.2,1.32,3.31,1.99,6.89.44,2.94-1.27,2.54-2.21,1.57-4.47-.82-1.91-1.94-4.52.09-7.36,2.16-3.02,8.46-5.16,13.52-6.87,1.35-.46,2.57-.87,3.53-1.25,1.81-.71,3.27-.05,4.56.52.9.4,1.67.75,2.53.67.3-.03,1.31-.31,2.13-.54,3.27-.92,4.47-1.19,5.22-.61.89.7.85,1.83.82,2.66-.01.31-.03.88.06,1.03,1.64,2.13,7.25,3.16,10.05,2.69,3.36-.56,5.58-3.03,7.93-5.65,1.02-1.14,2.07-2.31,3.23-3.32l.9-.78c2.04-1.75,4.14-3.55,5.24-5.87-.18-.37-1.87-1.08-2.88-1.51-1.72-.72-3.5-1.47-4.37-2.66-1.18-1.61-.87-3.63-.59-5.42.15-.95.29-1.84.19-2.55-.17-1.34-.82-2.5-1.5-3.74-.59-1.07-1.21-2.18-1.55-3.47-.41-1.54.51-2.68,1.19-3.52.29-.36.7-.86.67-1.08-.11-1.07-.74-2.03-1.4-3.06-.97-1.48-2.06-3.16-1.74-5.46.22-1.59,1.14-2.85,1.96-3.97,1.39-1.9,1.95-2.81.58-4.43-.85-1-3.16-3.2-6.32-1.92-.29.12-.99.57-1.6.96-2.09,1.35-3.43,2.16-4.46,1.84-.41-.13-.72-.42-.89-.81-1.33-3.23,1.82-5.84,4.13-7.75.78-.64,1.52-1.25,1.86-1.7.72-.94,1.21-2.08,1.73-3.28.67-1.53,1.42-3.27,2.79-4.9.53-.63.65-1.51.78-2.53.13-1.01.28-2.16.92-3.19,1-1.62,2.67-2.3,4.14-2.89,1.05-.43,2.04-.83,2.46-1.47,1.64-2.51,1.71-5.53,1.78-8.73.04-1.82.09-3.69.43-5.51.19-.99.59-2.16,1.02-3.41.65-1.88,1.43-4.17,1.33-5.66-1.07-.17-3.56-.34-5.15-.45-1.52-.1-2.83-.19-3.49-.29-2.77-.41-4.67-1.69-6.51-2.93-1.35-.91-2.62-1.77-4.21-2.27-1.64-.52-3.34-.62-5.15-.73-2.65-.16-5.4-.33-8-1.88-1.36-.81-2.32-1.95-3.25-3.05-.76-.91-1.49-1.77-2.39-2.39-.75-.52-1.67-.8-2.64-1.09-1.26-.39-2.7-.82-3.88-1.88-.84-.75-1.29-1.68-1.69-2.49-.37-.76-.68-1.41-1.24-1.84-.95-.74-2.12-1.29-3.37-1.86-1.43-.66-2.92-1.35-4.16-2.41-1.26-1.07-1.6-2.47-1.9-3.7-.23-.93-.42-1.73-.96-2.27-2.31-2.33-7.47-3.03-10.55-2.11-3,.9-7.66,4.33-8.15,7.65-.07.49.1,1.33.26,2.15.32,1.58.68,3.37-.26,4.61-2.11,2.78-5.58,3.72-8.94,4.63-2,.54-3.89,1.05-5.39,1.92-1.18.68-2,1.79-2.86,2.96-1.11,1.5-2.25,3.04-4.25,3.87-4.94,2.05-8.64-.85-11.91-3.41-3.06-2.4-5.14-3.85-7.51-2.62.36,1.11,1.21,2.06,2.11,3.06.67.75,1.37,1.52,1.9,2.42,1.39,2.35,1.7,12.3-.94,14.42-1.68,1.35-15.17,2.42-17.14.92-1.01-.76-1.92-1.8-2.8-2.8-1.85-2.1-3.6-4.09-6.1-3.79-.64.07-1.22.54-1.89,1.09-.63.51-1.34,1.08-2.22,1.38-1.23.41-2.58.42-3.88.43-1.02,0-1.97,0-2.8.2-1.2.28-1.79.59-2,.76.17.62.77,1.24,1.41,1.88.8.81,1.71,1.72,2.06,2.98.17.59.09,1.39-.05,2.63-.07.63-.19,1.74-.13,2.19.63.35,2.12.37,3.24.39.95.01,1.85.03,2.57.19,1.45.34,12.34,5.28,13.51,6.04,1.99,1.29,2.84,2.97,3.66,4.59.93,1.84,1.81,3.59,4.4,5.14.43.26.63.78.49,1.26-1.65,5.55,1.18,7.92,4.77,10.92,1.6,1.35,3.26,2.74,4.59,4.52,2.15,2.88,2.55,7.23,2.9,11.07.1,1.11.2,2.17.33,3.11.29,2-.73,3.77-1.62,5.33-.61,1.07-1.2,2.08-1.35,3.07-.38,2.37-.07,4.89.26,7.56.47,3.8.95,7.72-.66,11.36-.59,1.33-1.83,2.93-3.14,4.63-2.19,2.83-4.92,6.35-4.42,8.58,1.57,6.97,3.69,7.2,7.92,7.65,1.89.2,4.03.43,6.52,1.31,1.85.65,2.85,1.77,3.72,2.76,1.12,1.26,1.86,2.1,4.19,1.87,2.01-.2,3.26-1.27,4.57-2.39,1.36-1.16,2.86-2.45,5.14-2.45Z"/>
  <g>
    <path class="cls-2" d="M67.04,197.1l-28.24-30.02,17.66-16.61,3.17,3.37-14.05,13.21,9.39,9.98,12.98-12.21,3.17,3.37-12.89,12.13,12.52,13.31-3.7,3.48Z"/>
    <path class="cls-2" d="M90.53,175l-28.2-29.98,9.28-8.73c1.78-1.67,3.68-2.78,5.7-3.31,2.02-.54,4.01-.51,5.96.08,1.95.59,3.74,1.75,5.36,3.47,1.91,2.03,3.01,4.26,3.33,6.7.31,2.44-.18,4.79-1.47,7.03l18.65,7.23-4.35,4.09-17.73-7.32-4.8,4.52,11.98,12.73-3.7,3.48ZM79.12,155.47l5.59-5.25c1.53-1.44,2.31-3.09,2.33-4.93.02-1.85-.72-3.57-2.22-5.15-1.52-1.61-3.19-2.46-5.03-2.55-1.83-.08-3.52.6-5.05,2.04l-5.59,5.25,9.97,10.6Z"/>
    <path class="cls-2" d="M112.41,154.41l-20.4-37.32,4.97-4.67,35.96,22.68-3.74,3.52-9.47-6.11-9.08,8.54,5.52,9.82-3.78,3.55ZM108.47,137.22l7.56-7.11-10.99-7.08c-2.08-1.34-3.81-2.48-5.16-3.43-1.35-.95-2.23-1.57-2.62-1.88.28.41.85,1.32,1.71,2.73.86,1.41,1.88,3.18,3.07,5.32l6.43,11.44Z"/>
    <path class="cls-2" d="M137.67,130.65l-28.2-29.98,4.93-4.64,33.3,17.05c-.7-.63-1.55-1.42-2.56-2.35-1.01-.93-2.05-1.94-3.14-3.01-1.08-1.07-2.09-2.1-3.02-3.08l-15.84-16.84,3.57-3.36,28.2,29.98-4.93,4.64-33.26-17.09c.67.61,1.51,1.38,2.5,2.33,1,.95,2.03,1.96,3.12,3.03,1.09,1.07,2.1,2.11,3.06,3.13l15.84,16.84-3.57,3.36Z"/>
    <path class="cls-2" d="M170.46,100.58c-1.81,1.7-3.7,2.83-5.67,3.4-1.97.56-3.93.54-5.88-.08-1.95-.62-3.76-1.82-5.43-3.6l-12.75-13.55c-1.7-1.81-2.79-3.69-3.28-5.67-.48-1.97-.39-3.92.3-5.85.68-1.93,1.93-3.75,3.74-5.45,1.81-1.7,3.69-2.82,5.67-3.36s3.92-.5,5.84.12,3.72,1.82,5.39,3.6l-3.7,3.48c-1.6-1.7-3.27-2.58-5.03-2.67-1.75-.08-3.44.64-5.05,2.16-1.62,1.52-2.46,3.16-2.52,4.93-.07,1.77.7,3.5,2.3,5.2l12.79,13.59c1.6,1.7,3.28,2.57,5.06,2.63,1.78.05,3.48-.68,5.09-2.2,1.62-1.52,2.44-3.16,2.46-4.91.03-1.75-.76-3.48-2.36-5.18l3.7-3.48c1.65,1.75,2.73,3.61,3.24,5.58.51,1.97.44,3.92-.22,5.86-.66,1.93-1.89,3.75-3.7,5.45ZM174.05,112.14l-2.12-2.26,2.87-2.7c.6-.57.94-1.18,1.01-1.84.07-.66-.06-1.17-.39-1.53-.44-.47-1.2-.52-2.29-.17-1.09.35-2.32,1.17-3.69,2.46l-2.23-5.25,2.34-2.2,1.49,3.32c.79-.59,1.7-1.1,2.72-1.55,1.02-.45,2.03-.67,3.01-.67.98,0,1.81.36,2.48,1.07.87.93,1.18,2.16.91,3.68-.28,1.52-1.15,2.98-2.63,4.37l-3.49,3.28Z"/>
    <path class="cls-2" d="M183.25,87.77l-20.4-37.32,4.97-4.67,35.96,22.68-3.74,3.52-9.47-6.11-9.08,8.54,5.53,9.82-3.78,3.55ZM179.31,70.58l7.56-7.11-10.99-7.08c-2.09-1.34-3.81-2.48-5.16-3.43-1.35-.95-2.23-1.57-2.62-1.88.28.41.85,1.32,1.71,2.73.86,1.41,1.88,3.18,3.07,5.32l6.43,11.44Z"/>
  </g>
</svg>