<?xml version="1.0" encoding="UTF-8"?>
<svg id="Layer_1" data-name="Layer 1" xmlns="http://www.w3.org/2000/svg" viewBox="0 0 957.86 212.47">
  <defs>
    <style>
      .cls-1 {
        fill: #3f0a25;
      }

      .cls-2 {
        fill: #c7ae9a;
      }

      .cls-3 {
        fill: #5b0718;
      }

      .cls-4 {
        fill: #891a3d;
      }
    </style>
  </defs>
  <path class="cls-2" d="M57.39,208.03l-20.21-12.12-30-18.43c-.33-.2-.66-.39-.98-.58-.97-.56-1.96-1.14-2.97-2.05l-1.28-1.15,1.71-.21c6.22-.77,15.84,1.84,22.77,4.54l4.59,1.79,4.16-5.15,12.3-19.33,9.81-16.04,8.26-13.89c3.05-5.14,5.31-10.32,7.12-14.7l.06-.16c.32-.8.66-1.62,1.99-1.94.68-.16,1.3-.4,1.52-.57,1.19-.96,1.02-2.64.25-3.74-.78-1.13-1.51-2.07-2.37-3.14-6.47-8.13-9.26-18.51-7.64-28.46.89-5.5,3.14-10.86,7.06-16.87l16.44-21.62,21.11-27.34,44.02,26.93-6.77,14.87-3.74,7.75-.39-.17.35.22c-.03.06-.13.25-.38.79l-11.63,24.6c-1.46,3.12-2.84,6.07-4.6,9.08-3.02,5.16-6.49,9.18-10.59,12.28-8.71,6.58-19.86,8.84-30.57,6.21-1.77-.43-4.17-1.02-5.26.3-.56.68-.67,1.87-.46,2.63.43,1.54-.19,2.27-.84,3.05l-.21.25c-4.83,5.87-9.09,11.83-13.01,18.21l-16.51,26.86-8.22,13.94-4.53,9.42,6.92,6.19c2.76,2.47,4.98,5.18,7.33,8.05l.11.14.76,1.12c1.26,1.84,2.55,3.74,3.58,6.19l.93,2.21ZM5.96,174.93c.34.21.68.41,1.04.62.33.19.67.39,1.01.6l29.99,18.42,15.87,9.51c-.71-1.26-1.48-2.39-2.28-3.57l-.77-1.13c-2.33-2.84-4.51-5.5-7.18-7.89l-7.81-6.98,5.07-10.54,8.26-14.01,16.52-26.87c3.96-6.44,8.26-12.45,13.13-18.38l.22-.27c.58-.69.73-.87.53-1.61-.31-1.12-.21-2.87.76-4.05,1.71-2.1,4.8-1.34,6.84-.84,10.27,2.52,20.93.36,29.26-5.94,3.93-2.97,7.26-6.84,10.18-11.82,1.72-2.95,3.09-5.86,4.54-8.95l11.63-24.6c.16-.35.3-.63.43-.85h0s3.74-7.74,3.74-7.74l6.18-13.59-41.63-25.47-20.25,26.22-16.4,21.57c-3.77,5.77-5.94,10.94-6.8,16.22-1.54,9.52,1.13,19.44,7.32,27.23.87,1.09,1.62,2.06,2.43,3.22,1.18,1.68,1.38,4.31-.56,5.87-.56.44-1.58.74-2.14.87-.52.12-.6.27-.89,1l-.07.16c-1.83,4.44-4.12,9.68-7.23,14.91l-8.26,13.9-9.82,16.06-12.36,19.41-4.93,6.12-5.66-2.21c-6-2.34-14.1-4.59-19.9-4.58Z"/>
  <path class="cls-1" d="M102.01,105.65c-4.79.89-9.66.65-14.36-.64s-8.37-4.11-11.14-8c-2.62-3.67-4.43-7.74-5.4-12.12-.49-3.01-.92-5.85-.63-8.9.64-6.77,3.25-13.07,7.21-18.66l47.79,29.25c-3.49,6.98-8.44,12.5-15.25,16.27-2.7,1.17-5.31,2.24-8.22,2.79Z"/>
  <path class="cls-2" d="M190.29,210.51l-22.52-6.93-33.53-10.72c-.37-.12-.73-.22-1.09-.33-1.07-.31-2.18-.64-3.38-1.28l-1.52-.81,1.61-.61c5.85-2.23,15.82-1.99,23.19-1.03l4.88.64,2.8-6,7.33-21.71,5.69-17.92,4.69-15.46c1.74-5.72,2.69-11.29,3.4-15.98l.03-.17c.12-.85.25-1.73,1.46-2.36.62-.32,1.17-.69,1.34-.91.93-1.21.36-2.81-.65-3.69-1.04-.91-1.97-1.65-3.05-2.48-8.23-6.35-13.41-15.76-14.23-25.81-.45-5.56.45-11.3,2.83-18.07l10.79-24.92,13.97-31.59,49.18,15.63-3.02,16.06-1.78,8.42-.42-.07.4.13c-.02.07-.06.27-.18.86l-5.41,26.66c-.67,3.38-1.31,6.58-2.3,9.92-1.7,5.74-4.1,10.46-7.35,14.46-6.88,8.47-17.16,13.33-28.2,13.34-1.82,0-4.3,0-5.03,1.55-.38.79-.2,1.98.18,2.67.79,1.4.36,2.25-.09,3.16l-.14.29c-3.29,6.86-6,13.66-8.28,20.79l-9.61,30.03-4.64,15.5-2.14,10.22,8.2,4.36c3.27,1.74,6.08,3.84,9.04,6.07l.14.11,1,.91c1.66,1.49,3.38,3.03,4.96,5.16l1.43,1.93ZM132.43,190.67c.38.12.76.24,1.16.35.37.11.74.22,1.12.34l33.53,10.72,17.68,5.44c-.99-1.05-2.01-1.97-3.07-2.92l-1.01-.91c-2.94-2.2-5.69-4.27-8.86-5.95l-9.25-4.91,2.4-11.45,4.67-15.58,9.62-30.04c2.3-7.2,5.04-14.06,8.36-20.99l.15-.31c.4-.81.51-1.02.13-1.69-.57-1.02-.89-2.74-.23-4.12,1.16-2.45,4.34-2.45,6.44-2.45,10.57,0,20.41-4.66,26.99-12.76,3.11-3.83,5.42-8.38,7.06-13.91.97-3.28,1.6-6.44,2.27-9.78l5.41-26.66c.08-.38.14-.69.21-.93h0s1.78-8.41,1.78-8.41l2.76-14.67-46.51-14.78-13.39,30.3-10.77,24.87c-2.28,6.51-3.15,12.05-2.72,17.37.78,9.61,5.74,18.61,13.62,24.69,1.1.85,2.05,1.61,3.12,2.55,1.54,1.36,2.37,3.86.86,5.83-.43.57-1.36,1.09-1.87,1.35-.48.25-.51.4-.63,1.19l-.03.18c-.72,4.75-1.69,10.39-3.45,16.2l-4.7,15.47-5.7,17.94-7.36,21.8-3.33,7.12-6.02-.79c-6.38-.84-14.72-1.12-20.42.31Z"/>
  <path class="cls-4" d="M209.14,100.44c-4.44,2.01-9.23,2.94-14.09,2.81-4.83-.13-9.11-1.99-12.73-5.1-3.42-2.94-6.15-6.46-8.14-10.47-1.19-2.81-2.29-5.46-2.74-8.49-1-6.72.03-13.47,2.54-19.85l53.4,16.98c-1.72,7.61-5.21,14.16-10.92,19.45-2.34,1.78-4.62,3.45-7.32,4.67Z"/>
  <path class="cls-2" d="M301.44,209.32l-35.21-.06c-.36,0-.76,0-1.14.02-1.11.03-2.27.05-3.6-.19l-1.69-.32,1.35-1.07c4.9-3.9,14.47-6.69,21.79-8.01l4.85-.87.86-6.56.41-22.91v-18.8s-.22-16.15-.22-16.15c-.08-5.97-.85-11.57-1.6-16.26l-.03-.17c-.14-.85-.28-1.73.68-2.69.49-.49.91-1.02,1-1.28.52-1.44-.51-2.78-1.73-3.32-1.26-.55-2.37-.98-3.66-1.44-9.76-3.56-17.56-10.95-21.38-20.28-2.11-5.16-3-10.91-2.78-18.08l2.74-27.02,3.74-34.34h51.61s1.99,16.21,1.99,16.21l.86,8.57-.42.06h.42c0,.07.02.28.09.87l2.93,27.06c.38,3.42.74,6.66.81,10.14.12,5.98-.74,11.22-2.62,16-3.99,10.16-12.32,17.91-22.83,21.26-1.73.55-4.09,1.3-4.33,3-.12.87.41,1.95.98,2.49,1.17,1.09,1.03,2.04.87,3.04l-.05.33c-1.06,7.53-1.58,14.83-1.59,22.32l-.06,31.53.27,16.18,1.06,10.39,9.14,1.67c3.65.67,6.95,1.82,10.46,3.04l.16.06,1.23.56c2.03.91,4.13,1.86,6.29,3.41l1.95,1.4-23.57.22ZM266.2,207.69h.04l35.2.06,18.5-.17c-1.26-.7-2.51-1.27-3.81-1.85l-1.25-.57c-3.46-1.21-6.71-2.34-10.24-2.98l-10.3-1.88-1.18-11.63-.27-16.26.06-31.54c.02-7.56.54-14.93,1.61-22.53l.05-.34c.14-.89.17-1.13-.39-1.65-.85-.79-1.68-2.34-1.47-3.85.37-2.68,3.39-3.65,5.4-4.28,10.07-3.21,18.04-10.62,21.86-20.34,1.8-4.59,2.63-9.63,2.51-15.4-.07-3.41-.42-6.61-.8-9.99l-2.93-27.07c-.04-.38-.08-.7-.08-.95h0s-.85-8.55-.85-8.55l-1.82-14.82h-48.8s-3.58,32.94-3.58,32.94l-2.73,26.96c-.2,6.89.64,12.43,2.67,17.38,3.65,8.92,11.11,15.99,20.46,19.4,1.31.48,2.45.91,3.75,1.48,1.88.82,3.43,2.96,2.58,5.3-.24.67-.96,1.45-1.37,1.86-.38.38-.37.54-.24,1.32l.03.17c.76,4.75,1.54,10.42,1.62,16.49l.21,16.16v18.83s-.4,23.01-.4,23.01l-1.01,7.79-5.98,1.07c-6.34,1.14-14.37,3.39-19.36,6.48.4,0,.8,0,1.2-.02.37,0,.75-.02,1.14-.02Z"/>
  <path class="cls-3" d="M309.62,98.5c-3.62,3.26-7.9,5.6-12.58,6.95-4.64,1.34-9.28.87-13.68-1-4.14-1.76-7.82-4.29-10.93-7.52-1.98-2.31-3.84-4.51-5.18-7.26-2.99-6.1-4.05-12.84-3.59-19.68h56.03c.66,7.78-.67,15.07-4.51,21.85-1.69,2.41-3.36,4.68-5.56,6.67Z"/>
  <path class="cls-2" d="M390.76,209.32l-35.21-.06c-.37,0-.76,0-1.14.02-1.12.03-2.27.05-3.6-.19l-1.69-.32,1.35-1.07c4.9-3.9,14.47-6.69,21.79-8.01l4.85-.87.86-6.56.41-22.91v-18.8s-.22-16.15-.22-16.15c-.08-5.98-.85-11.57-1.6-16.26l-.03-.17c-.14-.85-.28-1.72.68-2.69.5-.49.91-1.02,1-1.27.52-1.44-.51-2.78-1.73-3.32-1.26-.55-2.37-.98-3.66-1.44-9.76-3.56-17.56-10.95-21.38-20.28-2.11-5.16-3-10.9-2.78-18.08l2.74-27.02,3.74-34.34h51.61s1.99,16.21,1.99,16.21l.86,8.57-.42.06h.42c0,.07.02.28.09.87l2.93,27.05c.38,3.43.75,6.67.81,10.15.12,5.98-.74,11.22-2.62,16-3.99,10.16-12.32,17.91-22.83,21.26-1.73.55-4.09,1.3-4.33,3-.12.87.41,1.95.98,2.49,1.17,1.09,1.03,2.04.87,3.04l-.05.32c-1.06,7.54-1.58,14.84-1.59,22.32l-.06,31.53.27,16.18,1.06,10.39,9.14,1.67c3.64.67,6.95,1.82,10.45,3.04l.17.06,1.23.56c2.03.91,4.13,1.86,6.28,3.41l1.95,1.4-23.56.22ZM355.52,207.69h.04l35.2.06,18.5-.17c-1.26-.7-2.51-1.27-3.81-1.85l-1.25-.57c-3.47-1.21-6.72-2.34-10.24-2.98l-10.3-1.88-1.18-11.63-.27-16.26.06-31.54c.01-7.55.54-14.92,1.61-22.53l.05-.34c.14-.89.17-1.13-.39-1.65-.85-.79-1.68-2.34-1.47-3.85.37-2.68,3.39-3.65,5.4-4.28,10.07-3.21,18.04-10.62,21.86-20.34,1.8-4.59,2.63-9.62,2.51-15.4-.07-3.41-.42-6.62-.8-10.01l-2.93-27.05c-.04-.38-.08-.7-.08-.95h0s-.85-8.55-.85-8.55l-1.82-14.82h-48.8s-3.58,32.94-3.58,32.94l-2.73,26.96c-.2,6.89.65,12.43,2.67,17.38,3.65,8.92,11.11,15.99,20.46,19.4,1.31.48,2.45.91,3.75,1.48,1.88.82,3.43,2.96,2.58,5.3-.24.67-.96,1.45-1.37,1.86-.38.38-.37.54-.24,1.32l.03.18c.76,4.74,1.54,10.41,1.62,16.49l.21,16.16v18.83s-.4,23.01-.4,23.01l-1.01,7.79-5.98,1.07c-6.34,1.14-14.37,3.39-19.36,6.48.4,0,.8,0,1.2-.02.37,0,.75-.02,1.13-.02Z"/>
  <path class="cls-4" d="M398.94,98.5c-3.62,3.26-7.9,5.6-12.58,6.95-4.64,1.34-9.28.87-13.68-1-4.14-1.76-7.82-4.29-10.93-7.52-1.98-2.31-3.84-4.51-5.18-7.26-2.99-6.1-4.05-12.84-3.59-19.68h56.03c.66,7.78-.67,15.07-4.51,21.85-1.69,2.41-3.36,4.68-5.56,6.67Z"/>
  <path class="cls-2" d="M480.08,209.32l-35.21-.06c-.37,0-.76,0-1.14.02-1.12.03-2.27.05-3.6-.19l-1.69-.32,1.35-1.07c4.9-3.9,14.47-6.69,21.79-8.01l4.85-.87.86-6.56.41-22.91v-18.8s-.22-16.15-.22-16.15c-.08-5.98-.85-11.57-1.6-16.26l-.03-.17c-.14-.85-.28-1.73.68-2.69.5-.49.91-1.02,1-1.28.52-1.44-.51-2.78-1.73-3.32-1.27-.55-2.38-.98-3.66-1.44-9.77-3.56-17.56-10.95-21.38-20.28-2.11-5.16-3-10.9-2.78-18.08l2.74-27.02,3.74-34.34h51.61s1.99,16.21,1.99,16.21l.85,8.57-.42.06h.42c0,.07.02.28.09.87l2.93,27.06c.38,3.42.74,6.66.81,10.14.12,5.98-.74,11.22-2.62,16-3.99,10.16-12.32,17.91-22.83,21.26-1.73.55-4.09,1.3-4.33,3-.12.87.41,1.95.98,2.49,1.17,1.09,1.03,2.04.87,3.04l-.05.32c-1.06,7.53-1.58,14.83-1.59,22.32l-.06,31.53.27,16.18,1.06,10.39,9.14,1.67c3.65.67,6.95,1.82,10.45,3.04l.17.06,1.23.56c2.03.91,4.13,1.86,6.29,3.41l1.95,1.4-23.57.22ZM444.84,207.69h.04l35.2.06,18.5-.17c-1.26-.7-2.51-1.27-3.81-1.85l-1.25-.57c-3.47-1.21-6.72-2.34-10.24-2.98l-10.3-1.88-1.18-11.63-.27-16.26.06-31.54c.02-7.56.54-14.93,1.61-22.53l.05-.34c.14-.89.17-1.13-.39-1.65-.85-.79-1.68-2.34-1.47-3.85.37-2.68,3.39-3.65,5.4-4.28,10.07-3.21,18.04-10.62,21.86-20.34,1.8-4.59,2.63-9.63,2.51-15.4-.07-3.41-.42-6.61-.8-9.99l-2.93-27.07c-.04-.38-.08-.7-.08-.95h0s-.85-8.55-.85-8.55l-1.82-14.82h-48.8s-3.58,32.94-3.58,32.94l-2.73,26.96c-.2,6.89.64,12.43,2.67,17.38,3.65,8.92,11.11,15.99,20.46,19.4,1.31.48,2.45.91,3.75,1.48,1.88.82,3.43,2.96,2.58,5.3-.24.67-.96,1.45-1.37,1.86-.38.38-.37.54-.24,1.32l.03.17c.76,4.74,1.54,10.41,1.62,16.49l.21,16.16v18.83s-.4,23.01-.4,23.01l-1.01,7.79-5.98,1.07c-6.34,1.14-14.37,3.39-19.36,6.48.4,0,.8,0,1.21-.02.37,0,.75-.02,1.13-.02Z"/>
  <path class="cls-4" d="M488.26,98.5c-3.62,3.26-7.9,5.6-12.58,6.95-4.64,1.34-9.28.87-13.68-1-4.14-1.76-7.82-4.29-10.93-7.52-1.98-2.31-3.84-4.51-5.18-7.26-2.99-6.1-4.05-12.84-3.59-19.68h56.03c.66,7.78-.67,15.07-4.51,21.85-1.69,2.41-3.36,4.68-5.56,6.67Z"/>
  <path class="cls-2" d="M569.4,209.32l-35.21-.06c-.36,0-.76,0-1.14.02-1.12.03-2.27.05-3.6-.19l-1.69-.32,1.35-1.07c4.9-3.9,14.47-6.69,21.79-8.01l4.85-.87.86-6.56.41-22.91v-18.8s-.22-16.15-.22-16.15c-.08-5.98-.85-11.57-1.6-16.26l-.03-.17c-.14-.85-.28-1.73.68-2.69.49-.49.91-1.02,1-1.28.52-1.44-.51-2.78-1.73-3.32-1.26-.55-2.37-.98-3.66-1.44-9.76-3.56-17.56-10.95-21.38-20.28-2.11-5.16-3-10.9-2.78-18.08l2.74-27.02,3.74-34.34h51.61s1.99,16.21,1.99,16.21l.86,8.57-.42.06h.42c0,.07.02.28.09.87l2.93,27.05c.38,3.43.75,6.67.81,10.15.12,5.98-.74,11.22-2.62,16-3.99,10.16-12.32,17.91-22.83,21.26-1.73.55-4.09,1.3-4.32,3-.12.87.41,1.95.98,2.49,1.17,1.09,1.03,2.04.87,3.04l-.05.32c-1.06,7.54-1.58,14.84-1.59,22.32l-.06,31.53.27,16.18,1.05,10.39,9.14,1.67c3.64.67,6.95,1.82,10.45,3.04l.17.06,1.23.56c2.03.91,4.13,1.86,6.29,3.41l1.95,1.4-23.57.22ZM534.15,207.69h.04l35.2.06,18.5-.17c-1.26-.7-2.51-1.27-3.81-1.85l-1.25-.57c-3.47-1.21-6.72-2.34-10.24-2.98l-10.3-1.88-1.18-11.63-.27-16.26.06-31.54c.01-7.55.54-14.92,1.61-22.53l.05-.34c.14-.89.17-1.13-.39-1.65-.85-.79-1.68-2.34-1.47-3.85.37-2.68,3.39-3.65,5.4-4.28,10.07-3.21,18.04-10.62,21.86-20.34,1.8-4.59,2.63-9.62,2.51-15.4-.07-3.41-.42-6.62-.8-10.01l-2.93-27.05c-.04-.38-.08-.7-.08-.95h0s-.85-8.55-.85-8.55l-1.82-14.82h-48.8s-3.58,32.94-3.58,32.94l-2.73,26.96c-.2,6.89.65,12.43,2.67,17.38,3.65,8.92,11.11,15.99,20.46,19.4,1.31.48,2.45.91,3.75,1.48,1.88.82,3.43,2.96,2.58,5.3-.24.67-.96,1.45-1.37,1.86-.38.38-.37.54-.24,1.32l.03.18c.76,4.74,1.54,10.41,1.62,16.49l.21,16.16v18.83s-.4,23.01-.4,23.01l-1.01,7.79-5.98,1.07c-6.34,1.14-14.37,3.39-19.36,6.48.4,0,.8,0,1.2-.02.37,0,.75-.02,1.13-.02Z"/>
  <path class="cls-1" d="M577.58,98.5c-3.62,3.26-7.9,5.6-12.58,6.95-4.64,1.34-9.28.87-13.68-1-4.14-1.76-7.82-4.29-10.93-7.52-1.98-2.31-3.84-4.51-5.18-7.26-2.99-6.1-4.05-12.84-3.59-19.68h56.03c.66,7.78-.67,15.07-4.51,21.85-1.69,2.41-3.36,4.68-5.56,6.67Z"/>
  <path class="cls-2" d="M658.72,209.32l-35.21-.06c-.37,0-.76,0-1.14.02-1.12.03-2.27.05-3.6-.19l-1.69-.32,1.35-1.07c4.9-3.9,14.47-6.69,21.79-8.01l4.85-.87.86-6.56.41-22.91v-18.8s-.22-16.15-.22-16.15c-.08-5.98-.85-11.57-1.6-16.26l-.03-.17c-.14-.85-.28-1.73.68-2.69.5-.49.91-1.02,1-1.27.52-1.44-.51-2.78-1.73-3.32-1.26-.55-2.38-.98-3.66-1.44-9.76-3.56-17.56-10.95-21.38-20.28-2.11-5.16-3-10.9-2.78-18.08l2.74-27.02,3.74-34.34h51.61s1.99,16.21,1.99,16.21l.86,8.57-.42.06h.42c0,.07.02.28.09.87l2.93,27.05c.38,3.43.75,6.67.81,10.15.12,5.98-.74,11.22-2.62,16-3.99,10.16-12.32,17.91-22.83,21.26-1.73.55-4.09,1.3-4.33,3-.12.87.41,1.95.98,2.49,1.17,1.09,1.03,2.04.87,3.04l-.05.32c-1.06,7.53-1.58,14.83-1.59,22.32l-.06,31.53.27,16.18,1.06,10.39,9.14,1.67c3.65.67,6.95,1.82,10.45,3.04l.17.06,1.23.56c2.13.96,4.13,1.86,6.29,3.41l1.95,1.4-23.57.22ZM623.47,207.69h.04l35.2.06,18.5-.17c-1.26-.71-2.51-1.27-3.81-1.85l-1.24-.56c-3.47-1.21-6.72-2.34-10.24-2.98l-10.3-1.88-1.18-11.63-.27-16.26.06-31.54c.02-7.56.54-14.93,1.61-22.53l.05-.34c.14-.89.17-1.13-.39-1.65-.85-.79-1.68-2.34-1.47-3.85.37-2.68,3.4-3.65,5.4-4.29,10.07-3.21,18.04-10.62,21.86-20.34,1.8-4.59,2.63-9.62,2.51-15.4-.07-3.41-.42-6.62-.8-10.01l-2.93-27.05c-.04-.38-.08-.7-.08-.95h0s-.85-8.55-.85-8.55l-1.82-14.82h-48.8s-3.58,32.94-3.58,32.94l-2.73,26.96c-.2,6.89.65,12.43,2.67,17.38,3.65,8.92,11.11,16,20.46,19.4,1.31.48,2.45.91,3.75,1.48,1.88.82,3.43,2.96,2.58,5.3-.24.67-.96,1.45-1.37,1.86-.38.38-.37.54-.24,1.32l.03.17c.76,4.74,1.54,10.41,1.62,16.49l.21,16.16v18.83s-.4,23.01-.4,23.01l-1.01,7.79-5.98,1.07c-6.34,1.14-14.37,3.39-19.36,6.48.4,0,.8,0,1.21-.02.37,0,.75-.02,1.13-.02Z"/>
  <path class="cls-3" d="M666.9,98.5c-3.62,3.26-7.9,5.6-12.58,6.95-4.64,1.34-9.28.87-13.68-1-4.14-1.76-7.82-4.29-10.93-7.52-1.98-2.31-3.84-4.51-5.18-7.26-2.99-6.1-4.05-12.84-3.59-19.68h56.03c.66,7.78-.67,15.07-4.51,21.85-1.69,2.41-3.36,4.68-5.56,6.67Z"/>
  <path class="cls-2" d="M748.04,209.32l-35.21-.06c-.37,0-.76,0-1.14.02-1.12.03-2.27.05-3.6-.19l-1.69-.32,1.35-1.07c4.9-3.9,14.47-6.69,21.79-8.01l4.85-.87.86-6.56.41-22.91v-18.8s-.22-16.15-.22-16.15c-.08-5.97-.85-11.57-1.6-16.26l-.03-.17c-.14-.85-.28-1.73.68-2.69.49-.49.91-1.02,1-1.28.52-1.44-.51-2.78-1.73-3.32-1.26-.55-2.37-.98-3.66-1.44-9.76-3.56-17.56-10.95-21.38-20.28-2.11-5.16-3-10.9-2.78-18.08l2.74-27.02,3.74-34.34h51.61s1.99,16.21,1.99,16.21l.86,8.57-.42.06h.42c0,.07.02.28.09.87l2.93,27.05c.38,3.43.75,6.66.81,10.15.12,5.98-.74,11.22-2.62,16-3.99,10.16-12.32,17.91-22.83,21.26-1.73.55-4.09,1.3-4.33,3-.12.87.41,1.95.98,2.49,1.17,1.09,1.03,2.04.87,3.04l-.05.33c-1.06,7.53-1.58,14.83-1.59,22.32l-.06,31.53.27,16.18,1.05,10.39,9.14,1.67c3.65.67,6.95,1.82,10.46,3.04l.16.06,1.23.56c2.03.91,4.13,1.86,6.29,3.41l1.95,1.4-23.57.22ZM712.79,207.69h.04l35.2.06,18.5-.17c-1.26-.7-2.51-1.27-3.81-1.85l-1.25-.57c-3.46-1.21-6.71-2.34-10.24-2.98l-10.3-1.88-1.18-11.63-.27-16.26.06-31.54c.02-7.56.54-14.93,1.61-22.53l.05-.34c.14-.89.17-1.13-.39-1.65-.85-.79-1.68-2.34-1.47-3.85.37-2.68,3.39-3.65,5.4-4.28,10.07-3.21,18.04-10.62,21.86-20.34,1.8-4.59,2.63-9.63,2.51-15.4-.07-3.41-.43-6.62-.8-10.01l-2.93-27.05c-.04-.38-.08-.7-.08-.95h0s-.85-8.55-.85-8.55l-1.82-14.82h-48.8s-3.58,32.94-3.58,32.94l-2.73,26.96c-.2,6.89.64,12.43,2.67,17.38,3.65,8.92,11.11,15.99,20.46,19.4,1.31.48,2.45.91,3.75,1.48,1.88.82,3.43,2.96,2.58,5.3-.24.67-.96,1.45-1.37,1.86-.38.38-.37.54-.24,1.32l.03.17c.76,4.75,1.54,10.42,1.62,16.49l.21,16.16v18.83s-.4,23.01-.4,23.01l-1.01,7.79-5.98,1.07c-6.34,1.14-14.37,3.39-19.36,6.48.4,0,.8,0,1.2-.02.37,0,.75-.02,1.13-.02Z"/>
  <path class="cls-3" d="M756.22,98.5c-3.62,3.26-7.9,5.6-12.58,6.95-4.64,1.34-9.28.87-13.68-1-4.14-1.76-7.82-4.29-10.93-7.52-1.98-2.31-3.84-4.51-5.18-7.26-2.99-6.1-4.05-12.84-3.59-19.68h56.03c.66,7.78-.67,15.07-4.51,21.85-1.69,2.41-3.36,4.68-5.56,6.67Z"/>
  <path class="cls-2" d="M837.36,209.32l-35.21-.06c-.37,0-.76,0-1.14.02-1.12.03-2.27.05-3.6-.19l-1.69-.32,1.35-1.07c4.9-3.9,14.47-6.69,21.79-8.01l4.85-.87.86-6.56.41-22.91v-18.8s-.22-16.15-.22-16.15c-.08-5.98-.85-11.57-1.6-16.26l-.03-.17c-.14-.85-.28-1.73.68-2.69.5-.49.91-1.02,1-1.27.52-1.44-.51-2.78-1.73-3.32-1.27-.55-2.38-.98-3.66-1.44-9.76-3.56-17.56-10.95-21.38-20.28-2.11-5.16-3-10.9-2.78-18.08l2.74-27.02,3.74-34.34h51.61s1.99,16.21,1.99,16.21l.86,8.57-.42.06h.42c0,.07.02.28.09.87l2.93,27.05c.38,3.43.75,6.67.81,10.15.12,5.98-.74,11.22-2.62,16-3.99,10.16-12.32,17.91-22.83,21.26-1.73.55-4.09,1.3-4.33,3-.12.87.41,1.95.98,2.49,1.17,1.09,1.03,2.04.87,3.04l-.05.32c-1.06,7.53-1.58,14.83-1.59,22.32l-.06,31.53.27,16.18,1.06,10.39,9.14,1.67c3.64.67,6.95,1.82,10.45,3.04l.17.06,1.23.56c2.03.91,4.13,1.86,6.28,3.41l1.95,1.4-23.56.22ZM802.11,207.69h.04l35.2.06,18.5-.17c-1.26-.7-2.51-1.27-3.81-1.85l-1.25-.57c-3.47-1.21-6.72-2.34-10.24-2.98l-10.3-1.88-1.18-11.63-.27-16.26.06-31.54c.01-7.56.54-14.93,1.61-22.53l.05-.34c.14-.89.17-1.13-.39-1.65-.85-.79-1.68-2.34-1.47-3.85.37-2.68,3.39-3.65,5.4-4.28,10.07-3.21,18.04-10.62,21.86-20.34,1.8-4.59,2.63-9.62,2.51-15.4-.07-3.41-.42-6.62-.8-10.01l-2.93-27.05c-.04-.38-.08-.7-.08-.95h0s-.85-8.55-.85-8.55l-1.82-14.82h-48.8s-3.58,32.94-3.58,32.94l-2.73,26.96c-.2,6.89.65,12.43,2.67,17.38,3.65,8.92,11.11,15.99,20.46,19.4,1.31.48,2.45.91,3.75,1.48,1.88.82,3.43,2.96,2.58,5.3-.24.67-.96,1.45-1.37,1.86-.38.38-.37.54-.24,1.32l.03.17c.76,4.74,1.54,10.41,1.62,16.49l.21,16.16v18.83s-.4,23.01-.4,23.01l-1.01,7.79-5.98,1.07c-6.34,1.14-14.37,3.39-19.36,6.48.4,0,.8,0,1.21-.02.37,0,.75-.02,1.13-.02Z"/>
  <path class="cls-4" d="M845.53,98.5c-3.62,3.26-7.9,5.6-12.58,6.95-4.64,1.34-9.28.87-13.68-1-4.14-1.76-7.82-4.29-10.93-7.52-1.98-2.31-3.84-4.51-5.18-7.26-2.99-6.1-4.05-12.84-3.59-19.68h56.03c.66,7.78-.67,15.07-4.51,21.85-1.69,2.41-3.36,4.68-5.56,6.67Z"/>
  <path class="cls-2" d="M926.68,209.32l-35.21-.06c-.35,0-.76,0-1.14.02-1.12.03-2.27.05-3.6-.19l-1.69-.32,1.35-1.07c4.9-3.9,14.47-6.69,21.79-8.01l4.85-.87.86-6.56.41-22.91v-18.8s-.22-16.15-.22-16.15c-.08-5.98-.85-11.57-1.6-16.26l-.03-.17c-.14-.85-.28-1.73.68-2.69.49-.49.91-1.02,1-1.28.52-1.44-.51-2.78-1.73-3.32-1.27-.55-2.38-.98-3.66-1.44-9.77-3.56-17.56-10.95-21.38-20.28-2.11-5.16-3-10.9-2.78-18.08l2.74-27.02,3.74-34.34h51.61s1.99,16.21,1.99,16.21l.85,8.57-.42.06h.42c0,.07.02.28.09.87l2.93,27.06c.38,3.42.74,6.66.81,10.14.12,5.98-.74,11.22-2.62,16-3.99,10.16-12.32,17.91-22.83,21.26-1.73.55-4.09,1.3-4.33,3-.12.87.41,1.95.98,2.49,1.17,1.09,1.03,2.04.87,3.04l-.05.32c-1.06,7.53-1.58,14.83-1.59,22.32l-.06,31.53.27,16.18,1.06,10.39,9.14,1.67c3.65.67,6.95,1.82,10.45,3.04l.17.06,1.23.56c2.03.91,4.13,1.86,6.29,3.41l1.95,1.4-23.57.22ZM891.43,207.69h.04l35.2.06,18.5-.17c-1.26-.7-2.51-1.27-3.81-1.85l-1.25-.57c-3.47-1.21-6.72-2.34-10.24-2.98l-10.3-1.88-1.18-11.63-.27-16.26.06-31.54c.02-7.56.54-14.93,1.61-22.53l.05-.34c.14-.89.17-1.13-.39-1.65-.85-.79-1.68-2.34-1.47-3.85.37-2.68,3.39-3.65,5.4-4.28,10.07-3.21,18.04-10.62,21.86-20.34,1.8-4.59,2.63-9.63,2.51-15.4-.07-3.41-.42-6.61-.8-9.99l-2.93-27.07c-.04-.38-.08-.7-.08-.95h0s-.85-8.55-.85-8.55l-1.82-14.82h-48.8s-3.58,32.94-3.58,32.94l-2.73,26.96c-.2,6.89.64,12.43,2.67,17.38,3.65,8.92,11.11,15.99,20.46,19.4,1.31.48,2.45.91,3.75,1.48,1.88.82,3.43,2.96,2.58,5.3-.24.67-.96,1.45-1.37,1.86-.38.38-.37.54-.24,1.32l.03.17c.76,4.74,1.54,10.41,1.62,16.49l.21,16.16v18.83s-.4,23.01-.4,23.01l-1.01,7.79-5.98,1.07c-6.34,1.14-14.37,3.39-19.36,6.48.4,0,.8,0,1.21-.02.37,0,.75-.02,1.13-.02Z"/>
  <path class="cls-3" d="M934.85,98.5c-3.62,3.26-7.9,5.6-12.58,6.95-4.64,1.34-9.28.87-13.68-1-4.14-1.76-7.82-4.29-10.93-7.52-1.98-2.31-3.84-4.51-5.18-7.26-2.99-6.1-4.05-12.84-3.59-19.68h56.03c.66,7.78-.67,15.07-4.51,21.85-1.69,2.41-3.36,4.68-5.56,6.67Z"/>
</svg>