<?xml version="1.0" encoding="UTF-8"?>
<svg id="Layer_1" data-name="Layer 1" xmlns="http://www.w3.org/2000/svg" viewBox="0 0 1000 1000">
  <defs>
    <style>
      .cls-1 {
        fill: #5b0718;
      }
    </style>
  </defs>
  <path class="cls-1" d="M312.38,680.42l22.59.15-.02,40.35c-19.86-.17-37.61-7.8-50.07-21.55-12.3-13.58-18.03-31.67-16.13-50.93,1.66-16.79,9.28-32.12,21.47-43.15,12.23-11.07,28.37-17.19,45.45-17.23h.64s.18-15.11.18-15.11h-.65c-.15,0-.3,0-.45,0-19.75,0-38.76,6.94-53.56,19.57-14.94,12.75-24.76,30.59-27.67,50.23-3.41,23.09,2.35,45.39,16.21,62.81,13.95,17.52,34.57,28.2,58.04,30.05,3.57.28,6.97.36,10.52.36,2.07,0,4.19-.03,6.43-.05,1.15-.01,2.33-.03,3.54-.04h.64s.02-67.05.02-67.05h-37.16s-.04,11.59-.04,11.59Z"/>
  <path class="cls-1" d="M417.98,578.42c-11.63-9.47-27.9-9.78-39.58-.76-4.96,3.83-7.96,9.3-8.01,14.62l-.71,70.24v73.47h15.44l.51-98.84,23.98.07.6,98.69,15.75-.07-.54-140.83c-.03-7.11-2.46-12.53-7.43-16.58ZM409.68,625.46l-23.92.02.55-32.48c.05-2.35.83-4.25,2.3-5.65,1.91-1.82,4.94-2.78,8.79-2.78.2,0,.4,0,.6,0,5.22.13,11.46,1.86,11.52,9.35l.16,31.53Z"/>
  <path class="cls-1" d="M543.52,575.62h-9.08v127.76h9.08c18.13,0,33.29-6.38,43.85-18.44,10.03-11.46,15.34-27.22,15.34-45.56s-5.3-34.04-15.34-45.44c-10.55-11.98-25.71-18.32-43.85-18.32ZM548.98,689.06v-99.11c11.24.4,20.87,5.22,27.9,13.95,7.21,8.96,11.03,21.23,11.03,35.48s-3.81,26.7-11.03,35.7c-7.02,8.75-16.66,13.58-27.9,13.98Z"/>
  <polygon class="cls-1" points="666.43 588.37 666.43 575.62 620.81 575.62 620.81 690.38 666.43 690.38 666.43 677.62 635.35 677.62 635.35 624.68 656.32 624.68 656.32 612.14 635.35 612.14 635.35 588.37 666.43 588.37"/>
  <polygon class="cls-1" points="737.29 607.23 691.89 573.35 689.44 573.35 689.44 734.88 704.28 734.88 704.28 600.12 737.29 624.88 737.29 734.88 752.12 734.88 752.12 575.61 737.29 575.61 737.29 607.23"/>
  <path class="cls-1" d="M580.89,721.81c-.95.37-1.91.75-2.88,1.13-16.84,6.64-35.92,14.16-61.65,2.37-16.04-7.35-24.16-27.17-26.98-35.65,14.34-9.72,23.9-24.77,26.63-42.33,1.77-11.39.63-22.99-3.3-33.56-3.99-10.71-10.77-20.14-19.62-27.26-12.68-10.21-28.88-15.25-46.84-14.57l-.62.02v163.96s16.1.09,16.1.09l.03-34.97c1.16-.18,1.84-.37,2.74-.62.47-.13,1-.28,1.69-.46.66-.17,1.32-.37,1.94-.62l8.34-3.25c4,11.28,14.01,33.06,33.93,42.19,10.99,5.04,21.77,7.53,32.72,7.53,2.91,0,5.84-.18,8.78-.53,11.96-1.43,22.25-5.48,31.34-9.06.95-.38,1.9-.75,2.83-1.11,38.28-14.93,54.37-8.84,76.31,2.97l6.77-12.57c-11.14-5.99-22.3-11.5-36.45-13.04-14.86-1.62-31.33,1.35-51.82,9.34ZM500.65,635.4c.78,24.34-15.18,44.47-38.9,49.22v-96.11c22.56,5,38.16,23.75,38.9,46.89Z"/>
  <path class="cls-1" d="M265.22,535.82c33.83,0,57.76-14.55,69.46-42.15,11.7,27.6,35.63,42.15,69.46,42.15h4.57l15.87-277.71h-18.73l-14.9,259.24c-15.78-1.59-27.8-8.96-35.74-21.91-7.4-12.06-11.16-28.56-11.16-49.04v-188.3h-18.73v188.3c0,20.48-3.75,36.98-11.16,49.04-7.95,12.95-19.97,20.31-35.74,21.91l-14.9-259.24h-18.73l15.87,277.71h4.57Z"/>
  <rect class="cls-1" x="465.92" y="258.11" width="18.73" height="277.71"/>
  <polygon class="cls-1" points="550.08 287.75 609.83 332.2 609.83 535.82 628.56 535.82 628.56 258.11 609.83 258.11 609.83 309.59 535.33 254.19 531.35 254.19 531.35 535.82 550.08 535.82 550.08 287.75"/>
  <polygon class="cls-1" points="755.22 276.84 755.22 258.11 675.67 258.11 675.67 535.82 755.22 535.82 755.22 517.09 694.4 517.09 694.4 363.16 740.67 363.16 740.67 344.44 694.4 344.44 694.4 276.84 755.22 276.84"/>
</svg>