<svg xmlns="http://www.w3.org/2000/svg" viewBox="0 0 320 80" role="img" aria-label="Cartões Caixa">
  <rect width="320" height="80" fill="none"/>
  <path fill="#005CA9" d="M48 12c-18 0-32 14-32 32s14 32 32 32 32-14 32-32-14-32-32-32zm0 52c-11 0-20-9-20-20s9-20 20-20 20 9 20 20-9 20-20 20z"/>
  <path fill="#F39200" d="M48 28c-9 0-16 7-16 16s7 16 16 16c4 0 8-2 11-5l-8-8c-1 1-3 2-5 2-4 0-7-3-7-7s3-7 7-7c2 0 4 1 5 2l8-8c-3-3-7-5-11-5z"/>
  <text x="96" y="50" fill="#005CA9" font-family="Arial, Helvetica, sans-serif" font-size="28" font-weight="700">CAIXA</text>
</svg>
